<?xml version="1.0" encoding="UTF-8"?><svg id="Layer_2" xmlns="http://www.w3.org/2000/svg" viewBox="0 0 83.42 63.82"><defs><style>.cls-1{fill:#0bb;}</style></defs><g id="Layer_1-2"><path class="cls-1" d="m74.32,32.13q0-.06.06-.06h8.97s.06,0,.06-.06v-.06l-14.95-17.43h-.13l-14.95,17.43v.06l.07.06h10.43q.07,0,.07.06v21.25q0,.06-.07.06H9.86q-.07,0-.07.06v10.24q0,.07.07.07h64.46q.06,0,.06-.07v-10.31h-.06v-21.32h0Z"/><path class="cls-1" d="m74.32,10.37q.06,0,.06-.06V.07q0-.07-.06-.07H9.86q-.07,0-.07.07v32.13q0,.06-.06.06H.06s-.06,0-.06.06v.06l14.89,17.43h.13l14.95-17.43v-.06l-.06-.06h-9.67q-.06,0-.06-.06V10.44q0-.06.06-.06h54.09Z"/><path d="m69.17,59.48H14.51c-.55,0-1-.45-1-1s.45-1,1-1h53.66V23.73c0-.55.45-1,1-1s1,.45,1,1v34.74c0,.55-.45,1-1,1Z"/><path d="m15.08,40.83c-.55,0-1-.45-1-1V5.09c0-.55.45-1,1-1h55.87c.55,0,1,.45,1,1s-.45,1-1,1H16.08v33.74c0,.55-.45,1-1,1Z"/></g></svg>