<?xml version="1.0" encoding="UTF-8"?><svg id="Layer_2" xmlns="http://www.w3.org/2000/svg" viewBox="0 0 124.56 103.24"><defs><style>.cls-1{fill:#040404;}.cls-2{fill:#67c4c2;}.cls-3{fill:#efa533;}</style></defs><g id="Layer_1-2"><path class="cls-2" d="m107.69,26.62l-3.5-5.7C12.73,11.52,9.27,8.23,1.5,8.23v93.51h123.06l-16.87-75.12h0Z"/><path class="cls-3" d="m103.57,8.23H1.5l7.74,26.99h100.73l-7.74-26.99h1.34Z"/><path class="cls-1" d="m110.04,36.72H8.22c-.83,0-1.5-.67-1.5-1.5s.67-1.5,1.5-1.5h101.83c.83,0,1.5.67,1.5,1.5s-.67,1.5-1.5,1.5Z"/><path class="cls-1" d="m15.82,21.89c-1.69,0-3.33-.39-4.84-1.15-.74-.37-1.04-1.28-.66-2.02.37-.74,1.28-1.03,2.02-.66,1.43.72,3.04.98,4.66.74,1.57-.24,3.04-.97,4.23-2.1,1.18-1.11,1.97-2.55,2.3-4.17.32-1.58.15-3.26-.48-4.75-.63-1.47-1.73-2.75-3.1-3.61-1.38-.85-2.96-1.25-4.58-1.16-1.6.09-3.16.69-4.4,1.69-1.28,1.03-2.2,2.4-2.66,3.96-.24.79-1.07,1.25-1.86,1.01-.79-.24-1.25-1.07-1.01-1.86.64-2.15,1.9-4.03,3.66-5.44C10.81.98,12.98.15,15.19.02c2.24-.13,4.42.43,6.33,1.61,1.92,1.2,3.39,2.92,4.27,4.98.87,2.05,1.11,4.37.66,6.53-.45,2.22-1.55,4.2-3.18,5.74-1.63,1.55-3.66,2.55-5.85,2.89-.54.08-1.08.12-1.62.12Z"/><path class="cls-1" d="m52.17,21.89c-1.69,0-3.33-.39-4.84-1.15-.74-.37-1.04-1.28-.66-2.02.37-.74,1.28-1.03,2.02-.66,1.43.72,3.04.98,4.66.74,1.57-.25,3.08-.99,4.23-2.09,1.18-1.12,1.98-2.56,2.31-4.18.32-1.58.15-3.26-.48-4.75-.63-1.47-1.73-2.75-3.1-3.61-1.38-.85-2.96-1.25-4.58-1.16-1.6.09-3.13.68-4.41,1.69-1.27,1.02-2.19,2.39-2.66,3.95-.24.79-1.07,1.25-1.86,1.01-.79-.24-1.25-1.07-1.01-1.86.64-2.15,1.9-4.03,3.66-5.44,1.77-1.41,3.88-2.21,6.1-2.34,2.24-.13,4.42.43,6.33,1.61,1.92,1.2,3.39,2.92,4.27,4.98.87,2.05,1.11,4.37.66,6.53-.45,2.22-1.55,4.2-3.18,5.74-1.58,1.52-3.66,2.55-5.85,2.89-.54.08-1.08.12-1.62.12Z"/><path class="cls-1" d="m88.51,21.89c-1.69,0-3.33-.39-4.84-1.15-.74-.37-1.04-1.28-.66-2.02.37-.74,1.28-1.03,2.02-.66,1.43.72,3.04.98,4.65.74,1.57-.25,3.08-.99,4.23-2.09,1.18-1.12,1.98-2.56,2.31-4.18.32-1.58.15-3.26-.48-4.75-.63-1.47-1.73-2.75-3.1-3.61-1.38-.85-2.96-1.25-4.58-1.16-1.6.09-3.16.69-4.4,1.69-1.28,1.03-2.2,2.4-2.66,3.96-.24.79-1.07,1.25-1.86,1.01-.79-.24-1.25-1.07-1.01-1.86.64-2.15,1.9-4.03,3.66-5.44,1.72-1.38,3.89-2.21,6.1-2.34,2.24-.13,4.42.43,6.33,1.61,1.92,1.2,3.39,2.92,4.27,4.98.87,2.05,1.11,4.37.66,6.53-.45,2.22-1.55,4.2-3.18,5.74-1.58,1.52-3.66,2.55-5.85,2.89-.54.08-1.08.12-1.62.12Z"/><path class="cls-1" d="m70.33,21.89c-1.69,0-3.33-.39-4.84-1.15-.74-.37-1.04-1.28-.66-2.02.37-.74,1.28-1.03,2.02-.66,1.43.72,3.04.98,4.66.74,1.58-.25,3.04-.97,4.24-2.1,1.18-1.11,1.97-2.55,2.3-4.17.33-1.58.15-3.26-.48-4.75-.63-1.47-1.73-2.75-3.1-3.61-1.38-.85-2.96-1.25-4.58-1.16-1.6.09-3.13.68-4.41,1.69-1.27,1.02-2.19,2.39-2.66,3.95-.24.79-1.07,1.25-1.86,1.01-.79-.24-1.25-1.07-1.01-1.86.64-2.15,1.9-4.03,3.66-5.44,1.77-1.41,3.88-2.21,6.1-2.34,2.24-.13,4.42.43,6.33,1.61,1.92,1.2,3.39,2.92,4.27,4.98.87,2.05,1.11,4.37.66,6.53-.45,2.22-1.55,4.2-3.17,5.74-1.63,1.55-3.66,2.55-5.85,2.89-.54.08-1.08.12-1.62.12Z"/><path class="cls-1" d="m33.98,21.89c-1.69,0-3.33-.39-4.84-1.15-.74-.37-1.04-1.28-.66-2.02.37-.74,1.28-1.03,2.02-.66,1.43.72,3.04.98,4.66.74,1.58-.25,3.04-.97,4.24-2.1,1.18-1.11,1.97-2.55,2.3-4.17.33-1.58.15-3.26-.48-4.75-.63-1.47-1.73-2.75-3.1-3.61-1.38-.85-2.96-1.25-4.58-1.16-1.6.09-3.13.68-4.41,1.69-1.27,1.02-2.19,2.39-2.66,3.95-.24.79-1.07,1.25-1.86,1.01-.79-.24-1.25-1.07-1.01-1.86.64-2.15,1.9-4.03,3.66-5.44C29.03.96,31.14.15,33.36.02c2.24-.13,4.42.43,6.33,1.61,1.92,1.2,3.39,2.92,4.27,4.98.87,2.05,1.11,4.37.66,6.53-.45,2.22-1.55,4.2-3.17,5.74-1.63,1.55-3.66,2.55-5.85,2.89-.54.08-1.08.12-1.62.12Z"/><path class="cls-1" d="m12.01,103.24c-.75,0-1.4-.57-1.49-1.33L.01,8.4c-.09-.82.5-1.57,1.32-1.66.84-.1,1.57.5,1.66,1.32l10.51,93.5c.09.82-.5,1.57-1.32,1.66-.06,0-.11,0-.17,0Z"/><path class="cls-1" d="m22.48,103.24c-.69,0-1.31-.47-1.46-1.17L.04,8.56c-.18-.81.33-1.61,1.14-1.79.81-.18,1.61.33,1.79,1.14l20.98,93.51c.18.81-.33,1.61-1.14,1.79-.11.02-.22.04-.33.04Z"/><path d="m46.11,58.86v-6.18h13.71v28.41h-8.97v-22.23h-4.73Z"/><path d="m74.02,52.69h10.58v16.26h3.42v7h-3.42v5.15h-8.93v-5.15h-13.38v-6.79l11.73-16.47Zm1.85,8.85l-5.35,7.62h5.35v-7.62Z"/></g></svg>