<?xml version="1.0" encoding="utf-8"?>
<!-- Generator: Adobe Illustrator 27.6.1, SVG Export Plug-In . SVG Version: 6.00 Build 0)  -->
<svg version="1.1" id="Layer_2_00000169518850963785800910000017191890073501377665_"
	 xmlns="http://www.w3.org/2000/svg" xmlns:xlink="http://www.w3.org/1999/xlink" x="0px" y="0px" viewBox="0 0 97.6 80.7"
	 style="enable-background:new 0 0 97.6 80.7;" xml:space="preserve">
<style type="text/css">
	.st0{fill:#FFFFFF;}
	.st1{fill:#F0AE20;}
	.st2{fill:#E64C38;}
</style>
<g id="Layer_1-2_00000142887606508462356820000005143059419134443413_">
	<g id="Layer_1-2">
		<path class="st0" d="M84.3,20.7l-2.7-4.5C9.8,8.9,7.1,6.3,1,6.3v73.4h96.6L84.3,20.7C84.4,20.7,84.4,20.7,84.3,20.7z"/>
		<path class="st1" d="M81.1,6.3H1l3.2,14.4h80.1L81.1,6.3C81.1,6.3,81.1,6.3,81.1,6.3z"/>
		<path d="M71.7,80.7c-0.5,0-0.9-0.3-1-0.8l-13.2-59c-0.1-0.5,0.2-1.1,0.8-1.2c0.5-0.1,1.1,0.2,1.2,0.8l13.2,59
			c0.1,0.5-0.2,1.1-0.8,1.2C71.8,80.7,71.8,80.7,71.7,80.7z"/>
		<path d="M43.3,80.7c-0.5,0-0.9-0.3-1-0.8l-13.2-59c-0.1-0.5,0.2-1.1,0.8-1.2s1.1,0.2,1.2,0.8l13.2,59c0.1,0.5-0.2,1.1-0.8,1.2
			C43.5,80.7,43.4,80.7,43.3,80.7z"/>
		<path d="M93.1,60.8H13.1c-0.6,0-1-0.5-1-1s0.4-1,1-1h80.1c0.6,0,1,0.5,1,1S93.7,60.8,93.1,60.8z"/>
		<path d="M88.8,41.6H8.9c-0.6,0-1-0.5-1-1s0.4-1,1-1h79.9c0.6,0,1,0.5,1,1S89.4,41.6,88.8,41.6z"/>
		<path d="M12.2,16.8c-1.3,0-2.6-0.3-3.7-0.9c-0.5-0.2-0.7-0.9-0.4-1.3c0.2-0.5,0.9-0.7,1.3-0.4c1.2,0.6,2.5,0.8,3.8,0.6
			s2.5-0.8,3.4-1.7c1-0.9,1.6-2.1,1.9-3.4c0.3-1.3,0.1-2.6-0.4-3.8c-0.5-1.2-1.4-2.2-2.5-2.9c-1.1-0.7-2.4-1-3.7-0.9
			c-1.3,0.1-2.5,0.5-3.6,1.4c-1,0.8-1.8,1.9-2.2,3.2C6,7.1,5.4,7.4,4.9,7.2S4.1,6.5,4.2,6c0.5-1.7,1.5-3.1,2.8-4.2
			c1.4-1.1,3-1.7,4.7-1.8c1.7-0.1,3.4,0.3,4.9,1.2c1.5,0.9,2.6,2.2,3.3,3.8c0.7,1.6,0.9,3.3,0.5,5c-0.3,1.7-1.2,3.2-2.4,4.4
			s-2.8,2-4.5,2.2C13.1,16.8,12.6,16.9,12.2,16.8L12.2,16.8z"/>
		<path d="M40.8,16.8c-1.3,0-2.5-0.3-3.7-0.9c-0.5-0.2-0.7-0.9-0.4-1.3s0.8-0.7,1.3-0.4c1.2,0.6,2.5,0.8,3.8,0.6
			c1.3-0.2,2.5-0.8,3.4-1.7c1-0.9,1.6-2.1,1.8-3.4c0.3-1.3,0.1-2.6-0.4-3.8c-0.5-1.2-1.4-2.2-2.5-2.9c-1.1-0.7-2.4-1-3.7-0.9
			c-1.3,0.1-2.5,0.5-3.6,1.4c-1,0.8-1.8,1.9-2.1,3.2c-0.2,0.5-0.7,0.8-1.2,0.7S32.6,6.5,32.8,6c0.5-1.7,1.5-3.1,2.8-4.2
			c1.4-1.1,3-1.7,4.7-1.8c1.7-0.1,3.4,0.3,4.9,1.2c1.5,0.9,2.6,2.2,3.3,3.8c0.7,1.6,0.9,3.3,0.5,5c-0.3,1.7-1.2,3.2-2.4,4.4
			c-1.2,1.2-2.8,2-4.5,2.2C41.6,16.8,41.2,16.9,40.8,16.8L40.8,16.8z"/>
		<path d="M69.3,16.8c-1.3,0-2.6-0.3-3.7-0.9c-0.5-0.2-0.7-0.9-0.4-1.3s0.8-0.7,1.3-0.4c1.2,0.6,2.5,0.8,3.8,0.6s2.5-0.8,3.4-1.7
			c0.9-0.9,1.6-2.1,1.8-3.4c0.3-1.3,0.1-2.6-0.4-3.8c-0.5-1.2-1.4-2.2-2.5-2.9s-2.4-1-3.7-0.9c-1.3,0.1-2.5,0.5-3.6,1.4
			c-1,0.8-1.8,1.9-2.2,3.2c-0.2,0.5-0.7,0.8-1.2,0.7S61.1,6.5,61.3,6c0.5-1.7,1.5-3.1,2.8-4.2c1.3-1.1,3-1.7,4.7-1.8
			s3.4,0.3,4.9,1.2c1.5,0.9,2.6,2.2,3.3,3.8c0.7,1.6,0.9,3.3,0.5,5c-0.3,1.7-1.2,3.2-2.4,4.4c-1.2,1.2-2.8,2-4.5,2.2
			C70.1,16.8,69.7,16.9,69.3,16.8L69.3,16.8z"/>
		<path d="M55,16.8c-1.3,0-2.5-0.3-3.7-0.9c-0.5-0.2-0.7-0.9-0.4-1.3s0.8-0.7,1.3-0.4c1.2,0.6,2.5,0.8,3.8,0.6
			c1.3-0.2,2.5-0.8,3.4-1.7c1-0.9,1.6-2.1,1.8-3.4c0.3-1.3,0.1-2.6-0.4-3.8c-0.5-1.2-1.4-2.2-2.5-2.9c-1.1-0.7-2.4-1-3.7-0.9
			c-1.3,0.1-2.5,0.5-3.6,1.4c-1,0.8-1.8,1.9-2.2,3.2c-0.2,0.5-0.7,0.8-1.2,0.7C47.2,7.1,46.9,6.5,47,6c0.5-1.7,1.5-3.1,2.8-4.2
			c1.4-1.1,3-1.7,4.7-1.8c1.7-0.1,3.4,0.3,4.9,1.2s2.6,2.2,3.3,3.8c0.7,1.6,0.9,3.3,0.5,5c-0.3,1.7-1.2,3.2-2.4,4.4
			c-1.2,1.2-2.8,2-4.5,2.2C55.8,16.8,55.4,16.9,55,16.8L55,16.8z"/>
		<path d="M26.5,16.8c-1.3,0-2.5-0.3-3.7-0.9c-0.5-0.2-0.7-0.9-0.4-1.3s0.9-0.7,1.3-0.4c1.2,0.6,2.5,0.8,3.8,0.6
			c1.3-0.2,2.5-0.8,3.4-1.7c1-0.9,1.6-2.1,1.9-3.4c0.3-1.3,0.1-2.6-0.4-3.8c-0.5-1.2-1.4-2.2-2.5-2.9c-1.1-0.7-2.4-1-3.7-0.9
			c-1.3,0.1-2.5,0.5-3.6,1.4c-1,0.8-1.8,1.9-2.1,3.2c-0.2,0.5-0.7,0.8-1.2,0.7S18.4,6.5,18.5,6C19,4.3,20,2.9,21.3,1.8
			c1.4-1.1,3-1.7,4.7-1.8c1.7-0.1,3.4,0.3,4.9,1.2c1.5,0.9,2.6,2.2,3.3,3.8c0.7,1.6,0.9,3.3,0.5,5c-0.3,1.7-1.2,3.2-2.4,4.4
			c-1.2,1.2-2.8,2-4.5,2.2C27.3,16.8,26.9,16.9,26.5,16.8L26.5,16.8z"/>
		<path d="M9.2,80.7c-0.5,0-0.9-0.4-1-0.9L0,6.4c-0.1-0.6,0.3-1,0.9-1.1c0.6-0.1,1,0.3,1.1,0.9l8.2,73.4c0.1,0.6-0.3,1-0.9,1.1
			C9.3,80.6,9.3,80.6,9.2,80.7L9.2,80.7z"/>
		<path d="M17.5,80.7c-0.5,0-0.9-0.3-1-0.8L0,6.5C-0.1,6,0.2,5.4,0.8,5.3S1.9,5.5,2,6.1l16.5,73.4c0.1,0.5-0.2,1.1-0.8,1.2
			C17.6,80.7,17.5,80.7,17.5,80.7L17.5,80.7z"/>
		<path class="st2" d="M87.7,56.5c-0.2,0-0.3,0-0.5-0.1c-5.5-3.3-11.1-6.8-16.5-10.4c-0.5-0.3-0.6-0.9-0.3-1.4
			c0.3-0.5,0.9-0.6,1.4-0.3c5.4,3.6,10.9,7,16.4,10.3c0.5,0.3,0.6,0.9,0.3,1.4C88.3,56.3,88,56.5,87.7,56.5z"/>
		<path class="st2" d="M73.7,56.4c-0.3,0-0.6-0.1-0.8-0.4c-0.4-0.4-0.3-1,0.1-1.4c4-3.3,7.8-6.8,11.5-10.1c0.4-0.4,1-0.3,1.4,0.1
			s0.3,1-0.1,1.4c-3.7,3.4-7.6,6.8-11.6,10.2C74.1,56.4,73.9,56.4,73.7,56.4L73.7,56.4z"/>
		<path class="st2" d="M28.2,36.6c-0.2,0-0.4,0-0.5-0.1c-5.5-3.3-11-6.8-16.5-10.4c-0.5-0.3-0.6-0.9-0.3-1.4
			c0.3-0.5,0.9-0.6,1.4-0.3c5.4,3.6,10.9,7,16.4,10.3c0.5,0.3,0.6,0.9,0.3,1.4C28.8,36.4,28.5,36.6,28.2,36.6z"/>
		<path class="st2" d="M14.2,36.5c-0.3,0-0.6-0.1-0.8-0.4c-0.4-0.4-0.3-1,0.1-1.4c4-3.3,7.8-6.8,11.5-10.1c0.4-0.4,1-0.4,1.4,0.1
			c0.4,0.4,0.4,1-0.1,1.4c-3.7,3.4-7.6,6.8-11.6,10.2C14.6,36.4,14.4,36.5,14.2,36.5L14.2,36.5z"/>
		<path class="st2" d="M73.6,31h-18c-0.5,0-1-0.5-1-1s0.5-1,1-1h18c0.6,0,1,0.5,1,1S74.1,31,73.6,31z M45.6,31h-18c-0.5,0-1-0.5-1-1
			s0.5-1,1-1h18c0.5,0,1,0.5,1,1S46.1,31,45.6,31z"/>
		<path class="st2" d="M72.6,51.7h-0.8c-0.6,0-1-0.5-1-1s0.4-1,1-1h0.8c0.6,0,1,0.5,1,1S73.2,51.7,72.6,51.7z M61.8,51.7h-18
			c-0.5,0-1-0.5-1-1s0.5-1,1-1h18c0.5,0,1,0.5,1,1S62.4,51.7,61.8,51.7z M33.8,51.7h-18c-0.6,0-1-0.5-1-1s0.4-1,1-1h18
			c0.5,0,1,0.5,1,1S34.4,51.7,33.8,51.7z"/>
	</g>
</g>
</svg>
