<?xml version="1.0" encoding="utf-8"?>
<!-- Generator: Adobe Illustrator 27.6.1, SVG Export Plug-In . SVG Version: 6.00 Build 0)  -->
<svg version="1.1" id="Layer_2_00000163767535667360304000000012211746624556872338_"
	 xmlns="http://www.w3.org/2000/svg" xmlns:xlink="http://www.w3.org/1999/xlink" x="0px" y="0px" viewBox="0 0 96.4 79.7"
	 style="enable-background:new 0 0 96.4 79.7;" xml:space="preserve">
<style type="text/css">
	.st0{fill:#FFFFFF;}
	.st1{fill:#EFAE22;}
	.st2{fill:#010101;}
	.st3{fill:#005051;}
</style>
<g id="Layer_1-2_00000003822411596898406250000007670161101518710461_">
	<g id="Layer_1-2">
		<path class="st0" d="M83.4,20.5l-2.7-4.4C9.7,8.8,7,6.2,1,6.2v72.5h95.4L83.4,20.5L83.4,20.5z"/>
		<path class="st1" d="M80.2,6.2H1l3.2,14.3h79.2L80.2,6.2C80.2,6.2,80.2,6.2,80.2,6.2z"/>
		<path class="st2" d="M70.9,79.7c-0.5,0-0.9-0.3-1-0.8L56.8,20.7c-0.1-0.5,0.2-1.1,0.8-1.2c0.5-0.1,1.1,0.2,1.2,0.8l13.1,58.3
			c0.1,0.5-0.2,1.1-0.8,1.2C71,79.7,70.9,79.7,70.9,79.7z"/>
		<path class="st2" d="M42.8,79.7c-0.5,0-0.9-0.3-1-0.8L28.8,20.7c-0.1-0.5,0.2-1.1,0.8-1.2s1.1,0.2,1.2,0.8l13.1,58.3
			c0.1,0.5-0.2,1.1-0.8,1.2C43,79.7,42.9,79.7,42.8,79.7z"/>
		<path class="st2" d="M92,60.1H12.9c-0.6,0-1-0.5-1-1s0.4-1,1-1H92c0.6,0,1,0.5,1,1S92.6,60.1,92,60.1z"/>
		<path class="st2" d="M87.8,41.1h-79c-0.6,0-1-0.5-1-1s0.4-1,1-1h79c0.6,0,1,0.5,1,1S88.3,41.1,87.8,41.1L87.8,41.1z"/>
		<path class="st2" d="M12.1,16.6c-1.3,0-2.5-0.3-3.7-0.9c-0.5-0.2-0.7-0.9-0.4-1.3c0.2-0.5,0.8-0.7,1.3-0.4
			c1.1,0.6,2.4,0.8,3.7,0.6c1.2-0.2,2.4-0.8,3.4-1.7c0.9-0.9,1.6-2,1.8-3.3c0.3-1.3,0.1-2.6-0.4-3.8c-0.5-1.2-1.4-2.2-2.5-2.9
			C14.3,2.3,13,2,11.7,2c-1.3,0.1-2.5,0.5-3.5,1.4c-1,0.8-1.8,1.9-2.1,3.2C5.9,7.1,5.4,7.4,4.9,7.2S4,6.5,4.2,6
			C4.7,4.3,5.6,2.9,7,1.8c1.3-1.1,3-1.7,4.6-1.8c1.7-0.1,3.4,0.3,4.8,1.2C17.9,2.1,19,3.5,19.7,5c0.7,1.6,0.8,3.3,0.5,5
			c-0.3,1.7-1.2,3.2-2.4,4.4c-1.2,1.2-2.8,1.9-4.4,2.2C12.9,16.6,12.5,16.6,12.1,16.6L12.1,16.6z"/>
		<path class="st2" d="M40.3,16.6c-1.3,0-2.5-0.3-3.7-0.9c-0.5-0.2-0.7-0.9-0.4-1.3s0.8-0.7,1.3-0.4c1.1,0.6,2.4,0.8,3.7,0.6
			c1.2-0.2,2.5-0.8,3.4-1.7c0.9-0.9,1.6-2,1.8-3.3C46.7,8.3,46.5,7,46,5.8c-0.5-1.2-1.4-2.2-2.5-2.9c-1.1-0.7-2.4-1-3.6-0.9
			c-1.3,0.1-2.5,0.5-3.5,1.4c-1,0.8-1.8,1.9-2.1,3.1c-0.2,0.5-0.7,0.8-1.2,0.7c-0.5-0.2-0.8-0.7-0.7-1.2c0.5-1.6,1.5-3.1,2.8-4.1
			c1.3-1.1,3-1.7,4.6-1.8c1.7-0.1,3.4,0.3,4.8,1.2c1.5,0.9,2.6,2.2,3.2,3.8c0.7,1.6,0.8,3.3,0.5,5c-0.3,1.7-1.2,3.2-2.4,4.4
			c-1.2,1.2-2.8,1.9-4.5,2.2C41.1,16.6,40.7,16.7,40.3,16.6L40.3,16.6z"/>
		<path class="st2" d="M68.5,16.6c-1.3,0-2.5-0.3-3.7-0.9c-0.5-0.2-0.7-0.9-0.4-1.3s0.8-0.7,1.3-0.4c1.1,0.6,2.4,0.8,3.7,0.6
			c1.2-0.2,2.4-0.8,3.4-1.7c0.9-0.9,1.6-2,1.8-3.3c0.3-1.2,0.1-2.6-0.4-3.8c-0.5-1.2-1.4-2.2-2.5-2.9c-1.1-0.7-2.4-1-3.6-0.9
			c-1.3,0.1-2.5,0.5-3.5,1.4c-1,0.8-1.8,1.9-2.1,3.2c-0.2,0.5-0.7,0.8-1.2,0.7C60.7,7,60.4,6.5,60.6,6c0.5-1.6,1.5-3.1,2.8-4.1
			c1.3-1,3-1.7,4.6-1.8c1.7-0.1,3.4,0.3,4.8,1.2c1.5,0.9,2.6,2.2,3.2,3.8c0.7,1.6,0.8,3.3,0.5,5c-0.3,1.7-1.2,3.2-2.4,4.4
			c-1.2,1.1-2.8,1.9-4.4,2.2C69.3,16.6,68.9,16.7,68.5,16.6L68.5,16.6z"/>
		<path class="st2" d="M54.4,16.6c-1.3,0-2.5-0.3-3.7-0.9c-0.5-0.2-0.7-0.9-0.4-1.3s0.8-0.7,1.3-0.4c1.1,0.6,2.4,0.8,3.7,0.6
			c1.3-0.2,2.4-0.8,3.4-1.7s1.6-2,1.8-3.3c0.3-1.2,0.1-2.6-0.4-3.8c-0.5-1.2-1.4-2.2-2.5-2.9C56.6,2.3,55.3,2,54,2s-2.5,0.5-3.5,1.4
			c-1,0.8-1.8,1.9-2.1,3.2c-0.2,0.5-0.7,0.8-1.2,0.7C46.6,7,46.3,6.5,46.5,6c0.5-1.6,1.5-3.1,2.8-4.1c1.3-1.1,3-1.7,4.6-1.8
			c1.7-0.1,3.4,0.3,4.8,1.2C60.2,2.2,61.3,3.5,62,5c0.7,1.6,0.8,3.3,0.5,5c-0.3,1.7-1.2,3.2-2.4,4.4c-1.2,1.2-2.8,1.9-4.5,2.2
			C55.2,16.6,54.8,16.7,54.4,16.6L54.4,16.6z"/>
		<path class="st2" d="M26.2,16.6c-1.3,0-2.5-0.3-3.7-0.9c-0.5-0.2-0.7-0.9-0.4-1.3s0.9-0.7,1.3-0.4c1.1,0.6,2.4,0.8,3.7,0.6
			c1.3-0.2,2.4-0.8,3.4-1.7c0.9-0.9,1.6-2,1.8-3.3c0.3-1.2,0.1-2.6-0.4-3.8c-0.5-1.2-1.4-2.2-2.5-2.9c-1.1-0.7-2.4-1-3.6-0.9
			c-1.3,0.1-2.5,0.5-3.5,1.4c-1,0.8-1.8,1.9-2.1,3.2C20,7.1,19.5,7.4,19,7.2S18.1,6.5,18.3,6c0.5-1.6,1.5-3.1,2.8-4.1
			C22.4,0.7,24,0.1,25.7,0c1.7-0.1,3.4,0.3,4.8,1.2C32,2.1,33.1,3.5,33.8,5c0.7,1.6,0.8,3.3,0.5,5c-0.3,1.7-1.2,3.2-2.4,4.4
			c-1.2,1.2-2.8,1.9-4.4,2.2C27,16.6,26.6,16.6,26.2,16.6z"/>
		<path class="st2" d="M9.1,79.7c-0.5,0-0.9-0.4-1-0.9L0,6.3c-0.1-0.6,0.3-1,0.9-1.1c0.5-0.1,1,0.3,1.1,0.9l8.1,72.5
			c0.1,0.6-0.3,1-0.9,1.1C9.2,79.7,9.2,79.7,9.1,79.7L9.1,79.7z"/>
		<path class="st2" d="M17.3,79.7c-0.5,0-0.9-0.3-1-0.8L0,6.4c-0.1-0.5,0.2-1.1,0.8-1.2S1.9,5.5,2,6l16.3,72.5
			c0.1,0.5-0.2,1.1-0.8,1.2C17.4,79.7,17.3,79.7,17.3,79.7L17.3,79.7z"/>
		<path class="st3" d="M81.8,30.6H27.2c-0.5,0-1-0.4-1-1s0.5-1,1-1h54.6c0.6,0,1,0.5,1,1S82.4,30.6,81.8,30.6z"/>
		<path class="st3" d="M70.3,51.1H15.7c-0.6,0-1-0.5-1-1s0.4-1,1-1h54.7c0.6,0,1,0.5,1,1S70.9,51.1,70.3,51.1z"/>
	</g>
	<path class="st3" d="M20.6,37.5c-0.5,0-0.9-0.4-1-0.9l-0.2-1.7c-0.1-0.5,0.3-1,0.9-1.1c0.6-0.1,1,0.3,1.1,0.8l0.2,1.7
		c0.1,0.5-0.3,1-0.9,1.1C20.7,37.5,20.7,37.5,20.6,37.5L20.6,37.5z"/>
	<path class="st3" d="M19,25.4c-0.5,0-0.9-0.4-1-0.9l-0.2-1.7c-0.1-0.5,0.3-1,0.9-1.1c0.6-0.1,1,0.3,1.1,0.9l0.2,1.7
		c0.1,0.5-0.3,1-0.9,1.1C19,25.4,19,25.4,19,25.4L19,25.4z"/>
	<path class="st3" d="M20.4,35.8c-1.9,0-3.7-1.5-4-3.5c-0.1-0.5,0.3-1,0.9-1.1c0.5-0.1,1,0.3,1.1,0.9c0.1,0.9,1,1.7,2,1.7
		c0.4,0,0.7-0.2,1-0.4c0.2-0.3,0.3-0.6,0.3-1c-0.1-0.9-1-1.7-2-1.7c-1.9,0-3.7-1.5-3.9-3.5c-0.1-1,0.1-1.9,0.7-2.6
		c0.6-0.7,1.5-1.1,2.5-1.1c1.9,0,3.7,1.5,4,3.5c0.1,0.5-0.3,1-0.9,1.1c-0.6,0.1-1-0.3-1.1-0.9c-0.1-0.9-1-1.7-2-1.7
		c-0.4,0-0.7,0.1-1,0.4c-0.2,0.3-0.3,0.6-0.3,1c0.1,0.9,1,1.7,2,1.7c1.9,0,3.7,1.5,4,3.5c0.1,1-0.1,1.9-0.8,2.6
		C22.2,35.4,21.4,35.8,20.4,35.8L20.4,35.8z"/>
</g>
</svg>
