<?xml version="1.0" encoding="utf-8"?>
<!-- Generator: Adobe Illustrator 27.6.1, SVG Export Plug-In . SVG Version: 6.00 Build 0)  -->
<svg version="1.1" id="Layer_2_00000122687058451026877340000010240444245644208805_"
	 xmlns="http://www.w3.org/2000/svg" xmlns:xlink="http://www.w3.org/1999/xlink" x="0px" y="0px" viewBox="0 0 136.2 79.1"
	 style="enable-background:new 0 0 136.2 79.1;" xml:space="preserve">
<style type="text/css">
	.st0{fill:#00BBBB;}
	.st1{fill:#FFFFFF;}
	.st2{fill:#F2A932;}
</style>
<g id="Layer_1-2">
	<path class="st0" d="M2.9,0C1.3,0,0,1.3,0,2.9v73.3c0,1.6,1.3,2.9,2.9,2.9h97.7c1.6,0,2.9-1.3,2.9-2.9V2.9c0-1.6-1.3-2.9-2.9-2.9
		H2.9z"/>
	<path d="M68.5,49.1H9.3c-0.6,0-1-0.5-1-1s0.4-1,1-1h59.2c0.6,0,1,0.5,1,1S69,49.1,68.5,49.1z"/>
	<path d="M72.6,58.7H9.3c-0.6,0-1-0.5-1-1s0.4-1,1-1h63.3c0.6,0,1,0.5,1,1S73.1,58.7,72.6,58.7z"/>
	<path d="M76.4,67.6H9.3c-0.6,0-1-0.4-1-1s0.4-1,1-1h67.1c0.6,0,1,0.4,1,1S76.9,67.6,76.4,67.6z"/>
	<path d="M76.8,12.6H9.3c-0.6,0-1-0.4-1-1s0.4-1,1-1h67.5c0.6,0,1,0.4,1,1S77.4,12.6,76.8,12.6z"/>
	<path d="M73.3,22.2h-64c-0.6,0-1-0.5-1-1s0.4-1,1-1h64c0.6,0,1,0.5,1,1S73.9,22.2,73.3,22.2z"/>
	<path class="st1" d="M37.6,40.2H13.6c-3.2,0-5.7-2.6-5.7-5.7l0,0c0-3.2,2.6-5.8,5.7-5.8h24.1c3.2,0,5.7,2.6,5.7,5.8l0,0
		C43.4,37.6,40.8,40.2,37.6,40.2z"/>
	<path d="M69.2,31.1H49c-0.5,0-1-0.5-1-1s0.5-1,1-1h20.2c0.6,0,1,0.5,1,1S69.8,31.1,69.2,31.1z"/>
	<path d="M66.4,39.9H49c-0.5,0-1-0.5-1-1s0.5-1,1-1h17.4c0.6,0,1,0.5,1,1S67,39.9,66.4,39.9z"/>
	<path class="st2" d="M99.7,71.8l-6.7-5.6c-0.8-0.6-1.6-1-2.6-1.1l-8.5-0.9c-2.2-0.2-3.9-1.9-4.3-4l-1.6-9.5c-0.1-0.7-0.4-1.4-0.8-2
		l-4.6-6.5c-1.2-1.7-1.2-3.9-0.1-5.5l5.4-7.9c0.5-0.6,0.7-1.4,0.8-2.2l0.9-8.2c0.2-2.2,2-4,4.3-4.3l8.7-1.1c0.8-0.1,1.5-0.4,2.2-0.8
		l7.4-5.1c1.7-1.2,3.8-1.2,5.5,0l7.4,5.1c0.6,0.5,1.4,0.7,2.2,0.8L124,14c2.2,0.3,4,2,4.3,4.3l0.9,8.2c0.1,0.8,0.4,1.5,0.8,2.2
		l5.4,7.9c1.2,1.7,1.1,3.9-0.1,5.5l-4.6,6.5c-0.4,0.6-0.7,1.3-0.8,2l-1.6,9.5c-0.3,2.2-2.1,3.8-4.3,4l-8.5,0.9
		c-0.9,0.1-1.9,0.5-2.6,1.1l-6.7,5.6C104.2,73.3,101.6,73.3,99.7,71.8L99.7,71.8z"/>
	<path d="M102.8,62.9c-4.2,0-8.4-1.2-12.1-3.5c-5.2-3.2-8.9-8.3-10.3-14.4S80,32.8,83.2,27.6c3.2-5.2,8.3-8.9,14.3-10.4
		c12.4-2.9,24.9,4.8,27.8,17.2c1.4,6,0.4,12.2-2.8,17.5c-3.2,5.2-8.3,8.9-14.3,10.3C106.4,62.6,104.6,62.9,102.8,62.9L102.8,62.9z
		 M102.9,18.6c-1.6,0-3.2,0.2-4.8,0.6c-5.5,1.3-10.1,4.6-13.1,9.5s-3.9,10.5-2.6,16s4.7,10.1,9.4,13.1c4.8,3,10.5,3.9,15.9,2.6l0,0
		c5.5-1.3,10.1-4.7,13.1-9.5s3.9-10.5,2.6-16C121.1,25.2,112.4,18.6,102.9,18.6L102.9,18.6z"/>
	<path d="M102.3,47c-0.3,0-0.5-0.1-0.7-0.3L93,38c-0.4-0.4-0.4-1,0-1.4c0.4-0.4,1-0.4,1.4,0l7.8,7.9l11.3-14.2
		c0.3-0.4,1-0.5,1.4-0.2s0.5,1,0.2,1.4l-12,15.1C102.9,46.9,102.6,47,102.3,47C102.3,47,102.3,47,102.3,47L102.3,47z"/>
</g>
</svg>
