<?xml version="1.0" encoding="utf-8"?>
<!-- Generator: Adobe Illustrator 27.6.1, SVG Export Plug-In . SVG Version: 6.00 Build 0)  -->
<svg version="1.1" id="Layer_2_00000157994856769673059570000014146183558356277915_"
	 xmlns="http://www.w3.org/2000/svg" xmlns:xlink="http://www.w3.org/1999/xlink" x="0px" y="0px" viewBox="0 0 84.5 70.3"
	 style="enable-background:new 0 0 84.5 70.3;" xml:space="preserve">
<style type="text/css">
	.st0{fill:#F1B11F;}
</style>
<g id="Layer_1-2">
	<path class="st0" d="M14,70.3H3.8c-0.7,0-1.3-0.3-1.7-0.7c-0.5-0.4-0.7-1.1-0.7-1.7V31.1c0-0.6,0.2-1.3,0.7-1.7s1.1-0.7,1.7-0.7H14
		c0.6,0,1.3,0.3,1.7,0.7s0.7,1.1,0.7,1.7v36.8c0,0.6-0.2,1.3-0.7,1.7S14.7,70.3,14,70.3"/>
	<path class="st0" d="M36.4,70.3H26.2c-0.6,0-1.3-0.3-1.7-0.7c-0.5-0.4-0.7-1.1-0.7-1.7V21.7c0-0.6,0.3-1.3,0.7-1.7
		c0.5-0.5,1.1-0.7,1.7-0.7h10.2c0.6,0,1.3,0.2,1.7,0.7c0.5,0.5,0.7,1.1,0.7,1.7v46.2c0,0.6-0.3,1.3-0.7,1.7S37.1,70.3,36.4,70.3"/>
	<path class="st0" d="M81.2,70.3H71c-0.7,0-1.3-0.3-1.7-0.7c-0.4-0.4-0.7-1.1-0.7-1.7V2.4c0-0.6,0.2-1.3,0.7-1.7
		C69.7,0.3,70.3,0,71,0h10.2c0.7,0,1.3,0.3,1.7,0.7c0.4,0.5,0.7,1.1,0.7,1.7v65.5c0,0.6-0.2,1.3-0.7,1.7S81.8,70.3,81.2,70.3"/>
	<path class="st0" d="M58.8,70.3H48.6c-0.7,0-1.3-0.3-1.7-0.7c-0.5-0.4-0.7-1.1-0.7-1.7v-56c0-0.6,0.2-1.3,0.7-1.7
		c0.5-0.5,1.1-0.7,1.7-0.7h10.2c0.7,0,1.3,0.3,1.7,0.7c0.5,0.4,0.7,1.1,0.7,1.7v56c0,0.6-0.3,1.3-0.7,1.7
		C60.1,70.1,59.4,70.3,58.8,70.3"/>
	<path d="M1,66.1c-0.4,0-0.7-0.2-0.9-0.5c-0.3-0.5-0.1-1.1,0.4-1.4l81.4-47c0.5-0.3,1.1-0.1,1.4,0.4c0.3,0.5,0.1,1.1-0.4,1.4
		l-81.4,47C1.3,66,1.2,66.1,1,66.1z"/>
	<path d="M83.4,18.4c0,0-0.1,0-0.1,0l-15.7-1.7c-0.6-0.1-0.9-0.5-0.9-1.1c0.1-0.6,0.5-0.9,1.1-0.9l15.7,1.7c0.6,0.1,0.9,0.5,0.9,1.1
		C84.3,18,83.9,18.4,83.4,18.4z"/>
	<path d="M78,32.6c-0.1,0-0.2,0-0.4-0.1c-0.5-0.2-0.8-0.8-0.6-1.3l5.6-14.1c0.2-0.5,0.8-0.8,1.3-0.6c0.5,0.2,0.8,0.8,0.6,1.3
		l-5.6,14.1C78.8,32.3,78.4,32.6,78,32.6z"/>
</g>
</svg>
