<?xml version="1.0" encoding="utf-8"?>
<!-- Generator: Adobe Illustrator 27.6.1, SVG Export Plug-In . SVG Version: 6.00 Build 0)  -->
<svg version="1.1" id="Layer_2_00000134962878035027115710000014377046627752303749_"
	 xmlns="http://www.w3.org/2000/svg" xmlns:xlink="http://www.w3.org/1999/xlink" x="0px" y="0px" viewBox="0 0 101.7 68.4"
	 style="enable-background:new 0 0 101.7 68.4;" xml:space="preserve">
<style type="text/css">
	.st0{fill:#334C72;}
	.st1{fill:#00BBBB;}
</style>
<g id="Layer_1-2">
	<path class="st0" d="M21.1,42.1h1.3v26.3l26.3-26.3h32.1c11.6,0,21.1-9.4,21.1-21.1S92.4,0,80.7,0H21.1C9.5,0,0,9.4,0,21.1
		S9.5,42.1,21.1,42.1L21.1,42.1z"/>
	<path class="st1" d="M84.9,15.3C76.3,8.8,66.7,18.4,73.2,27C81.8,33.6,91.5,23.9,84.9,15.3z"/>
	<path d="M79,30.2c-2.1,0-4.3-0.7-6.5-2.4l-0.2-0.2c-3.7-4.9-2.5-10,0.3-12.8s7.9-4,12.8-0.3l0.2,0.2c3.8,4.9,2.6,10-0.3,12.9
		C83.9,29.1,81.6,30.2,79,30.2z M73.9,26.3c3.9,2.9,7.9,2,10.1-0.2s3.1-6.2,0.2-10.1c-3.9-2.9-7.9-2-10.1,0.2S71,22.4,73.9,26.3z"/>
	<path class="st1" d="M46.3,14.5c-3.6,2.5-4.5,7.5-2,11.2c2.5,3.6,7.5,4.5,11.1,2c3.6-2.5,4.5-7.5,2-11.1S49.9,12,46.3,14.5z"/>
	<path d="M50.8,30.1c-2.9,0-5.7-1.4-7.4-3.9c-2.8-4.1-1.8-9.7,2.3-12.6l0,0c4.1-2.8,9.7-1.8,12.5,2.3c1.4,2,1.9,4.4,1.5,6.7
		s-1.8,4.4-3.7,5.8C54.4,29.6,52.6,30.1,50.8,30.1L50.8,30.1z M46.8,15.3L46.8,15.3c-3.2,2.2-4,6.6-1.8,9.8c2.2,3.2,6.6,4,9.8,1.8
		c1.5-1.1,2.6-2.7,2.9-4.5c0.3-1.8-0.1-3.7-1.1-5.2C54.4,13.9,50,13.1,46.8,15.3z"/>
	<path class="st1" d="M28.5,15.3C19.9,8.7,10.2,18.4,16.7,27l0,0C25.3,33.6,35,23.9,28.5,15.3C28.5,15.3,28.5,15.3,28.5,15.3z"/>
	<path d="M22.6,30.2c-2,0-4.3-0.7-6.5-2.4l-0.2-0.2c-3.8-4.9-2.6-10,0.3-12.9s7.9-4,12.9-0.3l0.2,0.2c3.8,4.9,2.6,10-0.3,12.9
		C27.4,29.1,25.1,30.2,22.6,30.2z M17.4,26.3c3.9,2.9,7.9,2,10.1-0.2c2.2-2.2,3.1-6.2,0.2-10.1c-3.9-2.9-7.9-2-10.1,0.2
		C15.4,18.4,14.5,22.4,17.4,26.3L17.4,26.3z"/>
</g>
</svg>
