<?xml version="1.0" encoding="utf-8"?>
<!-- Generator: Adobe Illustrator 27.6.1, SVG Export Plug-In . SVG Version: 6.00 Build 0)  -->
<svg version="1.1" id="Layer_2_00000092449889428616828010000013723866912515354271_"
	 xmlns="http://www.w3.org/2000/svg" xmlns:xlink="http://www.w3.org/1999/xlink" x="0px" y="0px" viewBox="0 0 81.1 81.1"
	 style="enable-background:new 0 0 81.1 81.1;" xml:space="preserve">
<style type="text/css">
	.st0{fill:#E8A723;}
	.st1{fill:#00BAB9;}
</style>
<g id="Layer_1-2">
	<path class="st0" d="M40.5,81.1c22.4,0,40.5-18.2,40.5-40.5S63,0,40.5,0S0,18.2,0,40.5S18.2,81.1,40.5,81.1z"/>
	<path class="st1" d="M41.3,81.1c22-0.4,39.8-18.4,39.8-40.5H41.3V81.1z"/>
	<path d="M58.7,59.8c-0.3,0-0.5-0.1-0.7-0.3l-5.6-5.6c-0.4-0.4-0.4-1,0-1.4s1-0.4,1.4,0l5.6,5.6c0.4,0.4,0.4,1,0,1.4
		C59.2,59.7,59,59.8,58.7,59.8L58.7,59.8z"/>
	<path d="M28,29c-0.3,0-0.5-0.1-0.7-0.3l-5.6-5.6c-0.4-0.4-0.4-1,0-1.4s1-0.4,1.4,0l5.6,5.6c0.4,0.4,0.4,1,0,1.4
		C28.5,28.9,28.2,29,28,29L28,29z"/>
	<path d="M53.1,29c-0.3,0-0.5-0.1-0.7-0.3c-0.4-0.4-0.4-1,0-1.4l5.6-5.6c0.4-0.4,1-0.4,1.4,0s0.4,1,0,1.4l-5.6,5.6
		C53.6,28.9,53.3,29,53.1,29L53.1,29z"/>
	<path d="M22.3,59.8c-0.3,0-0.5-0.1-0.7-0.3c-0.4-0.4-0.4-1,0-1.4l5.6-5.6c0.4-0.4,1-0.4,1.4,0s0.4,1,0,1.4L23,59.5
		C22.8,59.7,22.6,59.8,22.3,59.8L22.3,59.8z"/>
	<path d="M21.7,41.5h-7.9c-0.6,0-1-0.5-1-1s0.4-1,1-1h7.9c0.5,0,1,0.5,1,1S22.2,41.5,21.7,41.5z"/>
	<path d="M40.5,73.1C22.6,73.1,8,58.5,8,40.5S22.6,8,40.5,8s32.6,14.6,32.6,32.6S58.5,73.1,40.5,73.1z M40.5,10
		C23.7,10,10,23.7,10,40.6s13.7,30.6,30.6,30.6s30.6-13.7,30.6-30.6S57.4,10,40.5,10z"/>
	<path d="M51.6,41.5H40.5c-0.5,0-1-0.5-1-1V16.9c0-0.5,0.5-1,1-1s1,0.5,1,1v22.6h10.1c0.5,0,1,0.5,1,1S52.2,41.5,51.6,41.5z"/>
	<path d="M40.5,66.6c-0.5,0-1-0.4-1-1v-7.9c0-0.5,0.5-1,1-1s1,0.5,1,1v7.9C41.5,66.1,41.1,66.6,40.5,66.6z"/>
	<path d="M66.9,41.5h-8c-0.5,0-1-0.5-1-1s0.5-1,1-1h8c0.6,0,1,0.5,1,1S67.4,41.5,66.9,41.5z"/>
</g>
</svg>
