<?xml version="1.0" encoding="utf-8"?>
<!-- Generator: Adobe Illustrator 27.6.1, SVG Export Plug-In . SVG Version: 6.00 Build 0)  -->
<svg version="1.1" id="Layer_2_00000042711844571057805890000001272821783608273062_"
	 xmlns="http://www.w3.org/2000/svg" xmlns:xlink="http://www.w3.org/1999/xlink" x="0px" y="0px" viewBox="0 0 95.6 87.9"
	 style="enable-background:new 0 0 95.6 87.9;" xml:space="preserve">
<style type="text/css">
	.st0{fill:#9AD7D8;}
	.st1{fill:#00837E;}
	.st2{opacity:0.2;enable-background:new    ;}
	.st3{fill:#00948F;}
	.st4{opacity:0.5;fill:#231F20;enable-background:new    ;}
</style>
<g id="Layer_1-2">
	<rect x="5.7" y="5.2" class="st0" width="85.1" height="53.2"/>
	<path class="st1" d="M27.3,87.9c-1,0-1.9-0.8-1.9-1.9s0.8-1.9,1.9-1.9H35V65.8c0-3,2.5-5.5,5.5-5.5h14.8c3,0,5.5,2.5,5.5,5.5v16.7
		c0,3-2.5,5.4-5.5,5.4C55.2,87.9,27.3,87.9,27.3,87.9z"/>
	<path class="st1" d="M60.7,65.8v16.7c0,0.6-0.1,1.1-0.2,1.6H35V65.8c0-3,2.5-5.5,5.5-5.5h14.8C58.2,60.3,60.7,62.8,60.7,65.8z"/>
	<path class="st2" d="M55.2,60.4H40.4c-3,0-5.5,2.5-5.5,5.5v9.2l25.7,6.6V65.8C60.6,62.8,58.2,60.4,55.2,60.4L55.2,60.4z"/>
	<path class="st3" d="M9.2,72.1C4.1,72.1,0,68,0,62.9V9.2C0,4.1,4.1,0,9.2,0h77.3c5.1,0,9.2,4.1,9.2,9.2v53.8c0,5.1-4.1,9.2-9.2,9.2
		L9.2,72.1L9.2,72.1z M13.1,8.2c-2.7,0-4.9,2.2-4.9,4.9v42.7h79.2V13c0-2.7-2.2-4.9-4.9-4.9L13.1,8.2L13.1,8.2z"/>
	<path class="st4" d="M47.8,67.3c-1.9,0-3.4-1.5-3.4-3.4s1.5-3.4,3.4-3.4s3.4,1.5,3.4,3.4S49.7,67.3,47.8,67.3z"/>
	<path d="M47.8,5.7c-0.9,0-1.6-0.7-1.6-1.6s0.7-1.6,1.6-1.6s1.6,0.7,1.6,1.6S48.7,5.7,47.8,5.7z"/>
	<path d="M60.7,73.6H34.9c-0.5,0-1-0.4-1-1s0.5-1,1-1h25.7c0.5,0,1,0.4,1,1S61.2,73.6,60.7,73.6z"/>
	<path d="M27.3,87.8c-0.5,0-1-0.4-1-1s0.5-1,1-1l26.5,0c0.2,0,3.9,0,4.2-2.8c0.1-0.6,0.6-0.9,1.1-0.9s0.9,0.6,0.9,1.1
		c-0.5,3.7-4.3,4.6-6.2,4.6L27.3,87.8L27.3,87.8L27.3,87.8z"/>
</g>
</svg>
