<?xml version="1.0" encoding="utf-8"?>
<!-- Generator: Adobe Illustrator 27.6.1, SVG Export Plug-In . SVG Version: 6.00 Build 0)  -->
<svg version="1.1" id="Layer_2_00000015330780917464377340000000020587732515222952_"
	 xmlns="http://www.w3.org/2000/svg" xmlns:xlink="http://www.w3.org/1999/xlink" x="0px" y="0px" viewBox="0 0 147.4 109.7"
	 style="enable-background:new 0 0 147.4 109.7;" xml:space="preserve">
<style type="text/css">
	.st0{fill:#00BAB9;}
	.st1{fill:#008283;}
	.st2{fill:#EF4D35;}
	.st3{fill:#F0B01E;}
	.st4{fill:#FFFFFF;}
</style>
<g id="Layer_1-2">
	<path class="st0" d="M5.6,0h114.7c2.6,0,4.8,1.9,5.3,4.4l0.3,63.7l20.8,37.3c1.5,1.6,0.4,4.3-1.8,4.3H30.4c-3.6,0-7-1.4-9.5-4
		L2,71.1c-1-1-1.7-2.4-2-3.8L0.2,6.4C-0.4,3.1,2.1,0,5.6,0z"/>
	<path class="st1" d="M6.7,58.7l0.1-43.8c-0.4-2.4,14.1-2.5,16.5-2.5l89.9-0.5c1.9,0,5.2,1.7,5.5,3.5l-0.1,42
		c0.4,2.4-1.4,4.5-3.8,4.5H10.5C8.6,61.8,7,60.5,6.7,58.7L6.7,58.7z"/>
	<path d="M124.9,69.2H1.4c-0.6,0-1-0.4-1-1s0.4-1,1-1h123.5c0.6,0,1,0.4,1,1S125.5,69.2,124.9,69.2z"/>
	<path class="st1" d="M104.2,109.4l-3.9-7c-1.3-1.3-3.1-2.1-5-2.1H61.6c-1.6,0-2.4,1.9-1.3,3l3.5,6.2"/>
	<path d="M131.2,95.3L131.2,95.3L25.5,95.1c-0.4,0-0.7-0.2-0.9-0.5L13.5,76.4c-0.2-0.3-0.2-0.7,0-1c0.2-0.3,0.5-0.5,0.9-0.5l0,0
		L120.1,75c0.3,0,0.7,0.2,0.8,0.5l11.1,18.3c0.2,0.3,0.2,0.7,0,1C131.9,95.1,131.6,95.3,131.2,95.3L131.2,95.3z M26,93.1l103.4,0.1
		L119.6,77L16.1,76.9L26,93.1L26,93.1z"/>
	<path class="st2" d="M110.2,31.5l-93.1,0.1c-1.8,0-3.3-1.5-3.3-3.3s1.5-3.3,3.3-3.3l93.1-0.1c1.8,0,3.3,1.5,3.3,3.3
		S112.1,31.5,110.2,31.5z"/>
	<path class="st0" d="M57.4,42.1H17c-1.8,0-3.3-1.5-3.3-3.3s1.5-3.3,3.3-3.3h40.4c1.8,0,3.3,1.5,3.3,3.3S59.2,42.1,57.4,42.1z"/>
	<path class="st3" d="M70.1,52.5H34.2c-2,0-3.7-1.4-3.7-3.2s1.7-3.2,3.7-3.2h35.9c2,0,3.7,1.4,3.7,3.2S72.2,52.5,70.1,52.5z"/>
	<path class="st4" d="M23.9,52.5h-5.6c-2,0-3.7-1.4-3.7-3.2s1.6-3.2,3.7-3.2h5.6c2,0,3.7,1.4,3.7,3.2S25.9,52.5,23.9,52.5z"/>
	<path class="st4" d="M108.9,42.1H68c-1.8,0-3.3-1.5-3.3-3.3s1.5-3.3,3.3-3.3h40.9c1.8,0,3.3,1.5,3.3,3.3S110.7,42.1,108.9,42.1z"/>
	<path class="st0" d="M108.4,52.5H81.8c-2,0-3.7-1.4-3.7-3.2s1.7-3.2,3.7-3.2h26.6c2,0,3.7,1.4,3.7,3.2S110.5,52.5,108.4,52.5z"/>
	<path class="st4" d="M118.6,9.3c-0.3-1.8-2-3.1-3.9-3.1L11.4,6.5c-2.4,0-4.8,2.2-4.8,4.7l0.1,5L118.6,16L118.6,9.3L118.6,9.3z"/>
	<path class="st0" d="M30.6,9.8c-1.2,0-2.1,0.9-2.1,2.1s0.9,2.1,2.1,2.1l0,0c1.2,0,2.1-0.9,2.1-2.1S31.8,9.8,30.6,9.8L30.6,9.8z"/>
	<path class="st0" d="M23.2,9.8c-1.2,0-2.1,0.9-2.1,2.1S22,14,23.2,14l0,0c1.2,0,2.1-0.9,2.1-2.1S24.4,9.8,23.2,9.8L23.2,9.8z"/>
	<path d="M15.8,9.8c-1.2,0-2.1,0.9-2.1,2.1s0.9,2.1,2.1,2.1l0,0c1.2,0,2.1-0.9,2.1-2.1S16.9,9.8,15.8,9.8L15.8,9.8z"/>
</g>
</svg>
