<?xml version="1.0" encoding="UTF-8"?><svg id="Layer_2" xmlns="http://www.w3.org/2000/svg" viewBox="0 0 83.61 107.51"><defs><style>.cls-1{fill:#008383;}.cls-1,.cls-2,.cls-3,.cls-4{fill-rule:evenodd;}.cls-1,.cls-2,.cls-3,.cls-4,.cls-5,.cls-6,.cls-7,.cls-8{stroke-width:0px;}.cls-2,.cls-8{fill:#004f50;}.cls-3,.cls-7{fill:#0bb;}.cls-4{fill:#ef4c35;}.cls-5{fill:#f3b120;}.cls-6{fill:#231f20;}</style></defs><g id="Layer_1-2"><path class="cls-7" d="M57.29,58.63L5.21,106.67c-1.24,1.19-3.21,1.1-4.4-.14-.69-.78-.96-1.83-.73-2.8H.08L15.71,34.43c.41-1.7,2.06-2.75,3.76-2.38.27.09.6.18.87.37h0l36.54,21.09c1.51.87,2.02,2.75,1.15,4.26-.18.32-.46.64-.73.87h0Z"/><path class="cls-8" d="M48.26,66.93l-7.52,6.97c-10.45-8.07-19.71-17.1-27.83-26.95l2.8-12.42c9.76,11.83,20.63,22.64,32.55,32.41h0ZM33.36,80.68l-7.61,7.06c-6.51-5.41-12.56-11.23-18.15-17.37l2.8-12.42c7.15,8.11,14.81,15.68,22.97,22.74h0ZM18.6,94.34l-7.7,7.11c-2.93-2.61-5.78-5.32-8.48-8.11l2.75-12.19c4.31,4.58,8.76,8.98,13.43,13.2h0Z"/><path class="cls-8" d="M17.55,52.35c-1.6-1.79-3.16-3.58-4.63-5.41l2.8-12.42c1.65,1.97,3.3,3.94,5.04,5.87-1.15,4.13-2.2,8.11-3.21,11.96h0ZM14.98,62.98c-1.05,4.95-1.79,9.35-2.02,13.02-1.83-1.83-3.62-3.71-5.36-5.64l2.8-12.42c1.51,1.7,3.03,3.39,4.58,5.04h0ZM24.19,86.41c1.83-.64,3.9-1.65,6.23-3.03l-4.68,4.35c-.55-.41-1.05-.87-1.56-1.33h0ZM18.6,94.34l-7.7,7.11c-2.93-2.61-5.78-5.32-8.48-8.11l2.75-12.19c4.31,4.58,8.76,8.98,13.43,13.2h0Z"/><path class="cls-1" d="M53.99,54.73c.96.55,1.33,1.79.78,2.75-.6.96-1.79,1.28-2.75.73-.96-.55-1.33-1.79-.73-2.75.55-.96,1.79-1.28,2.7-.73h0Z"/><path class="cls-1" d="M49.36,57.99c1.28.78,1.74,2.43,1.01,3.71-.73,1.28-2.43,1.74-3.71,1.01-1.28-.78-1.74-2.43-1.01-3.71.78-1.28,2.43-1.74,3.71-1.01h0Z"/><path class="cls-5" d="M50.05,1.24l2.61,5.5,6.01.73c.37.05.64.41.6.78,0,.18-.09.32-.23.46l-4.4,4.13,1.15,5.96c.05.37-.18.73-.55.78-.18.05-.32,0-.46-.05h0l-5.32-2.93-5.32,2.93c-.37.18-.78.05-.96-.28-.09-.14-.09-.32-.05-.46l1.15-5.96-4.45-4.17c-.28-.28-.28-.69-.05-.96.14-.14.28-.18.41-.23h0l6.05-.73,2.57-5.5c.18-.37.6-.5.92-.37.14.09.28.23.32.37h0Z"/><path class="cls-5" d="M74.66,23.06l2.52,5.36,5.87.73c.37.05.6.37.55.73,0,.18-.09.32-.23.46l-4.26,3.99,1.1,5.82c.09.37-.18.73-.55.78-.14.05-.32,0-.41-.05h0l-5.18-2.84-5.18,2.84c-.32.18-.73.05-.92-.28-.09-.14-.09-.32-.09-.46l1.1-5.82-4.31-4.03c-.28-.23-.28-.69,0-.92.09-.14.23-.23.41-.23h0l5.87-.73,2.48-5.36c.18-.32.55-.46.92-.32.14.09.23.18.32.32h0Z"/><path class="cls-5" d="M73.66,4.72l2.7,3.53,4.45-.41c.28,0,.55.18.55.46.05.14,0,.28-.09.37l-2.52,3.67,1.79,4.13c.09.23,0,.55-.27.64-.14.05-.23.09-.37.05h0l-4.26-1.28-3.39,2.93c-.18.18-.5.18-.69-.05-.09-.09-.14-.18-.14-.32l-.14-4.45-3.85-2.29c-.23-.14-.32-.46-.14-.69.05-.14.14-.18.23-.23h0l4.22-1.51,1.01-4.35c.05-.27.32-.46.6-.37.14,0,.23.09.32.18h0Z"/><path class="cls-6" d="M31.84,32.68c-.06,0-.12,0-.19-.02-.54-.1-.9-.63-.79-1.17,1.83-9.58,8-15.01,8.26-15.24.42-.36,1.05-.32,1.41.1.36.42.32,1.05-.1,1.41-.06.05-5.91,5.23-7.6,14.1-.09.48-.51.81-.98.81Z"/><path class="cls-2" d="M25.5,26.46c1.15,0,2.06.92,2.06,2.06s-.92,2.06-2.06,2.06-2.06-.92-2.06-2.06.92-2.06,2.06-2.06h0Z"/><path class="cls-4" d="M42.62,25.95c1.28,0,2.38,1.1,2.38,2.43s-1.1,2.38-2.38,2.38-2.43-1.1-2.43-2.38,1.1-2.43,2.43-2.43h0Z"/><path class="cls-1" d="M61.69,11.14c.92,0,1.6.73,1.6,1.6,0,.92-.69,1.6-1.6,1.6s-1.6-.69-1.6-1.6.73-1.6,1.6-1.6h0Z"/><path class="cls-4" d="M79.94,21.32c1.28,0,2.29,1.05,2.29,2.29s-1.01,2.29-2.29,2.29-2.29-1.01-2.29-2.29,1.05-2.29,2.29-2.29h0Z"/><path class="cls-4" d="M64.81,0c1.79,0,3.3,1.51,3.3,3.3s-1.51,3.35-3.3,3.35-3.35-1.51-3.35-3.35,1.51-3.3,3.35-3.3h0Z"/><path class="cls-3" d="M56.47,31.86c.87,0,1.56.73,1.56,1.6s-.69,1.56-1.56,1.56-1.6-.69-1.6-1.56.73-1.6,1.6-1.6h0Z"/><path class="cls-6" d="M45.74,39.07c-.15,0-.3-.03-.44-.1-.5-.24-.7-.84-.46-1.34,7.41-15.07,20.09-21.25,20.63-21.51.5-.24,1.09-.03,1.33.47.24.5.03,1.09-.47,1.33-.12.06-12.6,6.17-19.69,20.59-.17.35-.53.56-.9.56Z"/><path class="cls-6" d="M51.41,47.08c-.2,0-.39-.06-.57-.18-.45-.31-.57-.94-.26-1.39,4.8-6.97,12.67-8.92,13.01-9,.54-.12,1.08.2,1.2.74s-.2,1.08-.74,1.21c-.07.02-7.48,1.87-11.83,8.19-.19.28-.51.43-.83.43Z"/></g></svg>