<?xml version="1.0" encoding="UTF-8"?>
<svg id="Layer_2" xmlns="http://www.w3.org/2000/svg" viewBox="0 0 33.31 33.31">
  <defs>
    <style>
      .cls-1 {
        fill: #fff;
      }

      .cls-2 {
        fill: #004f51;
      }

      .cls-3 {
        fill: #008283;
      }
    </style>
  </defs>
  <g id="Layer_1-2" data-name="Layer_1">
    <g>
      <circle class="cls-2" cx="16.65" cy="16.65" r="15.65"/>
      <path class="cls-3" d="M32.31,16.65c0,8.64-7.01,15.65-15.65,15.65-5.22,0-9.83-2.54-12.66-6.47,2.57,1.88,5.76,2.99,9.18,2.99,8.64,0,15.65-7.01,15.65-15.65,0-3.43-1.11-6.61-2.99-9.18,3.93,2.83,6.47,7.44,6.47,12.66Z"/>
      <polygon class="cls-1" points="16.2 26.12 13.63 24.58 17.48 18.15 10.52 18.15 17.11 7.19 19.68 8.73 15.82 15.15 22.78 15.15 16.2 26.12"/>
      <path d="M16.65,33.31C7.47,33.31,0,25.83,0,16.65S7.47,0,16.65,0s16.65,7.47,16.65,16.65-7.47,16.65-16.65,16.65ZM16.65,2c-8.08,0-14.65,6.57-14.65,14.65s6.57,14.65,14.65,14.65,14.65-6.57,14.65-14.65S24.73,2,16.65,2Z"/>
    </g>
  </g>
</svg>