<?xml version="1.0" encoding="utf-8"?>
<!-- Generator: Adobe Illustrator 27.6.1, SVG Export Plug-In . SVG Version: 6.00 Build 0)  -->
<svg version="1.1" id="Layer_2_00000037666323826320341780000006415873768961712774_"
	 xmlns="http://www.w3.org/2000/svg" xmlns:xlink="http://www.w3.org/1999/xlink" x="0px" y="0px" viewBox="0 0 75 102.8"
	 style="enable-background:new 0 0 75 102.8;" xml:space="preserve">
<style type="text/css">
	.st0{fill:#F1B11F;}
</style>
<g id="Layer_1-2">
	<path class="st0" d="M5.2,37.8C1.9,39.7,0,43.2,0,46.9v45.4c0,5.8,4.7,10.5,10.5,10.5h29c3.4,0,6.6-1.6,8.7-4.3l25.4-34
		C76,61.1,75.3,56.4,72,54c-3.2-2.3-7.7-1.6-10.1,1.6l-4.7,6.2c-3.9,5.3-12.3,2.5-12.3-4.1V6.9c0-3.7-2.9-6.8-6.6-6.9
		c-3.8-0.1-7,3-7,6.8v21.3c0,0.2-0.3,0.4-0.5,0.3c-3.1-1.8-7.1-0.7-9.2,2.3c-0.7,1-0.9,1.1-2.1,0.7c-3.8-1.3-8.3,1.2-9.4,5
		c-0.1,0.2-0.2,0.3-0.4,0.3C8.2,36.6,6.6,37.1,5.2,37.8L5.2,37.8z"/>
	<path d="M31.2,53.5L31.2,53.5c-0.5,0-1-0.5-1-1l0.1-22.9c0-0.5,0.5-1,1-1l0,0c0.5,0,1,0.5,1,1l-0.1,22.9
		C32.2,53,31.8,53.5,31.2,53.5z"/>
	<path d="M20.6,56.7L20.6,56.7c-0.5,0-1-0.5-1-1l0-23c0-0.5,0.5-1,1-1l0,0c0.5,0,1,0.5,1,1l0,23C21.6,56.2,21.2,56.7,20.6,56.7z"/>
	<path d="M10.1,61.2c-0.6,0-1-0.4-1-1L9,38c0-0.5,0.4-1,1-1l0,0c0.6,0,1,0.4,1,1l0.1,22.2C11.1,60.8,10.6,61.2,10.1,61.2L10.1,61.2z
		"/>
</g>
</svg>
