<?xml version="1.0" encoding="utf-8"?>
<!-- Generator: Adobe Illustrator 27.6.1, SVG Export Plug-In . SVG Version: 6.00 Build 0)  -->
<svg version="1.1" id="Layer_2_00000170966351092884196560000005830816515287937723_"
	 xmlns="http://www.w3.org/2000/svg" xmlns:xlink="http://www.w3.org/1999/xlink" x="0px" y="0px" viewBox="0 0 112.3 124.9"
	 style="enable-background:new 0 0 112.3 124.9;" xml:space="preserve">
<style type="text/css">
	.st0{fill:#7BCDCC;}
	.st1{fill:#B8F9FA;}
	.st2{fill:#F2A932;}
	.st3{fill:#E6E6E7;}
	.st4{fill:#F1B11F;}
</style>
<g id="Layer_1-2">
	<path class="st0" d="M60.1,99.6H13.4c-4.1,0-7.4-3.3-7.4-7.5V37.3c0-4.1,3.3-7.5,7.4-7.5h46.7c4.1,0,7.4,3.3,7.4,7.5v54.8
		C67.6,96.2,64.2,99.6,60.1,99.6z"/>
	<rect x="13.8" y="43.5" class="st1" width="9.4" height="9.4"/>
	<path d="M23.1,53.9h-9.4c-0.6,0-1-0.5-1-1v-9.4c0-0.5,0.4-1,1-1h9.4c0.5,0,1,0.5,1,1v9.4C24.2,53.5,23.7,53.9,23.1,53.9L23.1,53.9z
		 M14.7,51.9h7.4v-7.4h-7.4C14.8,44.5,14.8,51.9,14.7,51.9z"/>
	<rect x="13.8" y="61.1" class="st2" width="9.4" height="9.4"/>
	<path d="M23.1,71.5h-9.4c-0.6,0-1-0.4-1-1v-9.4c0-0.5,0.4-1,1-1h9.4c0.5,0,1,0.5,1,1v9.4C24.2,71.1,23.7,71.5,23.1,71.5L23.1,71.5z
		 M14.7,69.5h7.4v-7.4h-7.4C14.8,62.1,14.8,69.5,14.7,69.5z"/>
	<rect x="13.8" y="78.7" class="st1" width="9.4" height="9.4"/>
	<path d="M23.1,89.1h-9.4c-0.6,0-1-0.4-1-1v-9.4c0-0.6,0.4-1,1-1h9.4c0.5,0,1,0.4,1,1v9.4C24.2,88.7,23.7,89.1,23.1,89.1L23.1,89.1z
		 M14.7,87.1h7.4v-7.4h-7.4C14.8,79.7,14.8,87.1,14.7,87.1z"/>
	<path d="M60.2,46.9H44c-0.5,0-1-0.5-1-1s0.5-1,1-1h16.2c0.5,0,1,0.5,1,1S60.8,46.9,60.2,46.9z"/>
	<path d="M36.5,46.9h-6.3c-0.5,0-1-0.5-1-1s0.5-1,1-1h6.3c0.5,0,1,0.5,1,1S37.1,46.9,36.5,46.9z"/>
	<path d="M60.2,51.5H30.2c-0.5,0-1-0.5-1-1s0.5-1,1-1h30.1c0.5,0,1,0.5,1,1S60.8,51.5,60.2,51.5z"/>
	<path d="M60.2,64.5H30.2c-0.5,0-1-0.5-1-1s0.5-1,1-1h30.1c0.5,0,1,0.5,1,1S60.8,64.5,60.2,64.5z"/>
	<path d="M60.2,69.2h-7c-0.5,0-1-0.4-1-1s0.5-1,1-1h7c0.5,0,1,0.4,1,1S60.8,69.2,60.2,69.2z"/>
	<path d="M45.9,69.2H30.2c-0.5,0-1-0.4-1-1s0.5-1,1-1h15.7c0.5,0,1,0.4,1,1S46.4,69.2,45.9,69.2z"/>
	<path d="M60.2,82.1H30.2c-0.5,0-1-0.4-1-1s0.5-1,1-1h30.1c0.5,0,1,0.4,1,1S60.8,82.1,60.2,82.1z"/>
	<path d="M60.2,86.8H49.3c-0.5,0-1-0.4-1-1s0.5-1,1-1h10.9c0.5,0,1,0.4,1,1S60.8,86.8,60.2,86.8z"/>
	<path d="M40.5,86.8H30.2c-0.5,0-1-0.4-1-1s0.5-1,1-1h10.4c0.5,0,1,0.4,1,1S41.1,86.8,40.5,86.8z"/>
	<path class="st3" d="M99.7,60.2H54.2c-4.2,0-7.6-3-7.6-6.8v-39c0-3.8,3.4-6.8,7.6-6.8h45.5c4.2,0,7.6,3,7.6,6.8v39
		C107.3,57.2,103.9,60.2,99.7,60.2L99.7,60.2z"/>
	<rect x="46.6" y="17.4" width="60.6" height="2"/>
	<circle class="st2" cx="76.9" cy="39.4" r="14"/>
	<path d="M74.3,47c-0.6,0-1.2-0.2-1.8-0.6L68.2,43c-0.4-0.3-0.5-1-0.2-1.4c0.3-0.4,1-0.5,1.4-0.2l4.3,3.5c0.4,0.3,0.9,0.2,1.2-0.1
		l9.1-11.4c0.3-0.4,1-0.5,1.4-0.2c0.4,0.3,0.5,1,0.2,1.4L76.6,46C76,46.7,75.2,47,74.3,47z"/>
	<path d="M55.1,14.1c-0.5,0-1-0.4-1-1V4c0-0.5,0.5-1,1-1s1,0.5,1,1v9.1C56.1,13.6,55.7,14.1,55.1,14.1z"/>
	<path d="M69.7,14.1c-0.5,0-1-0.4-1-1V4c0-0.5,0.5-1,1-1s1,0.5,1,1v9.1C70.7,13.6,70.2,14.1,69.7,14.1z"/>
	<path d="M84.5,14.1c-0.6,0-1-0.4-1-1V4c0-0.5,0.4-1,1-1s1,0.5,1,1v9.1C85.5,13.6,85,14.1,84.5,14.1z"/>
	<path d="M99,14.1c-0.6,0-1-0.4-1-1V4c0-0.5,0.4-1,1-1s1,0.5,1,1v9.1C100,13.6,99.6,14.1,99,14.1z"/>
	<path class="st4" d="M52.1,83.8c-1.3,2.1-1.4,4.8-0.2,6.9l2.4,4.5l9.7,18.3l2,3.7c1.8,3.4,6,4.7,9.4,2.9l16.9-9
		c2-1.1,3.4-3,3.7-5.2l4.3-27.7c0.4-2.7-1.4-5.3-4.2-5.7c-2.6-0.3-5,1.5-5.4,4.1l-0.8,5.1c-0.7,4.3-6.4,5.3-8.4,1.4L65.7,53.4
		c-1.2-2.2-3.8-3.1-6-2c-2.3,1.1-3.2,3.9-2,6.2L64.3,70c0.1,0.1,0,0.3-0.2,0.3c-2.4-0.1-4.4,1.8-4.7,4.2c-0.1,0.8-0.2,0.9-1,1.1
		c-2.6,0.4-4.5,3.3-4,5.8c0,0.1,0,0.3-0.2,0.3C53.4,82.2,52.6,82.9,52.1,83.8L52.1,83.8z"/>
	<path d="M71.9,85.6c-0.4,0-0.7-0.2-0.9-0.5l-7-13.4c-0.3-0.5-0.1-1.1,0.4-1.3s1.1-0.1,1.3,0.4l7,13.4c0.3,0.5,0.1,1.1-0.4,1.3
		C72.2,85.6,72,85.6,71.9,85.6L71.9,85.6z"/>
	<path d="M66.9,90.7c-0.4,0-0.7-0.2-0.9-0.5l-7.1-13.4c-0.3-0.5-0.1-1.1,0.4-1.3c0.5-0.3,1.1-0.1,1.3,0.4l7.1,13.4
		c0.3,0.5,0.1,1.1-0.4,1.3C67.2,90.6,67.1,90.7,66.9,90.7L66.9,90.7z"/>
	<path d="M62.2,96.6c-0.4,0-0.7-0.2-0.9-0.5l-7-13c-0.3-0.5-0.1-1.1,0.4-1.3s1.1-0.1,1.3,0.4l7,13c0.3,0.5,0.1,1.1-0.4,1.3
		C62.5,96.5,62.3,96.6,62.2,96.6z"/>
</g>
</svg>
