<?xml version="1.0" encoding="UTF-8"?><svg id="Layer_2" xmlns="http://www.w3.org/2000/svg" viewBox="0 0 102.46 78.5"><defs><style>.cls-1{fill:#388182;}.cls-2{fill:#53b8b9;}.cls-3{fill:none;stroke:#000;stroke-linecap:round;stroke-linejoin:round;stroke-width:2px;}</style></defs><g id="Layer_1-2"><path class="cls-2" d="m34.29,10.65l-3.36-7.55c-.41-.93-1.09-1.71-1.94-2.26C28.15.29,27.15,0,26.14,0H5.26c-.69,0-1.38.13-2.02.4-.64.26-1.22.65-1.71,1.14-.49.49-.88,1.07-1.14,1.71C.13,3.89,0,4.57,0,5.26v73.24h102.46V10.65H34.29Z"/><path class="cls-1" d="m34.3,10.65l-3.36-7.55c-.41-.93-1.09-1.71-1.94-2.26C28.15.29,27.16,0,26.15,0H5.27c-.69,0-1.38.13-2.02.4-.64.26-1.22.65-1.71,1.14-.49.49-.88,1.07-1.14,1.71C.14,3.89,0,4.57,0,5.26v5.37l34.29.02Z"/><path class="cls-3" d="m50.96,66.69c12.58,0,22.78-9.12,22.78-20.37s-10.2-20.37-22.78-20.37-22.78,9.12-22.78,20.37,10.2,20.37,22.78,20.37Z"/><path class="cls-3" d="m50.96,66.69c7.55,0,13.67-9.12,13.67-20.37s-6.12-20.37-13.67-20.37-13.67,9.12-13.67,20.37,6.12,20.37,13.67,20.37Z"/><path class="cls-3" d="m50.96,25.96v40.74"/><path class="cls-3" d="m28.19,46.33h45.55"/><path class="cls-3" d="m37.86,29.65s12.46,9.47,26.2,0"/><path class="cls-3" d="m37.86,62.81s11.48-10.37,26.2,0"/></g></svg>