<?xml version="1.0" encoding="utf-8"?>
<!-- Generator: Adobe Illustrator 27.6.1, SVG Export Plug-In . SVG Version: 6.00 Build 0)  -->
<svg version="1.1" id="Layer_2_00000095302278180915899670000017109004131678941322_"
	 xmlns="http://www.w3.org/2000/svg" xmlns:xlink="http://www.w3.org/1999/xlink" x="0px" y="0px" viewBox="0 0 59.1 78.4"
	 style="enable-background:new 0 0 59.1 78.4;" xml:space="preserve">
<style type="text/css">
	.st0{fill:#76CBCC;}
	.st1{fill:#2F1A14;}
	.st2{fill:#ECAA20;}
</style>
<g id="Layer_1-2">
	<g id="Outline_Icons-3">
		<path class="st0" d="M58.1,29.6c0,12.6-18.1,36.9-25.5,46.3c-1.6,2-4.6,2-6.1,0C19.1,66.5,1,42.2,1,29.6C1,13.8,13.8,1,29.5,1
			S58.1,13.8,58.1,29.6z"/>
		<path class="st1" d="M29.5,78.4c-1.5,0-2.9-0.7-3.9-1.9C18,66.7,0,42.5,0,29.6C0,13.3,13.2,0,29.5,0s29.5,13.3,29.5,29.6
			c0,12.8-18,37.1-25.7,46.9C32.5,77.7,31,78.4,29.5,78.4z M29.5,2C14.4,2,2,14.4,2,29.6c0,12.2,17.7,36,25.3,45.7
			c0.6,0.7,1.4,1.1,2.3,1.1s1.7-0.4,2.3-1.1c7.6-9.7,25.2-33.5,25.2-45.7C57.1,14.4,44.7,2,29.5,2L29.5,2z"/>
		<ellipse class="st2" cx="29.5" cy="29.6" rx="10.7" ry="10.7"/>
		<path class="st1" d="M29.5,41.3c-6.5,0-11.7-5.3-11.7-11.7s5.2-11.7,11.7-11.7s11.7,5.3,11.7,11.7S36,41.3,29.5,41.3z M29.5,19.9
			c-5.3,0-9.7,4.4-9.7,9.7s4.4,9.7,9.7,9.7s9.7-4.4,9.7-9.7S34.9,19.9,29.5,19.9z"/>
	</g>
</g>
</svg>
