<?xml version="1.0" encoding="utf-8"?>
<!-- Generator: Adobe Illustrator 27.6.1, SVG Export Plug-In . SVG Version: 6.00 Build 0)  -->
<svg version="1.1" id="Layer_2_00000109724472984171618600000002433947373496154754_"
	 xmlns="http://www.w3.org/2000/svg" xmlns:xlink="http://www.w3.org/1999/xlink" x="0px" y="0px" viewBox="0 0 93.5 95.6"
	 style="enable-background:new 0 0 93.5 95.6;" xml:space="preserve">
<style type="text/css">
	.st0{fill:#FFFFFF;}
	.st1{fill:#E9A822;}
	.st2{fill:#010101;}
	.st3{fill:#008383;}
	.st4{fill:#004F50;}
	.st5{fill:#334C72;}
	.st6{fill:#DC9927;}
	.st7{fill:#F2B11F;}
</style>
<g id="Layer_1-2_00000132049648161483640650000009760769045932260743_">
	<g id="Layer_1-2">
		<path class="st0" d="M19.3,0c10.2,0,18.6,8.3,18.6,18.6v67H1.4V19.2C1.6,12.9,6.5,0,19.3,0z"/>
		<path class="st1" d="M13.3,1C5.8,3.6,0.9,10.7,0.9,18.6v56.6h24.9V18.6C25.8,10.6,20.8,3.6,13.3,1L13.3,1z"/>
		<path class="st2" d="M19.3,48.3c-0.5,0-1-0.5-1-1v-6.6c0-0.5,0.5-1,1-1s1,0.5,1,1v6.6C20.3,47.9,19.8,48.3,19.3,48.3z"/>
		<path class="st3" d="M53.2,85.4H1v9.9h52.2V85.4z"/>
		<path class="st3" d="M43.8,75.7H1v9.9h42.8V75.7z"/>
		<path class="st4" d="M19.4,85.4H1v9.9h18.4V85.4z"/>
		<path class="st4" d="M9.7,75.7H1v9.9h8.7V75.7z"/>
		<path class="st2" d="M43.8,76.7H1c-0.6,0-1-0.4-1-1s0.4-1,1-1h42.8c0.5,0,1,0.4,1,1S44.3,76.7,43.8,76.7z"/>
		<path class="st2" d="M53.7,86.6H1c-0.6,0-1-0.4-1-1s0.4-1,1-1h52.7c0.5,0,1,0.4,1,1S54.2,86.6,53.7,86.6z"/>
		<path class="st0" d="M89.7,7.1H48.8V45h40.9V7.1z"/>
		<path class="st5" d="M64,7.1c-2.4,12.8-8.5,20.4-10,22.6L57,45h-9V7.1H64z"/>
		<path class="st5" d="M74.4,7.1c2.5,12.8,8.6,20.4,10,22.6l-3,15.3h8.9V7.1H74.4z"/>
		<path class="st2" d="M90.4,27.9H48c-0.5,0-1-0.5-1-1s0.5-1,1-1h42.4c0.6,0,1,0.5,1,1S91,27.9,90.4,27.9z"/>
		<path class="st2" d="M69.2,46c-0.6,0-1-0.5-1-1V7.2c0-0.6,0.4-1,1-1s1,0.4,1,1V45C70.2,45.6,69.7,46,69.2,46z"/>
		<path class="st2" d="M92.5,46.8h-46c-0.5,0-1-0.5-1-1s0.5-1,1-1h46c0.6,0,1,0.5,1,1S93.1,46.8,92.5,46.8z"/>
	</g>
	<path class="st2" d="M73.2,66.5c-0.6,0-1-0.4-1-1v-5.3c0-2.4-1.9-4.3-4.3-4.3s-4.3,1.9-4.3,4.3v5.3c0,0.6-0.5,1-1,1s-1-0.4-1-1
		v-5.3c0-3.5,2.8-6.3,6.3-6.3s6.3,2.8,6.3,6.3v5.3C74.2,66.1,73.7,66.5,73.2,66.5z"/>
	<polygon class="st6" points="53.6,64.5 51.1,95.6 58,95.6 56.8,64.5 	"/>
	<polygon class="st7" points="56.8,64.5 58,95.6 82.3,95.6 80.5,64.5 	"/>
	<polygon class="st0" points="74.2,76.1 73.8,69.5 63.3,69.5 63.5,76.1 	"/>
	<path class="st2" d="M74.2,76.6H63.6c-0.3,0-0.5-0.2-0.5-0.5l-0.3-6.7c0-0.1,0-0.3,0.1-0.4s0.2-0.2,0.4-0.2h10.5
		c0.3,0,0.5,0.2,0.5,0.5l0.4,6.7c0,0.1,0,0.3-0.1,0.4C74.5,76.5,74.4,76.6,74.2,76.6z M64,75.6h9.7L73.3,70h-9.6
		C63.8,70,64,75.6,64,75.6z"/>
	<path class="st2" d="M71.9,71.7h-6.3c-0.3,0-0.5-0.2-0.5-0.5s0.2-0.5,0.5-0.5h6.3c0.3,0,0.5,0.2,0.5,0.5S72.2,71.7,71.9,71.7z"/>
	<path class="st2" d="M71.9,73.3h-6.3c-0.3,0-0.5-0.2-0.5-0.5s0.2-0.5,0.5-0.5h6.3c0.3,0,0.5,0.2,0.5,0.5S72.2,73.3,71.9,73.3z"/>
	<path class="st2" d="M71.9,74.9h-6.3c-0.3,0-0.5-0.2-0.5-0.5s0.2-0.5,0.5-0.5h6.3c0.3,0,0.5,0.2,0.5,0.5S72.2,74.9,71.9,74.9z"/>
</g>
</svg>
