<?xml version="1.0" encoding="utf-8"?>
<!-- Generator: Adobe Illustrator 27.6.1, SVG Export Plug-In . SVG Version: 6.00 Build 0)  -->
<svg version="1.1" id="Layer_2_00000052811206423700175050000002168679609122074293_"
	 xmlns="http://www.w3.org/2000/svg" xmlns:xlink="http://www.w3.org/1999/xlink" x="0px" y="0px" viewBox="0 0 95.4 97.4"
	 style="enable-background:new 0 0 95.4 97.4;" xml:space="preserve">
<style type="text/css">
	.st0{fill:#FFFFFF;}
	.st1{fill:#E9A822;}
	.st2{fill:#010101;}
	.st3{fill:#E7503D;}
	.st4{fill:#C74A41;}
	.st5{fill:#DC9927;}
	.st6{fill:#F2B11F;}
	.st7{fill:#00B0AD;}
</style>
<g id="Layer_1-2_00000096769002792872947600000001796088424367136671_">
	<g id="Layer_1-2">
		<path class="st0" d="M19.7,0c10.5,0,18.9,8.5,18.9,18.9v68.4H1.5V19.5C1.6,13.2,6.6-0.1,19.7,0z"/>
		<path class="st1" d="M13.6,1.1C5.9,3.7,0.9,10.9,0.9,19v57.8h25.5V18.9C26.3,10.9,21.2,3.7,13.6,1.1L13.6,1.1z"/>
		<path class="st2" d="M19.7,49.3c-0.5,0-1-0.5-1-1v-6.7c0-0.5,0.5-1,1-1s1,0.5,1,1v6.7C20.7,48.8,20.2,49.3,19.7,49.3z"/>
		<path class="st3" d="M54.3,87.2H1v10.1h53.3V87.2z"/>
		<path class="st3" d="M44.7,77.3H1v10.1h43.7V77.3z"/>
		<path class="st4" d="M19.7,87.2H1v10.1h18.7V87.2z"/>
		<path class="st4" d="M9.9,77.3H1v10.1h8.9V77.3z"/>
		<path class="st2" d="M44.7,78.3H1c-0.6,0-1-0.4-1-1s0.4-1,1-1h43.7c0.5,0,1,0.4,1,1S45.2,78.3,44.7,78.3z"/>
		<path class="st2" d="M54.8,88.3H1c-0.6,0-1-0.4-1-1s0.4-1,1-1h53.8c0.5,0,1,0.4,1,1S55.3,88.3,54.8,88.3z"/>
		<path class="st2" d="M74.4,67.8c-0.6,0-1-0.4-1-1v-5.4c0-2.4-2-4.4-4.4-4.4s-4.4,2-4.4,4.4v5.4c0,0.6-0.4,1-1,1s-1-0.4-1-1v-5.4
			c0-3.5,2.9-6.4,6.4-6.4s6.4,2.9,6.4,6.4v5.4C75.4,67.4,75,67.8,74.4,67.8z"/>
		<polygon class="st5" points="55.5,65.8 52.9,97.4 60,97.4 58.7,65.8 		"/>
		<polygon class="st6" points="58.7,65.8 60,97.4 84.7,97.4 82.8,65.8 		"/>
		<path class="st0" d="M91.5,7.3H49.8V46h41.8V7.3z"/>
		<path class="st7" d="M65.3,7.3c-2.5,13-8.7,20.8-10.2,23.1L58.2,46H49V7.3H65.3z"/>
		<path class="st7" d="M76,7.3c2.5,13,8.7,20.8,10.2,23.1L83.1,46h9.2V7.3H76C76,7.3,76,7.3,76,7.3z"/>
		<path class="st2" d="M92.3,28.5H49c-0.5,0-1-0.5-1-1s0.5-1,1-1h43.2c0.6,0,1,0.5,1,1S92.8,28.5,92.3,28.5z"/>
		<path class="st2" d="M70.6,47c-0.6,0-1-0.5-1-1V7.3c0-0.6,0.4-1,1-1s1,0.4,1,1V46C71.6,46.5,71.1,47,70.6,47z"/>
		<path class="st2" d="M94.4,47.7h-47c-0.5,0-1-0.5-1-1s0.5-1,1-1h47c0.6,0,1,0.5,1,1S95,47.7,94.4,47.7z"/>
	</g>
</g>
</svg>
