<?xml version="1.0" encoding="UTF-8"?>
<svg id="Layer_2" xmlns="http://www.w3.org/2000/svg" viewBox="0 0 105.26 64.82">
  <defs>
    <style>
      .cls-1 {
        fill: #f3b120;
      }

      .cls-2 {
        fill: #eaeaea;
      }

      .cls-3 {
        fill: #008384;
      }
    </style>
  </defs>
  <g id="Layer_1-2" data-name="Layer_1">
    <g>
      <path class="cls-3" d="M105.26,21.15v-11.53C105.26,4.31,101.24,0,96.28,0H8.98C4.02,0,0,4.31,0,9.63v10.49s105.26,1.03,105.26,1.03Z"/>
      <path class="cls-2" d="M9.63,64.82h86.01c5.31,0,9.63-4.31,9.63-9.63V14.92c0-5.31-4.31-9.63-9.63-9.63H9.63C4.31,5.3,0,9.61,0,14.92v40.27c0,5.31,4.31,9.63,9.63,9.63Z"/>
    </g>
    <g>
      <path class="cls-1" d="M26.9,56.35l-4.44-3.74c-.51-.43-1.09-.66-1.75-.74l-5.69-.62c-1.44-.16-2.61-1.25-2.84-2.69l-1.09-6.31c-.08-.47-.27-.93-.55-1.32l-3.08-4.37c-.78-1.13-.78-2.61-.04-3.7l3.59-5.26c.31-.43.47-.93.55-1.48l.62-5.46c.16-1.48,1.33-2.69,2.84-2.89l5.81-.74c.51-.08,1.01-.27,1.44-.55l4.95-3.43c1.13-.78,2.57-.78,3.7,0l4.95,3.43c.43.31.94.47,1.44.55l5.81.74c1.48.2,2.65,1.36,2.85,2.89l.62,5.46c.08.55.23,1.01.55,1.48l3.59,5.26c.78,1.13.74,2.61-.04,3.7l-3.08,4.37c-.27.39-.47.86-.55,1.32l-1.09,6.31c-.23,1.44-1.4,2.53-2.85,2.69l-5.69.62c-.62.08-1.25.31-1.75.74l-4.44,3.74c-1.33,1.01-3.12,1.01-4.33,0Z"/>
      <path d="M28.96,50.73c-2.89,0-5.74-.8-8.26-2.36-3.58-2.21-6.09-5.69-7.06-9.79-.97-4.1-.28-8.33,1.93-11.92s5.69-6.09,9.79-7.06c8.47-1.99,16.97,3.26,18.97,11.73.97,4.1.28,8.33-1.93,11.92-2.21,3.58-5.69,6.09-9.79,7.06h0c-1.21.29-2.44.43-3.66.43ZM28.99,21.18c-1.04,0-2.1.12-3.16.37-3.58.85-6.62,3.03-8.55,6.16-1.93,3.13-2.53,6.83-1.69,10.41.84,3.58,3.03,6.62,6.16,8.55,3.13,1.93,6.82,2.53,10.4,1.69h0c3.58-.84,6.62-3.03,8.55-6.16,1.93-3.13,2.53-6.82,1.69-10.4-1.49-6.33-7.16-10.61-13.4-10.61Z"/>
      <path d="M28.61,40.13c-.27,0-.52-.11-.71-.3l-5.77-5.81c-.39-.39-.39-1.02,0-1.41.39-.39,1.02-.39,1.41,0l4.98,5.01,7.33-9.21c.34-.43.97-.5,1.41-.16.43.34.5.97.16,1.41l-8.03,10.09c-.18.22-.44.36-.73.38-.02,0-.04,0-.06,0Z"/>
    </g>
    <path d="M95.16,18.77h-37.75c-.55,0-1-.45-1-1s.45-1,1-1h37.75c.55,0,1,.45,1,1s-.45,1-1,1Z"/>
    <path d="M95.16,26.1h-37.75c-.55,0-1-.45-1-1s.45-1,1-1h37.75c.55,0,1,.45,1,1s-.45,1-1,1Z"/>
    <path d="M95.16,33.43h-37.75c-.55,0-1-.45-1-1s.45-1,1-1h37.75c.55,0,1,.45,1,1s-.45,1-1,1Z"/>
    <g>
      <path d="M73.56,40.76h-16.15c-.55,0-1-.45-1-1s.45-1,1-1h16.15c.55,0,1,.45,1,1s-.45,1-1,1Z"/>
      <path d="M95.16,40.76h-16c-.55,0-1-.45-1-1s.45-1,1-1h16c.55,0,1,.45,1,1s-.45,1-1,1Z"/>
    </g>
    <g>
      <path d="M66.32,48.09h-8.91c-.55,0-1-.45-1-1s.45-1,1-1h8.91c.55,0,1,.45,1,1s-.45,1-1,1Z"/>
      <path d="M80.74,48.09h-8.91c-.55,0-1-.45-1-1s.45-1,1-1h8.91c.55,0,1,.45,1,1s-.45,1-1,1Z"/>
      <path d="M95.16,48.09h-8.91c-.55,0-1-.45-1-1s.45-1,1-1h8.91c.55,0,1,.45,1,1s-.45,1-1,1Z"/>
    </g>
    <g>
      <path d="M63.16,55.42h-5.75c-.55,0-1-.45-1-1s.45-1,1-1h5.75c.55,0,1,.45,1,1s-.45,1-1,1Z"/>
      <path d="M73.82,55.42h-5.75c-.55,0-1-.45-1-1s.45-1,1-1h5.75c.55,0,1,.45,1,1s-.45,1-1,1Z"/>
      <path d="M84.49,55.42h-5.75c-.55,0-1-.45-1-1s.45-1,1-1h5.75c.55,0,1,.45,1,1s-.45,1-1,1Z"/>
      <path d="M95.16,55.42h-5.75c-.55,0-1-.45-1-1s.45-1,1-1h5.75c.55,0,1,.45,1,1s-.45,1-1,1Z"/>
    </g>
  </g>
</svg>