<?xml version="1.0" encoding="utf-8"?>
<!-- Generator: Adobe Illustrator 27.6.1, SVG Export Plug-In . SVG Version: 6.00 Build 0)  -->
<svg version="1.1" id="Layer_2_00000111153299501406360130000015821174865102817940_"
	 xmlns="http://www.w3.org/2000/svg" xmlns:xlink="http://www.w3.org/1999/xlink" x="0px" y="0px" viewBox="0 0 112.2 91.9"
	 style="enable-background:new 0 0 112.2 91.9;" xml:space="preserve">
<style type="text/css">
	.st0{fill:#7ACCCB;}
	.st1{fill:#351C14;}
	.st2{fill:#FFFFFF;}
	.st3{fill:#334C72;}
	.st4{fill:#2F1A14;}
	.st5{fill:#ECAA20;}
	.st6{fill:#EA473C;}
</style>
<g id="Layer_1-2">
	<path class="st0" d="M105.4,0H7.3C3.3,0,0,3.3,0,7.3v77.8c0,3.7,3,6.7,6.7,6.7h98.7c3.7,0,6.7-3,6.7-6.7V6.8
		C112.2,3,109.1,0,105.4,0z"/>
	<path class="st1" d="M43.4,19.5L24.7,6.9l4.3-5c0.4-0.4,0.3-1-0.1-1.4s-1-0.3-1.4,0.1l-5,5.9l-9.6,10.9L1.3,15
		c-0.5-0.1-1.1,0.2-1.2,0.8C0,16.3,0.3,16.9,0.9,17l11.9,2.4l1.1,9.4c0.1,0.5,0.5,0.9,1,0.9c0,0,0.1,0,0.1,0
		c0.6-0.1,0.9-0.6,0.9-1.1l-1.1-10.1c0-0.1,0-0.1-0.1-0.2l8.7-9.9l18.9,12.8c0.2,0.1,0.4,0.2,0.6,0.2c0.3,0,0.6-0.1,0.8-0.4
		C44,20.5,43.9,19.9,43.4,19.5L43.4,19.5z"/>
	<path class="st1" d="M112,75.5c-0.2-0.5-0.8-0.8-1.3-0.6L83.1,86.3l-13.9-17l8.4-8.1c0,0,0-0.1,0.1-0.1c0,0,0,0,0,0l33.5-4.9
		c0.6-0.1,0.9-0.6,0.8-1.1c-0.1-0.5-0.6-0.9-1.1-0.8l-33.5,4.9c-0.3,0-0.5,0.2-0.7,0.4c-0.2,0-0.4,0.1-0.5,0.2l-9.1,8.7l-16,16.2
		L1.6,57c-0.5-0.3-1.1-0.1-1.4,0.4c-0.3,0.5-0.1,1.1,0.4,1.4l50.2,28l9.1,4.9c0.2,0.1,0.3,0.1,0.5,0.1c0.4,0,0.7-0.2,0.9-0.5
		c0.3-0.5,0.1-1.1-0.4-1.4l-7.9-4.3l14.9-15l17,20.8c0.2,0.2,0.5,0.4,0.8,0.4c0.2,0,0.4-0.1,0.6-0.2c0.4-0.3,0.5-1,0.1-1.4l-1.9-2.4
		l27-11.1C111.9,76.6,112.2,76,112,75.5z"/>
	<path class="st2" d="M79.5,0l-0.8,2.7c-0.3,0.8-6.6,20.8-25.8,23.7c-4.6,0.7-7.8,2.2-9.1,4.1c-0.8,1.2-0.7,2.3-0.7,2.3l1.2,4.9
		l-9.7,2.4l-1.2-4.9c-0.1-0.5-1.2-5.4,2.1-10.3c3-4.4,8.3-7.3,15.9-8.4C63.5,14.7,68.4,1.8,69,0L79.5,0L79.5,0z"/>
	<path class="st2" d="M37.5,75.1l-8.7-5l2.5-4.3c0-0.1,3-5.2,5-10.2c1.2-3.1,1.2-5.2,1-6.2s-1.1-4.7-1.1-4.7l9.8-2.4
		c0.1,0.5,3.8,8.2-0.2,17.1C43.3,65,40.1,70.6,40,70.8L37.5,75.1L37.5,75.1z"/>
	<path class="st2" d="M21.7,91.9c-0.8-7.8,3.9-16.3,4.5-17.4l8.7,4.9L30.5,77l4.3,2.5c-1.9,3.4-4.1,9.4-3,12.4
		C31.8,91.9,21.7,91.9,21.7,91.9z"/>
	<path class="st1" d="M112,22.8c-0.1-0.5-0.7-0.9-1.2-0.7L97,25.6L94.1,1C94,0.4,93.5,0.1,93,0.1c-0.6,0.1-0.9,0.6-0.9,1.1L95,26.1
		L0.9,50.3c-0.5,0.1-0.9,0.7-0.7,1.2c0.1,0.5,0.5,0.8,1,0.8c0.1,0,0.2,0,0.2,0l73.9-19v5.9c0,0.5,0.4,1,1,1s1-0.5,1-1v-6.4l33.9-8.7
		C111.8,23.9,112.1,23.4,112,22.8L112,22.8z"/>
	<g id="Outline_Icons-3">
		<path class="st3" d="M35.3,32.3c0,5.2-7.6,15.4-10.6,19.3c-0.7,0.8-1.9,0.8-2.6,0c-3.1-3.9-10.6-14-10.6-19.3
			c0-6.6,5.3-11.9,11.9-11.9S35.3,25.7,35.3,32.3z"/>
		<path class="st4" d="M23.4,53.2L23.4,53.2c-0.8,0-1.6-0.4-2.1-1c-4.1-5.2-10.9-14.6-10.9-19.9c0-7.1,5.8-12.9,12.9-12.9
			s12.9,5.8,12.9,12.9c0,5.3-6.8,14.8-10.9,19.9C25,52.9,24.2,53.2,23.4,53.2z M23.4,21.4c-6,0-10.9,4.9-10.9,10.9
			c0,3.4,3.9,10.4,10.4,18.7c0.2,0.2,0.4,0.2,0.5,0.2l0,0c0.1,0,0.3,0,0.5-0.2c6.5-8.3,10.4-15.3,10.4-18.7
			C34.3,26.3,29.4,21.4,23.4,21.4z"/>
		<circle class="st5" cx="23.4" cy="32.3" r="4.5"/>
		<path class="st4" d="M23.4,37.8c-3,0-5.5-2.5-5.5-5.5s2.5-5.5,5.5-5.5s5.5,2.5,5.5,5.5S26.4,37.8,23.4,37.8z M23.4,28.8
			c-1.9,0-3.5,1.6-3.5,3.5s1.6,3.5,3.5,3.5s3.5-1.6,3.5-3.5S25.3,28.8,23.4,28.8z"/>
	</g>
	<g id="Outline_Icons-3-2">
		<path class="st3" d="M95.7,48.7c0,5.2-7.6,15.4-10.7,19.3c-0.7,0.8-1.9,0.8-2.6,0c-3.1-3.9-10.7-14-10.7-19.3
			c0-6.6,5.3-11.9,11.9-11.9S95.7,42.1,95.7,48.7z"/>
		<path class="st4" d="M83.8,69.6L83.8,69.6c-0.8,0-1.6-0.4-2.1-1C77.7,63.5,70.8,54,70.8,48.7c0-7.1,5.8-12.9,12.9-12.9
			s12.9,5.8,12.9,12.9c0,5.3-6.8,14.8-10.9,19.9C85.3,69.3,84.6,69.6,83.8,69.6z M83.8,37.8c-6,0-10.9,4.9-10.9,10.9
			c0,3.4,3.9,10.4,10.4,18.7c0.2,0.2,0.4,0.2,0.5,0.2l0,0c0.1,0,0.3,0,0.5-0.2c6.5-8.3,10.4-15.3,10.4-18.7
			C94.7,42.7,89.8,37.8,83.8,37.8L83.8,37.8z"/>
		<circle class="st6" cx="83.8" cy="48.7" r="4.5"/>
		<path class="st4" d="M83.8,54.2c-3,0-5.5-2.5-5.5-5.5s2.4-5.5,5.5-5.5s5.5,2.5,5.5,5.5S86.8,54.2,83.8,54.2z M83.8,45.2
			c-1.9,0-3.5,1.6-3.5,3.5s1.6,3.5,3.5,3.5s3.5-1.6,3.5-3.5S85.7,45.2,83.8,45.2z"/>
	</g>
</g>
</svg>
