<?xml version="1.0" encoding="utf-8"?>
<!-- Generator: Adobe Illustrator 27.6.1, SVG Export Plug-In . SVG Version: 6.00 Build 0)  -->
<svg version="1.1" id="Layer_2_00000026866869003484973880000009723220378989642146_"
	 xmlns="http://www.w3.org/2000/svg" xmlns:xlink="http://www.w3.org/1999/xlink" x="0px" y="0px" viewBox="0 0 98.3 45.1"
	 style="enable-background:new 0 0 98.3 45.1;" xml:space="preserve">
<style type="text/css">
	.st0{fill:#00BAB9;}
	.st1{fill:#FFFFFF;}
</style>
<g id="Layer_1-2">
	<path class="st0" d="M98.3,43.5c0,0.2,0,0.5-0.1,0.7c-0.1,0.2-0.2,0.4-0.4,0.6c-0.2,0.2-0.4,0.3-0.6,0.4s-0.4,0.1-0.7,0.1H1.7
		c-0.5,0-0.9-0.2-1.2-0.5C0.2,44.3,0,43.9,0,43.5V1.7c0-0.4,0.2-0.9,0.5-1.2C0.9,0.2,1.3,0,1.7,0h94.9c0.4,0,0.9,0.2,1.2,0.5
		c0.3,0.3,0.5,0.7,0.5,1.2L98.3,43.5L98.3,43.5z"/>
	<path d="M85.6,40.3H12.9c-0.1,0-0.3,0-0.4-0.1c-0.1,0-0.1,0-0.1-0.1c-0.1,0-0.1-0.1-0.2-0.1l0,0c-0.2-0.2-0.3-0.5-0.3-0.7
		c0-2.8-2-5.2-4.3-5.2c-0.5,0-1.1,0.1-1.5,0.3c-0.3,0.1-0.7,0.1-0.9,0l0,0c-0.1-0.1-0.2-0.2-0.3-0.3l0,0c0,0-0.1-0.1-0.1-0.1
		s0-0.1-0.1-0.1l0,0c-0.1-0.2-0.1-0.3-0.1-0.5V11.7c0-0.2,0-0.3,0.1-0.5l0,0c0-0.1,0.1-0.1,0.1-0.2c0,0,0.1-0.1,0.1-0.1c0,0,0,0,0,0
		c0,0,0,0,0.1-0.1C5,10.9,5,10.8,5,10.8c0,0,0,0,0,0c0.3-0.1,0.6-0.1,0.9,0l0,0c0.5,0.2,1,0.4,1.5,0.4c2.4,0,4.3-2.4,4.3-5.3
		c0-0.2,0-0.3,0.1-0.5l0,0c0-0.1,0.1-0.2,0.1-0.2c0,0,0.1-0.1,0.1-0.1l0,0c0.2-0.2,0.4-0.2,0.6-0.2h72.8c0.3,0,0.6,0.1,0.7,0.3
		s0.3,0.5,0.3,0.7c0,2.9,1.9,5.3,4.3,5.3c0.5,0,1-0.1,1.4-0.3l0,0c0.3-0.1,0.8-0.1,1.1,0.1l0,0c0.1,0.1,0.2,0.2,0.3,0.4l0,0
		c0.1,0.1,0.1,0.3,0.1,0.5v21.7c0,0.2,0,0.3-0.1,0.5c-0.1,0.1-0.1,0.2-0.2,0.3h0c-0.3,0.3-0.8,0.4-1.2,0.2c-0.5-0.2-1-0.3-1.5-0.3
		c-2.3,0-4.3,2.3-4.3,5.2c0,0.3-0.1,0.5-0.3,0.7l0,0c-0.1,0-0.1,0.1-0.2,0.1c-0.1,0-0.1,0.1-0.2,0.1l0,0
		C85.8,40.3,85.7,40.3,85.6,40.3L85.6,40.3z M13.8,38.3h70.9c0.4-3.5,3.1-6.2,6.3-6.2c0.3,0,0.7,0,1,0.1V13.1
		c-0.3,0.1-0.6,0.1-0.9,0.1c-3.2,0-5.9-2.8-6.3-6.3H13.8c-0.4,3.6-3.1,6.3-6.3,6.3c-0.3,0-0.7,0-1-0.1v19.1c0.3-0.1,0.7-0.1,1-0.1
		C10.7,32.1,13.3,34.8,13.8,38.3z M92.9,33.5L92.9,33.5L92.9,33.5z"/>
	<path class="st1" d="M48,32.3c-1.8-0.2-3.6-0.8-5.2-1.8l0,0c-0.2-0.1-0.3-0.3-0.5-0.4c-0.1-0.2-0.2-0.4-0.3-0.6c0-0.2,0-0.4,0-0.6
		c0-0.2,0.1-0.4,0.2-0.6c0.2-0.3,0.6-0.5,1-0.6s0.8,0,1.1,0.2l0,0c1.1,0.8,2.3,1.3,3.7,1.5c0,0,0,0,0,0c0,0,0,0,0,0c0,0,0,0,0,0
		c0,0,0,0,0,0V24c0,0,0,0,0,0c0,0,0,0,0,0c-4-1-5.9-2.6-5.9-5.7v-0.1c0-3,2.3-5,5.8-5.3c0,0,0,0,0,0c0,0,0,0,0,0v-1.5
		c0-0.3,0.1-0.6,0.3-0.9c0.2-0.2,0.5-0.4,0.9-0.4s0.6,0.1,0.9,0.4c0.2,0.2,0.3,0.5,0.3,0.9v1.5c0,0,0,0,0,0c0,0,0,0,0,0
		c1.4,0.2,2.7,0.6,3.9,1.2l0,0c0.4,0.2,0.6,0.5,0.7,0.9c0.1,0.4,0.1,0.8-0.1,1.2c-0.2,0.3-0.5,0.6-0.9,0.7s-0.8,0-1.1-0.1l0,0
		c-0.8-0.5-1.6-0.8-2.5-1h0c0,0,0,0,0,0s0,0,0,0c0,0,0,0,0,0V21c0,0,0,0,0,0c0,0,0,0,0,0c4.2,1,6,2.7,6,5.7v0.1c0,3-2.4,5.1-5.9,5.4
		c0,0,0,0,0,0c0,0,0,0,0,0v1.5c0,0.3-0.1,0.6-0.3,0.9c-0.2,0.2-0.5,0.3-0.9,0.3s-0.6-0.1-0.9-0.3c-0.2-0.2-0.4-0.5-0.4-0.9L48,32.3
		L48,32.3z M48.1,15.8C48.1,15.8,48.1,15.7,48.1,15.8C48.1,15.7,48.1,15.7,48.1,15.8C48.1,15.7,48.1,15.7,48.1,15.8
		C48.1,15.7,48.1,15.7,48.1,15.8c-1.8,0.1-2.7,1.1-2.7,2.3v0.1c0,1.1,0.5,1.9,2.6,2.5c0,0,0,0,0,0c0,0,0,0,0,0c0,0,0,0,0,0
		c0,0,0,0,0,0L48.1,15.8L48.1,15.8z M53,27.2L53,27.2c0-1.3-0.6-2-2.7-2.7c0,0,0,0,0,0c0,0,0,0,0,0c0,0,0,0,0,0c0,0,0,0,0,0v4.9
		c0,0,0,0,0,0c0,0,0,0,0,0c0,0,0,0,0,0c0,0,0,0,0,0C52.1,29.3,53,28.5,53,27.2L53,27.2L53,27.2z"/>
	<path d="M79.4,16.7H63.1c-0.5,0-1-0.5-1-1s0.5-1,1-1h16.3c0.6,0,1,0.4,1,1C80.4,16.2,80,16.7,79.4,16.7z"/>
	<path d="M79.4,23.6H63.1c-0.5,0-1-0.5-1-1s0.5-1,1-1h16.3c0.6,0,1,0.5,1,1S80,23.6,79.4,23.6z"/>
	<path d="M79.4,30.4H63.1c-0.5,0-1-0.5-1-1s0.5-1,1-1h16.3c0.6,0,1,0.5,1,1S80,30.4,79.4,30.4z"/>
	<path d="M35.3,16.7H18.9c-0.5,0-1-0.5-1-1s0.5-1,1-1h16.3c0.5,0,1,0.4,1,1C36.3,16.2,35.8,16.7,35.3,16.7z"/>
	<path d="M35.3,23.6H18.9c-0.5,0-1-0.5-1-1s0.5-1,1-1h16.3c0.5,0,1,0.5,1,1S35.8,23.6,35.3,23.6z"/>
	<path d="M35.3,30.4H18.9c-0.5,0-1-0.5-1-1s0.5-1,1-1h16.3c0.5,0,1,0.5,1,1S35.8,30.4,35.3,30.4z"/>
</g>
</svg>
