<?xml version="1.0" encoding="utf-8"?>
<!-- Generator: Adobe Illustrator 27.6.1, SVG Export Plug-In . SVG Version: 6.00 Build 0)  -->
<svg version="1.1" id="Layer_2_00000156575089831459435850000017781455915546319523_"
	 xmlns="http://www.w3.org/2000/svg" xmlns:xlink="http://www.w3.org/1999/xlink" x="0px" y="0px" viewBox="0 0 108.8 63.7"
	 style="enable-background:new 0 0 108.8 63.7;" xml:space="preserve">
<style type="text/css">
	.st0{fill:#F1B01E;}
	.st1{fill:#FFFFFF;}
	.st2{fill:#00BAB9;}
</style>
<g id="Layer_1-2">
	<path class="st0" d="M108.8,43.5c0,0.2,0,0.5-0.1,0.7c-0.1,0.2-0.2,0.4-0.4,0.6c-0.2,0.2-0.4,0.3-0.6,0.4s-0.4,0.1-0.7,0.1H12.2
		c-0.4,0-0.9-0.2-1.2-0.5c-0.3-0.3-0.5-0.7-0.5-1.2V1.7c0-0.4,0.2-0.9,0.5-1.2C11.4,0.2,11.8,0,12.2,0h94.9c0.4,0,0.9,0.2,1.2,0.5
		c0.3,0.3,0.5,0.7,0.5,1.2L108.8,43.5L108.8,43.5z"/>
	<path d="M96.1,40.3H23.4c-0.1,0-0.3,0-0.4-0.1c0,0-0.1,0-0.1-0.1c-0.1,0-0.1-0.1-0.2-0.2l0,0c-0.2-0.2-0.3-0.5-0.3-0.7
		c0-2.8-2-5.2-4.3-5.2c-0.6,0-1,0.1-1.5,0.3c-0.3,0.1-0.6,0.1-0.9,0l0,0c-0.2-0.1-0.3-0.2-0.4-0.3l0,0c0,0,0,0,0,0c0,0,0,0,0-0.1
		l0,0C15,33.8,15,33.7,15,33.5V11.7c0-0.2,0-0.3,0.1-0.5l0,0c0,0,0.1-0.1,0.1-0.1c0-0.1,0.1-0.1,0.1-0.1l0,0
		c0.1-0.1,0.2-0.1,0.2-0.2c0,0,0,0,0,0c0.3-0.1,0.6-0.1,0.9,0l0,0c0.5,0.2,1,0.4,1.5,0.4c2.4,0,4.3-2.4,4.3-5.3c0-0.2,0-0.3,0.1-0.5
		l0,0c0-0.1,0.1-0.1,0.1-0.2c0,0,0.1-0.1,0.1-0.1l0,0c0.2-0.2,0.4-0.2,0.7-0.2h72.8c0.3,0,0.6,0.1,0.7,0.3s0.3,0.5,0.3,0.7
		c0,2.9,1.9,5.3,4.3,5.3c0.5,0,1-0.1,1.4-0.3l0,0c0.3-0.1,0.8-0.1,1.1,0.1l0,0c0.1,0.1,0.2,0.2,0.3,0.4l0,0c0.1,0.1,0.1,0.3,0.1,0.4
		v21.7c0,0.2,0,0.3-0.1,0.5c-0.1,0.1-0.1,0.2-0.2,0.3c0,0,0,0,0,0c-0.3,0.3-0.8,0.4-1.1,0.2c-0.5-0.2-1-0.3-1.5-0.3
		c-2.3,0-4.3,2.3-4.3,5.2c0,0.3-0.1,0.5-0.3,0.7l0,0c-0.1,0.1-0.1,0.1-0.2,0.2c-0.1,0-0.1,0.1-0.2,0.1
		C96.3,40.3,96.2,40.3,96.1,40.3L96.1,40.3z M24.3,38.3h70.9c0.4-3.5,3.1-6.2,6.3-6.2c0.3,0,0.7,0,1,0.1V13.1
		c-0.3,0.1-0.6,0.1-0.9,0.1c-3.2,0-5.9-2.8-6.3-6.3H24.3c-0.4,3.6-3.1,6.3-6.3,6.3c-0.3,0-0.7,0-1-0.1v19.1c0.3-0.1,0.7-0.1,1-0.1
		C21.2,32.1,23.9,34.8,24.3,38.3z M103.4,33.5L103.4,33.5L103.4,33.5z"/>
	<path class="st1" d="M58.5,32.3c-1.8-0.2-3.6-0.8-5.2-1.8l0,0c-0.2-0.1-0.3-0.3-0.5-0.4c-0.1-0.2-0.2-0.4-0.3-0.6
		c0-0.2,0-0.4,0-0.6c0-0.2,0.1-0.4,0.2-0.6c0.2-0.3,0.6-0.5,1-0.6s0.8,0,1.1,0.2l0,0c1.1,0.8,2.3,1.3,3.7,1.5c0,0,0,0,0,0
		c0,0,0,0,0,0c0,0,0,0,0,0c0,0,0,0,0,0V24c0,0,0,0,0,0c0,0,0,0,0,0c-4-1-5.9-2.6-5.9-5.7v-0.1c0-3,2.3-5,5.8-5.3c0,0,0,0,0,0
		c0,0,0,0,0,0v-1.5c0-0.3,0.1-0.6,0.3-0.9c0.2-0.2,0.5-0.4,0.9-0.4s0.6,0.1,0.9,0.4c0.2,0.2,0.3,0.5,0.3,0.9v1.5c0,0,0,0,0,0
		c0,0,0,0,0,0c1.4,0.2,2.7,0.6,3.9,1.2l0,0c0.4,0.2,0.6,0.5,0.7,0.9c0.1,0.4,0.1,0.8-0.1,1.2c-0.2,0.3-0.5,0.6-0.9,0.7
		c-0.4,0.1-0.8,0-1.1-0.1l0,0c-0.8-0.5-1.6-0.8-2.5-1h0c0,0,0,0,0,0s0,0,0,0c0,0,0,0,0,0V21c0,0,0,0,0,0c0,0,0,0,0,0
		c4.2,1,6,2.7,6,5.7v0.1c0,3-2.4,5.1-5.9,5.4c0,0,0,0,0,0c0,0,0,0,0,0v1.5c0,0.3-0.1,0.6-0.3,0.9C60.3,34.9,60,35,59.7,35
		s-0.6-0.1-0.9-0.3c-0.2-0.2-0.4-0.5-0.4-0.9L58.5,32.3L58.5,32.3z M58.6,15.8C58.6,15.8,58.6,15.7,58.6,15.8
		C58.6,15.7,58.6,15.7,58.6,15.8C58.6,15.7,58.6,15.7,58.6,15.8C58.6,15.7,58.6,15.7,58.6,15.8c-1.8,0.1-2.7,1.1-2.7,2.3v0.1
		c0,1.1,0.5,1.9,2.6,2.5c0,0,0,0,0,0c0,0,0,0,0,0c0,0,0,0,0,0c0,0,0,0,0,0L58.6,15.8L58.6,15.8z M63.5,27.2L63.5,27.2
		c0-1.3-0.6-2-2.7-2.7c0,0,0,0,0,0c0,0,0,0,0,0c0,0,0,0,0,0c0,0,0,0,0,0v4.9c0,0,0,0,0,0c0,0,0,0,0,0c0,0,0,0,0,0c0,0,0,0,0,0
		C62.6,29.3,63.5,28.5,63.5,27.2L63.5,27.2L63.5,27.2z"/>
	<path d="M89.9,16.7H73.6c-0.6,0-1-0.5-1-1s0.4-1,1-1h16.3c0.6,0,1,0.4,1,1C90.9,16.2,90.4,16.7,89.9,16.7z"/>
	<path d="M89.9,23.6H73.6c-0.6,0-1-0.5-1-1s0.4-1,1-1h16.3c0.6,0,1,0.5,1,1S90.4,23.6,89.9,23.6z"/>
	<path d="M89.9,30.4H73.6c-0.6,0-1-0.5-1-1s0.4-1,1-1h16.3c0.6,0,1,0.5,1,1S90.4,30.4,89.9,30.4z"/>
	<path d="M45.8,16.7H29.4c-0.5,0-1-0.5-1-1s0.5-1,1-1h16.3c0.5,0,1,0.4,1,1C46.8,16.2,46.3,16.7,45.8,16.7z"/>
	<path d="M45.8,23.6H29.4c-0.5,0-1-0.5-1-1s0.5-1,1-1h16.3c0.5,0,1,0.5,1,1S46.3,23.6,45.8,23.6z"/>
	<path d="M45.8,30.4H29.4c-0.5,0-1-0.5-1-1s0.5-1,1-1h16.3c0.5,0,1,0.5,1,1S46.3,30.4,45.8,30.4z"/>
	<path class="st2" d="M98.3,62c0,0.2,0,0.5-0.1,0.7c-0.1,0.2-0.2,0.4-0.4,0.6c-0.2,0.2-0.4,0.3-0.6,0.4s-0.4,0.1-0.7,0.1H1.7
		c-0.5,0-0.9-0.2-1.2-0.5C0.2,62.9,0,62.4,0,62V20.2c0-0.5,0.2-0.9,0.5-1.2c0.3-0.3,0.8-0.5,1.2-0.5h94.9c0.4,0,0.9,0.2,1.2,0.5
		c0.3,0.3,0.5,0.7,0.5,1.2L98.3,62L98.3,62z"/>
	<path d="M85.6,58.8H12.9c-0.1,0-0.3,0-0.4-0.1c-0.1,0-0.1,0-0.1-0.1c-0.1,0-0.1-0.1-0.2-0.1l0,0c-0.2-0.2-0.3-0.5-0.3-0.7
		c0-2.8-2-5.2-4.3-5.2c-0.5,0-1.1,0.1-1.5,0.3c-0.3,0.1-0.7,0.1-0.9,0l0,0c-0.2-0.1-0.3-0.2-0.4-0.3l0,0c0,0,0,0,0,0s0,0,0-0.1l0,0
		c-0.1-0.2-0.1-0.3-0.1-0.5V30.2c0-0.2,0-0.3,0.1-0.5l0,0c0,0,0.1-0.1,0.1-0.1c0,0,0.1-0.1,0.1-0.1l0,0c0,0,0.1,0,0.1-0.1
		c0,0,0,0,0.1,0C5,29.4,5,29.3,5,29.3c0,0,0,0,0,0c0.3-0.1,0.6-0.1,0.9,0l0,0c0.5,0.2,1,0.4,1.5,0.4c2.4,0,4.3-2.4,4.3-5.3
		c0-0.2,0-0.3,0.1-0.5l0,0c0-0.1,0.1-0.1,0.1-0.2c0,0,0.1-0.1,0.1-0.1l0,0c0.2-0.1,0.4-0.2,0.6-0.2h72.8c0.3,0,0.6,0.1,0.7,0.3
		s0.3,0.5,0.3,0.7c0,2.9,1.9,5.3,4.3,5.3c0.5,0,1-0.1,1.4-0.3l0,0c0.3-0.1,0.8-0.1,1.1,0.1l0,0c0.1,0.1,0.2,0.2,0.3,0.4l0,0
		c0.1,0.1,0.1,0.3,0.1,0.5V52c0,0.2,0,0.3-0.1,0.5c-0.1,0.1-0.1,0.2-0.2,0.3c-0.3,0.3-0.8,0.4-1.1,0.2c-0.5-0.2-1-0.3-1.5-0.3
		c-2.3,0-4.3,2.3-4.3,5.2c0,0.3-0.1,0.5-0.3,0.7l0,0c-0.1,0-0.1,0.1-0.2,0.1c-0.1,0-0.1,0.1-0.2,0.1l0,0
		C85.8,58.8,85.7,58.8,85.6,58.8L85.6,58.8z M13.8,56.8h70.9c0.4-3.5,3.1-6.2,6.3-6.2c0.3,0,0.7,0,1,0.1V31.6
		c-0.3,0-0.6,0.1-0.9,0.1c-3.2,0-5.9-2.8-6.3-6.3H13.8c-0.4,3.6-3.1,6.3-6.3,6.3c-0.3,0-0.7,0-1-0.1v19.1c0.3-0.1,0.7-0.1,1-0.1
		C10.7,50.6,13.3,53.3,13.8,56.8z M92.9,52L92.9,52L92.9,52z"/>
	<path class="st1" d="M48,50.8c-1.8-0.2-3.6-0.8-5.2-1.8l0,0c-0.2-0.1-0.3-0.3-0.5-0.4c-0.1-0.2-0.2-0.4-0.3-0.6c0-0.2,0-0.4,0-0.6
		c0-0.2,0.1-0.4,0.2-0.6c0.2-0.3,0.6-0.5,1-0.6s0.8,0,1.1,0.2l0,0c1.1,0.8,2.3,1.3,3.7,1.5c0,0,0,0,0,0c0,0,0,0,0,0c0,0,0,0,0,0
		c0,0,0,0,0,0v-5.4c0,0,0,0,0,0c0,0,0,0,0,0c-4-1-5.9-2.6-5.9-5.7v-0.1c0-3,2.3-5,5.8-5.3c0,0,0,0,0,0c0,0,0,0,0,0v-1.5
		c0-0.3,0.1-0.6,0.3-0.9c0.2-0.2,0.5-0.4,0.9-0.4s0.6,0.1,0.9,0.4c0.2,0.2,0.3,0.5,0.3,0.9v1.5c0,0,0,0,0,0c0,0,0,0,0,0
		c1.4,0.2,2.7,0.6,3.9,1.2l0,0c0.4,0.2,0.6,0.5,0.7,0.9c0.1,0.4,0.1,0.8-0.1,1.2c-0.2,0.3-0.5,0.6-0.9,0.7s-0.8,0-1.1-0.2l0,0
		c-0.8-0.5-1.6-0.8-2.5-1h0c0,0,0,0,0,0s0,0,0,0c0,0,0,0,0,0v5.2c0,0,0,0,0,0c0,0,0,0,0,0c4.2,1,6,2.7,6,5.7v0.1
		c0,3-2.4,5.1-5.9,5.4c0,0,0,0,0,0c0,0,0,0,0,0v1.5c0,0.3-0.1,0.6-0.3,0.9c-0.2,0.2-0.5,0.3-0.9,0.3s-0.6-0.1-0.9-0.3
		c-0.2-0.2-0.4-0.5-0.4-0.9L48,50.8L48,50.8z M48.1,34.3C48.1,34.3,48.1,34.3,48.1,34.3C48.1,34.2,48.1,34.2,48.1,34.3
		C48.1,34.2,48.1,34.2,48.1,34.3C48.1,34.2,48.1,34.2,48.1,34.3c-1.8,0.1-2.7,1.1-2.7,2.3v0.1c0,1.1,0.5,1.9,2.6,2.5c0,0,0,0,0,0
		c0,0,0,0,0,0c0,0,0,0,0,0c0,0,0,0,0,0L48.1,34.3L48.1,34.3z M53,45.7L53,45.7c0-1.3-0.6-2-2.7-2.7c0,0,0,0,0,0c0,0,0,0,0,0
		c0,0,0,0,0,0c0,0,0,0,0,0V48c0,0,0,0,0,0c0,0,0,0,0,0c0,0,0,0,0,0c0,0,0,0,0,0C52.1,47.9,53,47,53,45.7L53,45.7L53,45.7z"/>
	<path d="M79.4,35.2H63.1c-0.5,0-1-0.5-1-1s0.5-1,1-1h16.3c0.6,0,1,0.5,1,1S80,35.2,79.4,35.2z"/>
	<path d="M79.4,42.1H63.1c-0.5,0-1-0.5-1-1s0.5-1,1-1h16.3c0.6,0,1,0.5,1,1S80,42.1,79.4,42.1z"/>
	<path d="M79.4,48.9H63.1c-0.5,0-1-0.5-1-1s0.5-1,1-1h16.3c0.6,0,1,0.5,1,1S80,48.9,79.4,48.9z"/>
	<path d="M35.3,35.2H18.9c-0.5,0-1-0.5-1-1s0.5-1,1-1h16.3c0.5,0,1,0.5,1,1S35.8,35.2,35.3,35.2z"/>
	<path d="M35.3,42.1H18.9c-0.5,0-1-0.5-1-1s0.5-1,1-1h16.3c0.5,0,1,0.5,1,1S35.8,42.1,35.3,42.1z"/>
	<path d="M35.3,48.9H18.9c-0.5,0-1-0.5-1-1s0.5-1,1-1h16.3c0.5,0,1,0.5,1,1S35.8,48.9,35.3,48.9z"/>
</g>
</svg>
