<?xml version="1.0" encoding="utf-8"?>
<!-- Generator: Adobe Illustrator 27.6.1, SVG Export Plug-In . SVG Version: 6.00 Build 0)  -->
<svg version="1.1" id="Layer_2_00000021100665838679386960000010752330517229097610_"
	 xmlns="http://www.w3.org/2000/svg" xmlns:xlink="http://www.w3.org/1999/xlink" x="0px" y="0px" viewBox="0 0 71.4 107.5"
	 style="enable-background:new 0 0 71.4 107.5;" xml:space="preserve">
<style type="text/css">
	.st0{fill:#004F50;}
	.st1{fill:#F1B01E;}
	.st2{fill:#FFFFFF;}
	.st3{fill:#00A7A2;}
	.st4{fill:#EA473C;}
	.st5{fill:#F0B01E;}
</style>
<g id="Layer_1-2_00000162337742545002977180000000791912107962927761_">
	<g id="Layer_1-2">
		<path class="st0" d="M49.8,107.5h11.8c5.4,0,9.8-4.1,9.8-9.2V9.2c0-5.1-4.4-9.2-9.8-9.2H50.8L49.8,107.5L49.8,107.5z"/>
		<path class="st1" d="M0,9.8v87.9c0,5.4,4.4,9.8,9.8,9.8H51c5.4,0,9.8-4.4,9.8-9.8V9.8C60.8,4.4,56.4,0,51,0H9.8C4.4,0,0,4.4,0,9.8
			z"/>
		<path class="st2" d="M4.3,15.7v69.9c0,1.6,1.3,2.9,3,2.9h46.1c1.7,0,3-1.3,3-2.9V15.7c0-1.6-1.3-2.9-3-2.9H7.3
			C5.7,12.8,4.3,14.1,4.3,15.7L4.3,15.7z"/>
		<path d="M35.7,96.6c0-2.3-1.9-4.2-4.2-4.2s-4.2,1.9-4.2,4.2s1.9,4.2,4.2,4.2S35.7,99,35.7,96.6z"/>
		<path d="M33.8,8.2H19.4c-0.5,0-1-0.4-1-1s0.5-1,1-1h14.5c0.5,0,1,0.4,1,1S34.4,8.2,33.8,8.2z"/>
		<path d="M41.5,6.4c0.4,0,0.8,0.3,0.8,0.8s-0.3,0.8-0.8,0.8s-0.8-0.3-0.8-0.8S41,6.4,41.5,6.4 M41.5,4.4c-1.5,0-2.8,1.2-2.8,2.8
			s1.2,2.8,2.8,2.8s2.8-1.2,2.8-2.8S43,4.4,41.5,4.4L41.5,4.4z"/>
		<path class="st2" d="M64.9,34.1V15.8c0-0.6,0.5-1.1,1.1-1.1h0.6c0.6,0,1.1,0.5,1.1,1.1v18.3c0,0.6-0.5,1.1-1.1,1.1h-0.6
			C65.4,35.2,64.9,34.7,64.9,34.1z"/>
		<path class="st2" d="M64.9,57.5V39.1c0-0.6,0.5-1.1,1.1-1.1h0.6c0.6,0,1.1,0.5,1.1,1.1v18.3c0,0.6-0.5,1-1.1,1h-0.6
			C65.4,58.5,64.9,58,64.9,57.5z"/>
	</g>
	<rect x="15.5" y="51" class="st3" width="9.6" height="26"/>
	<path d="M25.1,77.7h-9.6c-0.4,0-0.7-0.3-0.7-0.7V51c0-0.4,0.3-0.7,0.7-0.7h9.6c0.4,0,0.7,0.3,0.7,0.7v26
		C25.8,77.4,25.5,77.7,25.1,77.7z M16.2,76.3h8.2V51.7h-8.2V76.3z"/>
	<rect x="35.7" y="61.2" class="st4" width="9.6" height="15.8"/>
	<path d="M45.3,77.7h-9.6c-0.4,0-0.7-0.3-0.7-0.7V61.2c0-0.4,0.3-0.7,0.7-0.7h9.6c0.4,0,0.7,0.3,0.7,0.7V77
		C46,77.4,45.6,77.7,45.3,77.7z M36.4,76.3h8.2V61.9h-8.2V76.3z"/>
	<rect x="25.4" y="40.1" class="st5" width="9.6" height="36.9"/>
	<path d="M35,77.7h-9.6c-0.4,0-0.7-0.3-0.7-0.7V40.1c0-0.4,0.3-0.7,0.7-0.7H35c0.4,0,0.7,0.3,0.7,0.7V77
		C35.7,77.4,35.3,77.7,35,77.7z M26.1,76.3h8.2V40.8h-8.2V76.3z"/>
</g>
</svg>
