<?xml version="1.0" encoding="UTF-8"?>
<svg id="Layer_2" xmlns="http://www.w3.org/2000/svg" viewBox="0 0 145.32 49.81">
  <defs>
    <style>
      .cls-1 {
        fill: #ff9d3b;
      }

      .cls-2 {
        fill: #fff;
      }

      .cls-3 {
        fill: #00a8a6;
      }

      .cls-4 {
        fill: #006d6c;
      }
    </style>
  </defs>
  <g id="Layer_1-2" data-name="Layer_1">
    <path d="M116.73,20.95c-17.5,3.07-99.71,1.37-99.71,1.37,0,0-10.65,5.98-12.51,13.32h0c.14.05.69-1.04.69-.89h.89l2.64,2.21c.09,0,.37.09.37.09,0,0,1.45,1.27,10.82,1.41l19.67-.04,70.19.18,22.5-.48s-.21.07,1.99-.21l5.09-.21s1.79-.14,3.35-.8c0,0-8.46-19.03-25.96-15.97l-.02.02Z"/>
    <path d="M92.67,2.16s12.06,6.89,17.45,11.5l-3.67.7-17.34-11.63s1.97-.85,3.56-.56h0Z"/>
    <path class="cls-3" d="M106.79,37.71s1.48-.95,1.69-4.44c.85-9.46,17.34-14.49,24.53-2.59l12.11-.32s.85-1-.95-2.59c0,0-1.22-7.56-4.44-10.79-4.07-1.96-20.78-4.44-33.42-3.01,0,0-10.42-8.09-16.44-11.21,0,0,1.22-.58,2.54-.58-2.06-1-3.49-1.43-5.92-1.59,0,0-13.69-.9-29.77-.48,0,0-3.54.63-4.23,2.06,0,0-1.37,2.96-2.11,10.79l-47.42.42s-.74,1.16,0,2.38c0,0-.79,6.87,0,13.75,0,0,.11.63,1,.63l2.81.76s.89-.92,1.15,4.68c0,0-.32.74,8.94.63,0,0,1.06.16,1.32-1.59.42-13.22,22.84-16.29,24.16,3.07,0,0-.09.69.97.76h62.4s.58-.25,1.08-.76v.02Z"/>
    <path d="M57.07,13.23s-.18-6.2,1.69-10.05c0,0,.25-.71,1.73-.71h10.29l-.32,11.98h-12.27s-1.14.1-1.13-1.23h0Z"/>
    <polygon points="70.63 2.48 73.48 2.48 73.74 14.46 70.3 14.46 70.63 2.48"/>
    <path d="M73.35,2.48s11.34-.11,14.49,1.62c3.15,1.73,10.66,6.8,13.32,8.64,0,0,.74.32.81,1.73v1.16s-.04.78-.89.78h-12.79s-.64.19-1.93-.99c0,0-1.08-.99-2.89-.95h-9.88l-.25-11.98h.01Z"/>
    <path class="cls-4" d="M40.58,30.61c1.47,3.48,1.83,5.22,1.56,7.96l66.41-.03c.06-2.72-.25-3.41.69-8.03l-68.66.11h0ZM9.38,37.71c2.94.94,9.28.82,9.28.82-.14-3.02-.34-5.25.51-8.03H6.08c.07,1.86-.14,6.11,3.3,7.21Z"/>
    <path d="M60.49,2.48c-1.48,0-1.73.71-1.73.71-1.87,3.84-1.69,10.05-1.69,10.05v.16h9.1s1.11.05,1.16-.9c.04-.75.31-7.23.42-10.01h-7.28.02Z"/>
    <path class="cls-4" d="M0,30.94s1.97-.81,3.35-.79l3.98.35s.54.55.25,5.12c0,0-4.62.23-6.13-.26,0,0-1.3-.33-1.45-4.41h0Z"/>
    <path d="M132.25,38.47c0,6.16-4.81,11.16-10.74,11.16s-10.74-5-10.74-11.16,4.81-11.16,10.74-11.16,10.74,5,10.74,11.16Z"/>
    <path class="cls-2" d="M128.94,38.65c0,4.03-3.33,7.3-7.43,7.3s-7.43-3.27-7.43-7.3,3.33-7.3,7.43-7.3,7.43,3.27,7.43,7.3Z"/>
    <path d="M41.1,38.65c0,6.16-4.81,11.16-10.74,11.16s-10.74-5-10.74-11.16,4.81-11.16,10.74-11.16,10.74,5,10.74,11.16Z"/>
    <path class="cls-2" d="M37.79,38.65c0,4.03-3.33,7.3-7.43,7.3s-7.43-3.27-7.43-7.3,3.33-7.3,7.43-7.3,7.43,3.27,7.43,7.3Z"/>
    <path class="cls-2" d="M7.33,17.19H2.82c-.13,1.71-.31,4.79-.17,8.25h3.52c.15,0,.29-.12.32-.28l1.12-7.58c.03-.22-.09-.39-.27-.39h0Z"/>
    <path class="cls-4" d="M132.95,30.77s.3.91.41,1.12c0,0,1.25,2.43,1.31,5.1,0,0-.03.95,1.59.93l6.44-.29s1.24.03,1.67-1.85c.42-1.88,1.16-5.1.64-5.42,0,0-12.11,0-12.04.41h-.02Z"/>
    <path class="cls-2" d="M136.34,25.82l7.5.34h0c-.36-1.58-1.03-4.06-2.11-6.23-.01,0-6.93-.19-8.54,0,0,0-.22,1.99,0,2.38,0,0,2.69,2.49,3.15,3.5h0Z"/>
    <path class="cls-1" d="M136.56,19.86c-1.44,0-2.76.01-3.36.09,0,0-.22,1.99,0,2.38,0,0,2.69,2.49,3.15,3.5l.72.03c.15-1.8-.29-4.73-.5-6h-.01Z"/>
    <path d="M70.28,38.71c-.54,0-.98-.43-.99-.97l-.28-22.76c0-.54.43-.99.97-1h.01c.54,0,.98.43.99.97l.28,22.76c0,.54-.43.99-.97,1h-.01Z"/>
    <path d="M80.54,21.83h-5.55c-.54,0-.99-.44-.99-.99s.44-.99.99-.99h5.55c.54,0,.99.44.99.99s-.44.99-.99.99Z"/>
    <path d="M108,38.83c-.42,0-.82-.28-.94-.7l-7.12-23.8c-.16-.52.14-1.07.66-1.23s1.07.14,1.23.66l7.12,23.8c.16.52-.14,1.07-.66,1.23-.09.03-.19.04-.28.04h-.01Z"/>
    <path d="M47.18,38.71h-.1c-.54-.06-.93-.54-.88-1.08l2.47-23.86c.06-.54.53-.94,1.08-.88.54.06.93.54.88,1.08l-2.47,23.86c-.05.51-.48.88-.98.88h0Z"/>
    <path d="M48.19,21.45H8.58c-.54,0-.99-.44-.99-.99s.44-.99.99-.99h39.61c.54,0,.99.44.99.99s-.44.99-.99.99h0Z"/>
  </g>
</svg>