<?xml version="1.0" encoding="UTF-8"?>
<svg id="Layer_2" xmlns="http://www.w3.org/2000/svg" viewBox="0 0 97.04 103.15">
  <defs>
    <style>
      .cls-1 {
        fill: #351c14;
      }

      .cls-2 {
        fill: none;
        stroke: #351c14;
        stroke-linecap: round;
        stroke-linejoin: round;
        stroke-width: 2px;
      }

      .cls-3 {
        fill: #0bb;
      }

      .cls-4 {
        fill: #f1b11f;
      }
    </style>
  </defs>
  <g id="Layer_1-2" data-name="Layer_1">
    <g>
      <path class="cls-3" d="M94.58,71.99s-.02.01-.03.02h.03c-3.55,8.41-10.65,15.47-19.89,19.92,0,0-.01,0-.02.01,0,0,0,.01,0,.02v8.95l-9.5,1.68-8.76-1.68v-4.03s0-.01,0-.02c0,0,0-.01-.01-.02,0,0,0,0-.01,0s-.01,0-.02,0c-1.55.13-3.13.2-4.73.2s-3.17-.07-4.72-.2c0,0-.01,0-.02,0,0,0-.01,0-.02,0,0,0,0,0,0,.02,0,0,0,0,0,.02v3.99l-8.72,1.87-9.48-1.83v-8.95s0-.01,0-.02c0,0,0-.01-.02-.02-10.13-4.88-17.75-12.89-20.86-22.41,0,0,0-.01-.01-.02,0,0-.02,0-.03,0H.04s-.02,0-.03-.01c0,0-.01-.02-.01-.03v-18.12s0-.02.01-.03c0,0,.01-.01.03-.01h7.39s.02,0,.02,0c0,0,.01-.01.02-.02,2.93-10.17,10.98-18.72,21.78-23.74,0,0,.01,0,.02-.01,0,0,0-.01,0-.02l1.71-8.96c.11-.57.37-1.1.76-1.53.39-.43.89-.75,1.45-.91.56-.16,1.15-.17,1.71-.02.56.15,1.07.45,1.47.88l6.13,6.48s.01,0,.02,0c0,0,.02,0,.02,0,1.32-.22,2.64-.4,4-.51,0,0,8.69-.82,14.68.6,20.47,3.6,35.83,18.5,35.83,36.34,0,4.17-.84,8.29-2.47,12.13h0Z"/>
      <path d="M17.06,50.25c1.15,0,2.08-.93,2.08-2.08s-.93-2.08-2.08-2.08-2.08.93-2.08,2.08.93,2.08,2.08,2.08Z"/>
      <path class="cls-1" d="M28.68,100.89l18.2-.03v2.26s0,.02-.01.02c0,0-.02,0-.03,0h-18.12s-.02,0-.03,0c0,0-.01-.01-.01-.02v-2.23Z"/>
      <path class="cls-1" d="M56.41,100.89h18.25v2.23h0s0,.02-.01.02c0,0,0,0-.01,0h-18.21s0,0-.01,0c0,0,0,0-.01,0h0v-2.24Z"/>
    </g>
    <path class="cls-2" d="M70.34,30.88h-23.08"/>
    <path class="cls-4" d="M58.58,31.41c8.67,0,15.71-7.03,15.71-15.7S67.26,0,58.58,0s-15.71,7.03-15.71,15.71,7.03,15.7,15.71,15.7Z"/>
    <path d="M57.54,24.15c-1.61-.18-3.15-.72-4.52-1.58h0c-.16-.09-.29-.22-.4-.37-.11-.15-.18-.32-.22-.5-.04-.18-.04-.36,0-.54.03-.18.11-.35.21-.5.2-.28.5-.48.84-.54s.69.01.98.21h0c.95.66,2.03,1.1,3.17,1.3,0,0,0,0,.01,0,0,0,0,0,.02,0,0,0,0,0,0-.01,0,0,0-.01,0-.01v-4.67s0-.02,0-.02c0,0-.01-.01-.02-.01-3.5-.91-5.15-2.24-5.15-4.95v-.05c0-2.59,2.03-4.36,5.03-4.6.01,0,.02,0,.03-.01,0,0,.01-.02.01-.03v-1.3c0-.28.11-.54.31-.74.2-.2.47-.31.75-.31s.54.11.74.31c.19.2.31.46.31.74v1.33s0,.01,0,.02c0,0,.01.01.02.01,1.18.15,2.33.51,3.37,1.07h0c.31.18.53.47.62.81.09.34.05.71-.12,1.02-.17.3-.46.51-.79.6-.33.09-.69.04-.98-.13h0c-.68-.39-1.41-.68-2.17-.85h-.02s-.01,0-.01,0,0,0-.01.01c0,0,0,.01,0,.02v4.52s0,.01,0,.02c0,0,.01.01.02.01,3.64.91,5.21,2.38,5.21,4.98v.05c0,2.62-2.06,4.39-5.12,4.65,0,0-.01,0-.02.01,0,0-.01.01-.01.03v1.3c0,.28-.11.55-.31.74-.2.2-.47.31-.74.31s-.54-.11-.74-.31c-.2-.2-.31-.47-.31-.74v-1.3ZM57.62,9.79s0-.01,0-.02c0,0,0,0-.01-.01,0,0,0,0-.01,0,0,0-.01,0-.01,0-1.5.12-2.29.95-2.29,1.99v.05c0,.99.46,1.63,2.28,2.17,0,0,.01,0,.02,0,0,0,.01,0,.02,0,0,0,0,0,.01-.02,0,0,0-.01,0-.01v-4.15ZM61.92,19.69v-.05c0-1.04-.49-1.71-2.34-2.26,0,0-.01,0-.01,0,0,0-.01,0-.02,0,0,0,0,0-.01.02,0,0,0,.01,0,.01v4.29s0,.01,0,.01c0,0,0,0,.01.01,0,0,0,0,.01,0,0,0,.01,0,.02,0,1.5-.15,2.34-.89,2.34-2.05h0Z"/>
  </g>
</svg>