<?xml version="1.0" encoding="UTF-8"?><svg id="Layer_2" xmlns="http://www.w3.org/2000/svg" viewBox="0 0 74.54 84.98"><defs><style>.cls-1{fill:#221f20;}.cls-1,.cls-2,.cls-3,.cls-4,.cls-5{stroke-width:0px;}.cls-2{fill:#dc9927;}.cls-3{fill:#f2b11f;}.cls-4{fill:#ef4c35;}.cls-5{fill:#010101;}</style></defs><g id="Layer_1-2"><path class="cls-5" d="M43.83,23.89c-.55,0-1-.45-1-1v-10.95c0-5.48-4.46-9.95-9.95-9.95-5.48.03-9.95,4.5-9.95,9.95v10.95c0,.55-.45,1-1,1s-1-.45-1-1v-10.95C20.94,5.4,26.29.04,32.88,0c6.59,0,11.95,5.36,11.95,11.95v10.95c0,.55-.45,1-1,1Z"/><polygon class="cls-2" points="5.15 21.59 0 84.98 14.12 84.98 11.57 21.59 5.15 21.59"/><polygon class="cls-3" points="11.57 21.59 14.12 84.98 63.81 84.98 59.98 21.59 11.57 21.59"/><path class="cls-4" d="M60.38,27.45h3.05c3.05,0,5.81,1.25,7.81,3.26,2.05,2.01,3.3,4.76,3.3,7.86s-1.25,5.81-3.3,7.86c-2.01,2.01-4.76,3.26-7.81,3.26h-15.67v4.43c0,.63-.5,1.13-1.09,1.13-.25,0-.42-.08-.63-.17l-13.37-7.86c-.5-.29-.71-.96-.38-1.5.08-.17.21-.29.38-.38l13.41-7.86c.54-.29,1.21-.13,1.5.42.13.17.17.33.17.54v4.43h15.67c1.17,0,2.26-.46,3.05-1.25.79-.79,1.25-1.88,1.25-3.05s-.46-2.3-1.25-3.09c-.79-.75-1.88-1.25-3.05-1.25l-2.78.05-.27-6.82Z"/><path class="cls-1" d="M63.53,47.45h-15.77v-2h15.77c1.79,0,3.46-.69,4.71-1.93,1.25-1.25,1.93-2.92,1.93-4.71s-.69-3.54-1.93-4.79c-1.29-1.22-3.02-1.93-4.71-1.93l-2.97.02-.02-2,2.98-.02c2.21,0,4.44.91,6.12,2.5,1.64,1.65,2.54,3.85,2.54,6.22s-.9,4.5-2.52,6.13c-1.63,1.62-3.8,2.52-6.13,2.52Z"/></g></svg>