<?xml version="1.0" encoding="utf-8"?>
<!-- Generator: Adobe Illustrator 27.6.1, SVG Export Plug-In . SVG Version: 6.00 Build 0)  -->
<svg version="1.1" id="Layer_2_00000117668721473841057240000014551176485570018947_"
	 xmlns="http://www.w3.org/2000/svg" xmlns:xlink="http://www.w3.org/1999/xlink" x="0px" y="0px" viewBox="0 0 112.6 88"
	 style="enable-background:new 0 0 112.6 88;" xml:space="preserve">
<style type="text/css">
	.st0{fill:#F3B120;}
	.st1{fill:#231F20;}
	.st2{fill:#76CBCC;}
	.st3{fill:#2F1A14;}
	.st4{fill:#ECAA20;}
</style>
<g id="Layer_1-2">
	<path class="st0" d="M27.8,75.6l-1.5-0.1c-1.2-0.1-3.6-0.3-6.2-1.1L18.6,74l0.8-2.9l1.4,0.4c2.4,0.7,4.5,0.9,5.6,1l1.5,0.1
		L27.8,75.6L27.8,75.6z M31.9,75.5l0-3l9-0.2l0,3C40.9,75.3,31.9,75.5,31.9,75.5z M44.9,75.3l0-3l9-0.2l0,3L44.9,75.3z M57.9,75.1
		l0-3l9-0.2l0.1,3L57.9,75.1z M70.9,74.8l-0.1-3l9-0.2l0.1,3L70.9,74.8z M83.9,74.6l-0.1-3l9-0.2l0.1,3L83.9,74.6z M96.9,74.4
		l-0.1-3l3.6-0.1l0.1,3L96.9,74.4z M14.5,72.2l-1.2-0.9c-1.9-1.4-3.4-3.1-4.4-5L8.2,65l2.7-1.4l0.7,1.3c0.8,1.5,1.9,2.8,3.5,3.9
		l1.2,0.9L14.5,72.2L14.5,72.2z M10.3,60.4l-3-0.1l0-1.5c0.1-2.3,0.4-4.5,1.1-6.4L9,51l2.8,1.1l-0.5,1.4c-0.6,1.6-0.9,3.4-0.9,5.4
		L10.3,60.4z M13.7,49.5l-1.8-2.4l1.2-0.9c1.6-1.3,3.6-2.2,5.9-2.9l1.4-0.4l0.8,2.9l-1.4,0.4c-1.9,0.5-3.5,1.3-4.9,2.4L13.7,49.5
		L13.7,49.5z M28.4,45.5h-0.1c0,0-0.8-0.1-2.1-0.1h-1.5v-3h1.5c1.2,0,2,0.1,2.3,0.1l5.2-0.1l0.1,3L28.4,45.5L28.4,45.5z M37.8,45.3
		l-0.1-3l9-0.2l0.1,3L37.8,45.3z M50.8,45l-0.1-3l9-0.2l0.1,3L50.8,45z M63.8,44.7l-0.1-3l9-0.2l0.1,3L63.8,44.7z M89.8,44.5l-0.2-3
		l1.5-0.1c2-0.2,3.9-0.5,5.4-1.1l1.4-0.5l1.1,2.8l-1.4,0.5c-1.8,0.7-4,1.2-6.3,1.3L89.8,44.5L89.8,44.5z M76.8,44.5l-0.1-3l9-0.2
		l0.1,3L76.8,44.5z M102.9,39.6l-2.5-1.7l0.8-1.2c0.9-1.3,1.5-3,1.7-4.9l0.2-1.5l3,0.3l-0.2,1.5c-0.2,2.4-1,4.5-2.2,6.3L102.9,39.6
		L102.9,39.6z M102.8,27l-0.5-1.4c-0.6-1.6-1.6-3-3-4.1l-1.2-0.9l1.8-2.4l1.2,0.9c1.9,1.4,3.2,3.2,4.1,5.4l0.5,1.4
		C105.7,25.9,102.8,27,102.8,27z M95,19.5l-1.5-0.2c-1.2-0.2-2.5-0.3-3.9-0.3c-0.7,0-1.2,0-1.8,0.1l-1.5,0.1l-0.2-3l1.5-0.1
		c0.6,0,1.2-0.1,1.9-0.1c1.5,0,3,0.1,4.4,0.3l1.5,0.2L95,19.5L95,19.5z M82.3,19.2h-9v-3h9V19.2z M69.3,19.2h-9v-3h9V19.2z
		 M56.3,19.2h-9v-3h9V19.2z M43.3,19.2h-9v-3h9V19.2z M30.3,19.2h-9v-3h9V19.2z M17.3,19.2h-9v-3h9V19.2z"/>
	<path class="st1" d="M84.3,27c-2.1-0.2-4.1-0.9-5.9-2.1l0,0c-0.2-0.1-0.4-0.3-0.5-0.5c-0.1-0.2-0.2-0.4-0.3-0.6
		c-0.1-0.2-0.1-0.5,0-0.7c0-0.2,0.1-0.5,0.3-0.6c0.3-0.4,0.7-0.6,1.1-0.7s0.9,0,1.3,0.3l0,0c1.2,0.9,2.7,1.4,4.1,1.7c0,0,0,0,0,0
		c0,0,0,0,0,0c0,0,0,0,0,0c0,0,0,0,0,0v-6.1c0,0,0,0,0,0c0,0,0,0,0,0c-4.6-1.2-6.7-2.9-6.7-6.5V11c0-3.4,2.7-5.7,6.6-6c0,0,0,0,0,0
		c0,0,0,0,0,0V3.3c0-0.4,0.1-0.7,0.4-1s0.6-0.4,1-0.4s0.7,0.1,1,0.4c0.2,0.3,0.4,0.6,0.4,1V5c0,0,0,0,0,0c0,0,0,0,0,0
		c1.5,0.2,3,0.7,4.4,1.4l0,0c0.4,0.2,0.7,0.6,0.8,1.1c0.1,0.4,0.1,0.9-0.2,1.3c-0.2,0.4-0.6,0.7-1,0.8c-0.4,0.1-0.9,0.1-1.3-0.2l0,0
		C89,8.9,88,8.6,87,8.3h0c0,0,0,0,0,0s0,0,0,0c0,0,0,0,0,0v5.9c0,0,0,0,0,0c0,0,0,0,0,0c4.7,1.2,6.8,3.1,6.8,6.5v0.1
		c0,3.4-2.7,5.7-6.7,6.1c0,0,0,0,0,0c0,0,0,0,0,0v1.7c0,0.4-0.1,0.7-0.4,1s-0.6,0.4-1,0.4s-0.7-0.1-1-0.4s-0.4-0.6-0.4-1L84.3,27
		L84.3,27z M84.4,8.3L84.4,8.3C84.4,8.2,84.4,8.2,84.4,8.3C84.4,8.2,84.4,8.2,84.4,8.3C84.4,8.2,84.4,8.2,84.4,8.3
		c-2,0.1-3,1.2-3,2.6v0.1c0,1.3,0.6,2.1,3,2.8c0,0,0,0,0,0h0c0,0,0,0,0,0c0,0,0,0,0,0L84.4,8.3L84.4,8.3z M90,21.2L90,21.2
		c0-1.4-0.6-2.3-3.1-3c0,0,0,0,0,0c0,0,0,0,0,0s0,0,0,0c0,0,0,0,0,0v5.6c0,0,0,0,0,0c0,0,0,0,0,0c0,0,0,0,0,0h0
		C88.9,23.7,90,22.7,90,21.2L90,21.2L90,21.2z"/>
	<path class="st1" d="M34.6,84.9c-2.1-0.2-4.1-0.9-5.9-2.1l0,0c-0.2-0.1-0.4-0.3-0.5-0.5c-0.1-0.2-0.2-0.4-0.3-0.7
		c0-0.2,0-0.5,0-0.7c0-0.2,0.1-0.4,0.3-0.7c0.3-0.4,0.7-0.6,1.1-0.7s0.9,0,1.3,0.3l0,0c1.2,0.9,2.6,1.4,4.1,1.7c0,0,0,0,0,0
		c0,0,0,0,0,0c0,0,0,0,0,0c0,0,0,0,0,0v-6.1c0,0,0,0,0,0c0,0,0,0,0,0C30.2,74.3,28,72.5,28,69v-0.1c0-3.4,2.6-5.7,6.6-6c0,0,0,0,0,0
		c0,0,0,0,0,0v-1.7c0-0.4,0.1-0.7,0.4-1c0.3-0.3,0.6-0.4,1-0.4s0.7,0.2,1,0.4c0.2,0.3,0.4,0.6,0.4,1v1.7c0,0,0,0,0,0c0,0,0,0,0,0
		c1.5,0.2,3,0.7,4.4,1.4l0,0c0.4,0.2,0.7,0.6,0.8,1.1c0.1,0.4,0.1,0.9-0.2,1.3c-0.2,0.4-0.6,0.7-1,0.8c-0.4,0.1-0.9,0.1-1.3-0.2l0,0
		c-0.9-0.5-1.8-0.9-2.8-1.1h0c0,0,0,0,0,0s0,0,0,0c0,0,0,0,0,0v5.9c0,0,0,0,0,0c0,0,0,0,0,0c4.7,1.2,6.8,3.1,6.8,6.5v0.1
		c0,3.4-2.7,5.7-6.7,6.1c0,0,0,0,0,0c0,0,0,0,0,0v1.7c0,0.4-0.1,0.7-0.4,1c-0.3,0.3-0.6,0.4-1,0.4s-0.7-0.1-1-0.4
		c-0.3-0.3-0.4-0.6-0.4-1L34.6,84.9L34.6,84.9z M34.7,66.2L34.7,66.2C34.7,66.2,34.7,66.2,34.7,66.2C34.7,66.2,34.7,66.2,34.7,66.2
		C34.7,66.2,34.7,66.2,34.7,66.2c-2,0.1-3,1.2-3,2.6v0.1c0,1.3,0.6,2.1,3,2.8c0,0,0,0,0,0h0c0,0,0,0,0,0c0,0,0,0,0,0L34.7,66.2
		L34.7,66.2z M40.3,79.1L40.3,79.1c0-1.4-0.6-2.3-3-3c0,0,0,0,0,0c0,0,0,0,0,0s0,0,0,0c0,0,0,0,0,0v5.6c0,0,0,0,0,0c0,0,0,0,0,0
		c0,0,0,0,0,0h0C39.2,81.6,40.3,80.6,40.3,79.1L40.3,79.1L40.3,79.1z"/>
	<g id="Outline_Icons-3">
		<path class="st2" d="M111.6,65.2c0,5.1-7.3,14.9-10.3,18.7c-0.6,0.8-1.8,0.8-2.5,0c-3-3.8-10.3-13.6-10.3-18.7
			c0-6.4,5.2-11.6,11.6-11.6S111.6,58.8,111.6,65.2L111.6,65.2z"/>
		<path class="st3" d="M100,85.5c-0.8,0-1.5-0.4-2-1c-3.9-5-10.6-14.2-10.6-19.3c0-6.9,5.7-12.6,12.6-12.6s12.6,5.6,12.6,12.6
			c0,5.2-6.6,14.3-10.6,19.3C101.6,85.2,100.8,85.5,100,85.5L100,85.5L100,85.5z M100,54.6c-5.8,0-10.6,4.8-10.6,10.6
			c0,3.3,3.8,10.1,10.1,18.1c0.2,0.2,0.3,0.2,0.5,0.2l0,0c0.1,0,0.3,0,0.5-0.2c6.3-8,10.1-14.8,10.1-18.1
			C110.6,59.4,105.9,54.6,100,54.6L100,54.6z"/>
		<circle class="st4" cx="100" cy="65.2" r="4.3"/>
		<path class="st3" d="M100,70.5c-2.9,0-5.3-2.4-5.3-5.3s2.4-5.3,5.3-5.3s5.3,2.4,5.3,5.3C105.4,68.1,103,70.5,100,70.5z M100,61.8
			c-1.8,0-3.3,1.5-3.3,3.3s1.5,3.3,3.3,3.3s3.3-1.5,3.3-3.3S101.9,61.8,100,61.8z"/>
	</g>
	<g id="Outline_Icons-3-2">
		<path class="st2" d="M24.2,12.6c0,5.1-7.4,14.9-10.3,18.7c-0.6,0.8-1.9,0.8-2.5,0C8.4,27.5,1,17.7,1,12.6C1,6.2,6.2,1,12.6,1
			S24.2,6.2,24.2,12.6z"/>
		<path class="st3" d="M12.6,32.9L12.6,32.9c-0.8,0-1.5-0.4-2-1C6.6,26.9,0,17.8,0,12.6C0,5.6,5.7,0,12.6,0s12.6,5.6,12.6,12.6
			c0,5.2-6.6,14.4-10.6,19.4C14.1,32.6,13.4,32.9,12.6,32.9L12.6,32.9z M12.6,2C6.8,2,2,6.8,2,12.6c0,3.3,3.8,10.1,10.1,18.1
			c0.1,0.2,0.4,0.2,0.5,0.2l0,0c0.1,0,0.3,0,0.5-0.2c6.3-8,10.1-14.8,10.1-18.1C23.2,6.8,18.4,2,12.6,2L12.6,2z"/>
		<circle class="st4" cx="12.6" cy="12.6" r="4.3"/>
		<path class="st3" d="M12.6,17.9c-2.9,0-5.3-2.4-5.3-5.3s2.4-5.3,5.3-5.3s5.3,2.4,5.3,5.3S15.5,17.9,12.6,17.9z M12.6,9.2
			c-1.8,0-3.3,1.5-3.3,3.3s1.5,3.3,3.3,3.3s3.3-1.5,3.3-3.3S14.4,9.2,12.6,9.2z"/>
	</g>
</g>
</svg>
