<?xml version="1.0" encoding="UTF-8"?><svg id="Layer_2" xmlns="http://www.w3.org/2000/svg" xmlns:xlink="http://www.w3.org/1999/xlink" viewBox="0 0 77.92 103.81"><defs><style>.cls-1{clip-path:url(#clippath);}.cls-2{fill:none;}.cls-2,.cls-3,.cls-4,.cls-5,.cls-6,.cls-7{stroke-width:0px;}.cls-3{fill:#dc9927;}.cls-4{fill:#f2b11f;}.cls-5{fill:#fff;}.cls-6{fill:#00b3b2;}.cls-7{fill:#010101;}</style><clipPath id="clippath"><polygon class="cls-2" points="58.47 103.81 17.24 103.81 15.75 66.46 58.42 66.81 58.47 103.81"/></clipPath></defs><g id="Layer_1-2"><path class="cls-7" d="M53.52,29.17c-.67,0-1.22-.55-1.22-1.22v-13.37c0-6.7-5.45-12.14-12.14-12.14-6.69.04-12.14,5.49-12.14,12.14v13.37c0,.67-.55,1.22-1.22,1.22s-1.22-.55-1.22-1.22v-13.37C25.57,6.59,32.11.05,40.15,0c8.05,0,14.59,6.54,14.59,14.59v13.37c0,.67-.55,1.22-1.22,1.22Z"/><polygon class="cls-3" points="6.28 26.36 0 103.78 17.24 103.78 14.13 26.36 6.28 26.36"/><polygon class="cls-4" points="14.13 26.36 17.24 103.78 77.92 103.78 73.25 26.36 14.13 26.36"/><g class="cls-1"><g id="Roadie_Circle_R_Icon_BLK"><path class="cls-6" d="M31.66,115.85c-12.43,0-22.48-10.1-22.48-22.58.05-12.43,10.1-22.53,22.48-22.53s22.48,10.1,22.48,22.58-10.05,22.53-22.48,22.53"/><path class="cls-5" d="M41.51,89.4s.74-6.54-8.62-6.54h-10s-.35,0-.35.35v9.71h-13.37v.45c0,.54.05,1.04.05,1.58h26.59c3.27-.1,5.69-1.78,5.69-5.55M35.82,90.24c0,1.58-1.19,2.58-3.22,2.58h-3.66s-.35,0-.35-.35v-4.61s0-.35.35-.35h3.61c2.03,0,3.27.89,3.27,2.58v.15Z"/><path class="cls-5" d="M22.89,104.21h5.4s.35,0,.35-.35v-5.99s0-.25.2-.3h2.43s.1.1.2.25l4.01,6.09s.2.25.5.25h6.64l-5.2-7.18h0l-.2-.3c-.79-.99-1.93-1.04-2.23-1.09H9.32c.05.69.15,1.34.3,2.03h12.92v6.29s.05.3.35.3"/></g></g></g></svg>