<?xml version="1.0" encoding="utf-8"?>
<!-- Generator: Adobe Illustrator 27.6.1, SVG Export Plug-In . SVG Version: 6.00 Build 0)  -->
<svg version="1.1" id="Layer_2_00000180343964654180928690000009090396735929829262_"
	 xmlns="http://www.w3.org/2000/svg" xmlns:xlink="http://www.w3.org/1999/xlink" x="0px" y="0px" viewBox="0 0 87 108.6"
	 style="enable-background:new 0 0 87 108.6;" xml:space="preserve">
<style type="text/css">
	.st0{fill:#351C14;}
	.st1{fill:#DC9927;}
	.st2{fill:#F2B11F;}
	.st3{fill:#F1B11F;}
</style>
<g id="Layer_1-2">
	<path class="st0" d="M71.4,48.5c-0.6,0-1-0.5-1-1V20.4c0-10.1-7-18.4-15.7-18.4S39,10.2,39,20.4v27.1c0,0.5-0.5,1-1,1s-1-0.5-1-1
		V20.4C37,9.1,45,0,54.7,0s17.7,9.1,17.7,20.4v27.1C72.4,48,71.9,48.5,71.4,48.5z"/>
	<path class="st0" d="M53.2,48.5c-0.5,0-1-0.5-1-1V20.4c0-10.1-7-18.4-15.7-18.4s-15.7,8.2-15.7,18.4v27.1c0,0.5-0.5,1-1,1
		s-1-0.5-1-1V20.4C18.9,9.1,26.9,0,36.6,0s17.7,9.1,17.7,20.4v27.1C54.2,48,53.8,48.5,53.2,48.5z"/>
	<path class="st1" d="M24.6,33.4H0.2v75.1h24.4L24.6,33.4L24.6,33.4z"/>
	<path class="st2" d="M87,33.4H22.5v75.1H87V33.4z"/>
	<path class="st3" d="M21.2,108.6c-0.5,0-1-0.2-1.2-0.7l-9.5-14.1c-0.2-0.2-0.2-0.5-0.2-0.8v-58c0-0.8,0.7-1.5,1.5-1.5
		s1.5,0.7,1.5,1.5v57.5l9.2,13.8c0.5,0.7,0.3,1.6-0.4,2.1C21.8,108.5,21.5,108.5,21.2,108.6L21.2,108.6z"/>
	<path class="st3" d="M1.5,108.6c-0.3,0-0.6-0.1-0.9-0.3c-0.7-0.5-0.8-1.4-0.3-2.1L10.6,92c0.5-0.7,1.4-0.8,2.1-0.3
		c0.7,0.5,0.8,1.4,0.3,2.1L2.7,107.9C2.4,108.4,2,108.6,1.5,108.6L1.5,108.6z"/>
</g>
</svg>
