<?xml version="1.0" encoding="utf-8"?>
<!-- Generator: Adobe Illustrator 27.6.1, SVG Export Plug-In . SVG Version: 6.00 Build 0)  -->
<svg version="1.1" id="Layer_2_00000182489122573764490660000011601394475445694861_"
	 xmlns="http://www.w3.org/2000/svg" xmlns:xlink="http://www.w3.org/1999/xlink" x="0px" y="0px" viewBox="0 0 64.6 85.1"
	 style="enable-background:new 0 0 64.6 85.1;" xml:space="preserve">
<style type="text/css">
	.st0{fill:#010101;}
	.st1{fill:#DC9927;}
	.st2{fill:#F2B11F;}
	.st3{fill:#FFFFFF;}
</style>
<g id="Layer_1-2">
	<path class="st0" d="M45.6,23.9c-0.5,0-1-0.5-1-1V11.9c0-5.5-4.5-9.9-10-9.9c-5.5,0-10,4.5-10,9.9v10.9c0,0.5-0.5,1-1,1s-1-0.5-1-1
		V11.9C22.7,5.4,28.1,0,34.7,0c6.6,0,12,5.4,12,11.9v10.9C46.6,23.4,46.2,23.9,45.6,23.9L45.6,23.9z"/>
	<polygon class="st1" points="5.2,20.9 0,85.1 14.3,85.1 11.7,20.9 	"/>
	<polygon class="st2" points="11.7,20.9 14.3,85.1 64.6,85.1 60.7,20.9 	"/>
	<polygon class="st3" points="47.8,44.9 47,31.1 25.1,31.1 25.7,44.9 	"/>
	<path class="st0" d="M47.8,45.9H25.7c-0.5,0-1-0.4-1-1l-0.6-13.8c0-0.3,0.1-0.5,0.3-0.7s0.5-0.3,0.7-0.3H47c0.5,0,1,0.4,1,0.9
		l0.8,13.8c0,0.3-0.1,0.5-0.3,0.8C48.4,45.8,48.1,45.9,47.8,45.9z M26.7,43.9h20.1L46,32.1H26.2L26.7,43.9L26.7,43.9z"/>
	<path class="st0" d="M43,35.6h-13c-0.5,0-1-0.5-1-1s0.5-1,1-1h13c0.5,0,1,0.5,1,1S43.5,35.6,43,35.6z"/>
	<path class="st0" d="M43,39h-13c-0.5,0-1-0.5-1-1s0.5-1,1-1h13c0.5,0,1,0.5,1,1S43.5,39,43,39z"/>
	<path class="st0" d="M43,42.3h-13c-0.5,0-1-0.5-1-1s0.5-1,1-1h13c0.5,0,1,0.5,1,1S43.5,42.3,43,42.3z"/>
</g>
</svg>
