<?xml version="1.0" encoding="UTF-8"?>
<svg id="Layer_2" data-name="Layer 2" xmlns="http://www.w3.org/2000/svg" viewBox="0 0 142.51 145.26">
  <defs>
    <style>
      .cls-1, .cls-2 {
        fill: #351c14;
      }

      .cls-3 {
        opacity: .2;
      }

      .cls-3, .cls-4 {
        isolation: isolate;
      }

      .cls-5, .cls-2, .cls-6, .cls-7, .cls-8, .cls-9 {
        fill-rule: evenodd;
      }

      .cls-5, .cls-10 {
        fill: #fff;
      }

      .cls-11 {
        fill: #008383;
      }

      .cls-12 {
        fill: #0bb;
      }

      .cls-6 {
        fill: #e54c37;
      }

      .cls-13 {
        fill: #004f50;
      }

      .cls-7, .cls-14 {
        fill: #f04c35;
      }

      .cls-8 {
        fill: #58595b;
      }

      .cls-15 {
        fill: #9ad7d8;
      }

      .cls-16 {
        fill: #f1b11f;
      }

      .cls-9 {
        fill: #c1c7c7;
      }

      .cls-4 {
        fill: #231f20;
        opacity: .5;
      }
    </style>
  </defs>
  <g id="Layer_1-2" data-name="Layer 1">
    <circle class="cls-12" cx="45.02" cy="89.67" r="45.02"/>
    <circle class="cls-13" cx="97.49" cy="45.02" r="45.02"/>
    <g>
      <g>
        <path class="cls-2" d="M26.56,64.97h-1.09c-.21,0-.41-.18-.42-.39l-.23-2.13h2.4l-.23,2.13c-.04.21-.21.39-.42.39Z"/>
        <rect class="cls-10" x="25.47" y="64.97" width="1.09" height="39.43"/>
        <path class="cls-8" d="M26.56,104.41h-1.09c-.21,0-.41.18-.42.39v18.46c.02.21.21.39.42.39h1.09c.21,0,.41-.18.42-.39v-18.47c-.04-.21-.21-.37-.42-.37Z"/>
        <path class="cls-9" d="M27.22,62.47h-2.4v-4.6c0-.74-.18-.97-.83-1.09-1.48-.28-4.14-.95-7.12-2.54-1.59-.85-1.85-1.82-1.08-3.37.97-1.94,2.66-3.95,4.9-2.54,3.26,2.04,6.52,5.32,6.52,9.38v4.76Z"/>
        <g>
          <path class="cls-8" d="M23.14,52.56l-1.32-1.32c-.05-.05.02-.12.07-.07l1.32,1.32c.07.05-.02.12-.07.07h0ZM24.31,54.94c.05.05.12-.02.07-.07l-5.17-5.17c-.05-.05-.12.02-.07.07l5.17,5.17h0ZM18.61,50.39c-.05-.05-.12.04-.07.07.72.74,3.47,3.47,4.2,4.2h0c.05.05.12-.04.07-.07l-4.2-4.2ZM20.92,54.31c-.72-.72-2.38-2.38-3.12-3.12-.05-.05.02-.12.07-.07.72.72,2.38,2.38,3.12,3.12.07.04-.02.12-.07.07h0ZM18.75,53.5c.05.05.12-.04.07-.07-.72-.74-.88-.88-1.6-1.6-.05-.05-.12.02-.07.07.72.72.86.86,1.6,1.6Z"/>
          <path class="cls-1" d="M24.34,55.03s-.07-.02-.09-.04l-5.17-5.17s-.05-.09-.04-.12c.02-.05.05-.09.11-.11s.09,0,.12.04l5.15,5.17c.05.05.05.14,0,.19-.02.02-.05.04-.09.04ZM22.79,54.77s-.07-.02-.09-.04c-.74-.72-3.47-3.47-4.2-4.2-.04-.04-.04-.07-.04-.11s.02-.07.04-.09c.02-.02.05-.04.09-.04s.07.02.11.04l4.2,4.2c.05.05.05.14,0,.19-.05.02-.09.04-.11.04ZM20.97,54.4s-.07-.02-.09-.04l-3.12-3.12s-.04-.07-.04-.11.02-.07.04-.09c.05-.05.14-.05.19,0l3.12,3.12c.05.05.05.14,0,.19-.05.02-.09.04-.11.04ZM18.79,53.58s-.07-.02-.09-.04l-1.6-1.6c-.05-.05-.05-.14,0-.19s.14-.05.19,0l1.6,1.6c.05.05.05.14,0,.19-.04.02-.07.04-.11.04ZM23.18,52.67s-.07-.02-.09-.04l-1.32-1.32c-.05-.05-.05-.14,0-.19s.14-.05.19,0l1.32,1.32c.05.05.05.14,0,.19-.04.02-.05.04-.11.04.02,0,0,0,0,0Z"/>
        </g>
      </g>
      <g>
        <path class="cls-9" d="M31.99,51.72h2.4v-5.22c0-1.18.63-1.11,1.45-1.08,1.87.07,6.28.11,9.22-1.06,3.3-1,1.66-8.44-3.24-7.02-3.26.95-9.82,3.79-9.82,8.9v5.46Z"/>
        <path class="cls-2" d="M32.64,54.22h1.09c.21,0,.41-.18.42-.39l.23-2.13h-2.4l.23,2.13c.02.21.21.39.42.39Z"/>
        <rect class="cls-10" x="32.64" y="54.22" width="1.09" height="50.19"/>
        <path class="cls-8" d="M32.64,104.41h1.09c.21,0,.41.18.42.39v18.46c-.02.21-.21.39-.42.39h-1.09c-.21,0-.41-.18-.42-.39v-18.47c.02-.21.21-.37.42-.37Z"/>
      </g>
      <g>
        <path class="cls-9" d="M30.79,43.25h-2.4v-5.22c0-.44-.07-.9-.55-1.04-1.5-.46-3.08-1.15-4.67-2.04-2.13-1.23-3.91-2.68-5.24-4.18-.88-.99-.55-1.97.49-2.52,3.54-1.85,8.57.97,11.05,3.79,1.39,1.57,1.27,2.54,1.27,4.81v6.4h.04Z"/>
        <path class="cls-2" d="M30.14,45.76h-1.09c-.21,0-.41-.18-.42-.39l-.23-2.12h2.4l-.23,2.12c-.02.23-.21.39-.42.39Z"/>
        <rect class="cls-10" x="29.05" y="45.76" width="1.09" height="58.63"/>
        <path class="cls-8" d="M30.14,104.41h-1.09c-.21,0-.41.18-.42.39v18.46c.02.21.21.39.42.39h1.09c.21,0,.41-.18.42-.39v-18.47c-.02-.21-.21-.37-.42-.37Z"/>
      </g>
      <path class="cls-2" d="M36.75,70.75c1.09,2.08,2.1,4.21,3.07,6.35,1.3,2.93,2.52,5.91,3.58,8.94,1.46,4.27,5.71,19.04-1.22,20.48v-1.82c5.8-5.66-2.29-25.07-5.76-32.4v-2.22l.33.67Z"/>
      <path class="cls-6" d="M22.01,116.52h14.05v6.66c0,.42-3.14.76-7.03.76s-7.03-.33-7.03-.76v-6.66h.02Z"/>
      <path class="cls-5" d="M42.75,102.43v12.22c0,1.02-.85,1.87-1.87,1.87h-18.86c-3.53,0-6.43-2.89-6.43-6.43v-16.39c0-4.3,1.94-13.91,6.12-17.7v-7.25c0-.49,3.38-.88,7.56-.88s7.56.41,7.56.88v26.76l5.18,5.18c.62.6.74.9.74,1.75Z"/>
      <path class="cls-2" d="M19.51,106.89v3.21c0,1.37,1.15,2.52,2.52,2.52h3.26c.74,0,1.34-.53,1.48-1.23.16-1.16.35-2.38.6-3.6.42-2.08-.39-2.7-2.29-2.7h-3.77c-.99-.02-1.8.79-1.8,1.8Z"/>
      <path class="cls-7" d="M21.72,76.01v-7.26c0-.49,3.38-.88,7.56-.88s7.56.41,7.56.88v26.76l5.18,5.18c.6.6.72.9.72,1.75v12.22c0,1.02-.85,1.87-1.87,1.87h-12.32c.39-5.18,1.45-13.84,5.2-18.51v-12.52c0-4.16-2.77-8.46-7.19-8.67-2.84-.12-4.85-.44-4.85-.81Z"/>
      <path class="cls-2" d="M36.63,99.75c-.07-.05-.16-.05-.21,0-2.71,3.08-3.84,9.31-4.34,13.31-.02.14,0,.28.18.28h7.17c.11,0,.19-.09.19-.19v-10.22c0-.19.04-.19-.11-.32l-2.89-2.86Z"/>
      <rect class="cls-1" x="22.01" y="116.52" width="14.05" height="1.71"/>
      <path class="cls-2" d="M21.72,70.91v-2.17c0-.49,3.38-.88,7.56-.88s7.56.41,7.56.88v2.17c0-.49-3.38-.88-7.56-.88s-7.56.39-7.56.88Z"/>
    </g>
    <g>
      <path class="cls-12" d="M97.93,114.64l7.01-24.59,8.12-28.49,6.38-22.36c-5.21,0-15.72,3.19-21.04,3.16-5.55-.03-22.38-4.74-21.98-3.16l6.23,21.88,5.08,18.33,3.87,13.14,6.29,22.09"/>
      <path d="M76.46,39.22l21.45,16.04,21.49-16.04s0,0,0,0c0,0,0,0,0,0s0,0,0,0c0,0,0,0,0,0h-42.91s0,0,0,0c0,0,0,0,0,0h0s0,.02,0,.02Z"/>
      <path d="M114.17,58.44h-32.48c-.43,0-.77-.34-.77-.77s.34-.77.77-.77h32.48c.43,0,.77.34.77.77s-.34.77-.77.77Z"/>
      <path class="cls-14" d="M122.45,30.29l-12.22,11.73s0,0,0,0c0,0,0,0-.01,0,0,0,0,0,0,0,0,0,0,0,0,0l-.49-16.91c-.02-.63.09-1.25.34-1.83h0c.46-1.1,1.33-1.98,2.43-2.44,1.1-.47,2.34-.48,3.45-.04l5.15,2.1c1.1.46,1.98,1.34,2.44,2.43.47,1.1.48,2.34.04,3.45h0c-.29.56-.66,1.08-1.11,1.53Z"/>
      <path d="M122.11,30.82c-.24,0-.47-.11-.62-.32-.39-.54-.97-.91-1.62-1.03-.64-.11-1.32.03-1.89.39-.28.18-.65.16-.9-.06-.26-.21-.35-.57-.22-.88.1-.26.1-.54-.01-.8-.13-.3-.39-.55-.74-.68-.27-.11-.58-.11-.85,0-.27.11-.49.33-.6.6-.13.31-.42.5-.77.48-.33-.02-.61-.26-.69-.58-.16-.66-.56-1.23-1.11-1.62-.54-.38-1.21-.52-1.87-.41-.42.08-.82-.21-.89-.62-.07-.42.21-.82.62-.89,1.06-.19,2.13.05,3.02.66.48.34.88.76,1.18,1.25.16-.11.32-.2.5-.28.64-.27,1.37-.28,2.02-.02.73.29,1.29.82,1.58,1.5.07.16.12.33.16.5.56-.14,1.15-.16,1.73-.06,1.05.2,1.97.78,2.59,1.64.25.34.17.82-.17,1.07-.14.1-.29.15-.45.15Z"/>
      <path d="M117.68,29.09c-.16,0-.32-.05-.46-.15-.34-.25-.41-.74-.16-1.08,2.05-2.74,4.78-4.93,7.9-6.33.39-.18.84,0,1.02.39.17.39,0,.84-.39,1.02-2.88,1.3-5.41,3.32-7.3,5.85-.15.2-.38.31-.62.31Z"/>
      <path d="M114.23,28.05s-.07,0-.11,0c-.42-.06-.71-.45-.65-.87.45-3.12.02-6.8-1.12-9.61-.16-.39.03-.84.42-1,.39-.16.84.03,1,.42,1.25,3.09,1.71,6.98,1.22,10.41-.05.38-.38.66-.76.66Z"/>
      <path d="M113.06,18.83c.86,0,1.56-.7,1.56-1.57s-.7-1.57-1.56-1.57-1.57.7-1.57,1.57.7,1.57,1.57,1.57Z"/>
      <path d="M125.27,23.83c.86,0,1.57-.7,1.57-1.56s-.7-1.57-1.57-1.57-1.57.7-1.57,1.57.7,1.56,1.57,1.56Z"/>
      <path d="M119.78,19.86c.86,0,1.57-.7,1.57-1.57s-.7-1.56-1.57-1.56-1.56.7-1.56,1.56.7,1.57,1.56,1.57Z"/>
      <path d="M114.62,35.02c-.13,0-.27-.03-.39-.1-.37-.21-.49-.69-.28-1.05l2.94-5.04c.21-.37.69-.49,1.05-.28.37.21.49.69.28,1.05l-2.94,5.04c-.14.24-.4.38-.67.38Z"/>
      <path d="M112.45,34.11c-.07,0-.13,0-.2-.03-.41-.11-.65-.53-.54-.94l1.49-5.57c.11-.41.53-.65.94-.54.41.11.65.53.54.94l-1.49,5.57c-.09.34-.4.57-.74.57Z"/>
      <path d="M116.35,27.49c-.1,0-.2-.02-.29-.06-.39-.16-.58-.61-.42-1l3.35-8.16c.16-.39.61-.58,1-.42.39.16.58.61.42,1l-3.35,8.16c-.12.3-.41.48-.71.48Z"/>
      <path class="cls-16" d="M90.96,24.21c-.92-.75-2.11-1.11-3.29-1-1.19.11-2.28.69-3.04,1.61l-2.79,3.4-1.6-3.36c-.53-1.07-1.45-1.89-2.58-2.28-1.13-.39-2.36-.31-3.44.2-1.07.52-1.9,1.44-2.29,2.57-.4,1.13-.33,2.36.18,3.44l1.6,3.36-4.35.08c-1.19.03-2.32.52-3.15,1.38-.83.86-1.28,2.01-1.26,3.2.02,1.19.51,2.33,1.37,3.16.85.83,2,1.29,3.19,1.27l4.43-.08-.84,4.39c-.22,1.17.03,2.39.7,3.38.67.99,1.71,1.67,2.88,1.89,1.18.22,2.39-.03,3.38-.7.99-.67,1.67-1.71,1.89-2.88l1.18-6.07,5.5,2.86c.52.28,1.1.45,1.69.51.59.06,1.19,0,1.76-.18.57-.18,1.09-.46,1.55-.84.46-.38.83-.85,1.11-1.37.28-.53.44-1.1.49-1.69.05-.59-.02-1.19-.2-1.75-.18-.57-.47-1.09-.85-1.54s-.85-.83-1.38-1.09l-3.97-2.1,2.83-3.43c1.53-1.87,1.22-4.74-.69-6.3Z"/>
      <path class="cls-10" d="M84.43,33.6c-.4-.82-1.03-1.5-1.81-1.96-.79-.46-1.69-.68-2.6-.63-.91.05-1.78.37-2.51.92-.73.55-1.27,1.3-1.57,2.16-.3.86-.34,1.79-.11,2.67.23.88.71,1.67,1.39,2.28.68.61,1.52,1,2.43,1.12.9.12,1.82-.02,2.64-.42.54-.26,1.03-.63,1.43-1.08s.71-.98.91-1.55c.2-.57.28-1.18.25-1.78-.04-.6-.19-1.19-.45-1.74h0Z"/>
      <path class="cls-16" d="M109.31,38.75c0,6.41-4.64,7.48-11.05,7.48s-6.89-3.08-6.89-9.49l-3.6-9.11v-.12l22.98-.04v.28s-1.44,10.99-1.44,10.99Z"/>
      <path class="cls-10" d="M106.55,31.87c-1.37-1.18-4.12-1.45-5.35-.15-.22-.28-.5-.52-.83-.68-.32-.16-.68-.24-1.04-.24-.36,0-.72.1-1.04.26-.32.17-.61.4-.83.69-1.38-1.22-3.86-.95-5.04.46l-.38,1.53,7.25,6.84,7.44-7.41-.19-1.31Z"/>
      <path class="cls-12" d="M106.22,47.16c.28.28,1.14.32,1.32.13,1.08-1.07,1.94-2.34,2.52-3.74.58-1.4.88-2.91.88-4.42l-.19-11.6s0,0,0-.01c0,0,0,0,0,0,0,0,0,0-.01,0,0,0,0,0,0,0l-11.35,11.61-.34,1.21,7.19,6.83Z"/>
      <path class="cls-14" d="M99.33,50.69c1.52,0,3.03-.3,4.44-.88,1.41-.58,2.69-1.44,3.76-2.52l-19.74-19.74s0,0,0,0c0,0,0,0-.01,0,0,0,0,0,0,0,0,0,0,0,0,0v11.56c-.04,6.37,5.15,11.56,11.57,11.56Z"/>
      <path d="M98.07,34.51c-.35,0-.66-.24-.75-.59-.68-2.83-1.91-5.45-3.65-7.77-.25-.34-.18-.82.16-1.08.34-.26.82-.18,1.08.16,1.87,2.5,3.18,5.3,3.91,8.33.1.41-.16.83-.57.93-.06.01-.12.02-.18.02Z"/>
      <path d="M100.86,34.51c-.06,0-.12,0-.18-.02-.41-.1-.67-.51-.57-.93.72-3.03,2.04-5.83,3.91-8.34.25-.34.74-.41,1.08-.16.34.25.41.74.16,1.08-1.75,2.34-2.97,4.95-3.65,7.77-.08.35-.4.59-.75.59Z"/>
      <path d="M94.03,26.49c.86,0,1.57-.7,1.57-1.57s-.7-1.57-1.57-1.57-1.56.7-1.56,1.57.7,1.57,1.56,1.57Z"/>
      <path d="M104.94,26.49c.86,0,1.57-.7,1.57-1.57s-.7-1.57-1.57-1.57-1.57.7-1.57,1.57.7,1.57,1.57,1.57Z"/>
    </g>
    <g>
      <circle class="cls-11" cx="93.14" cy="110.73" r="34.54"/>
      <g>
        <rect class="cls-15" x="73.22" y="93.22" width="40.86" height="25.53"/>
        <path class="cls-12" d="M83.63,132.97c-.51,0-.93-.4-.93-.93s.4-.93.93-.93h3.66v-8.79c0-1.45,1.18-2.62,2.63-2.62h7.09c1.45,0,2.62,1.18,2.62,2.62v8.01c0,1.45-1.18,2.62-2.62,2.62l-13.38.02Z"/>
        <path class="cls-12" d="M99.64,122.34v8c0,.28-.05.54-.12.79h-12.22v-8.79c0-1.45,1.18-2.62,2.62-2.62h7.09c1.46,0,2.63,1.18,2.63,2.62Z"/>
        <path class="cls-3" d="M97.01,119.73h-7.09c-1.45,0-2.63,1.18-2.63,2.63v4.43l12.35,3.17v-7.6c-.02-1.45-1.19-2.62-2.64-2.62Z"/>
        <path class="cls-12" d="M74.92,125.37c-2.43,0-4.42-1.98-4.42-4.42v-25.82c0-2.43,1.98-4.4,4.42-4.4h37.11c2.43,0,4.4,1.97,4.4,4.4v25.83c0,2.43-1.98,4.42-4.42,4.42h-37.1ZM76.79,94.68c-1.29,0-2.33,1.05-2.33,2.33v20.49h38.04v-20.5c0-1.29-1.05-2.33-2.34-2.33h-33.37Z"/>
        <path class="cls-4" d="M93.47,123.07c-.91,0-1.64-.73-1.64-1.64s.73-1.64,1.64-1.64,1.64.73,1.64,1.64-.73,1.64-1.64,1.64Z"/>
        <path d="M93.47,93.48c-.43,0-.77-.35-.77-.77s.35-.77.77-.77.77.35.77.77-.33.77-.77.77Z"/>
        <path d="M99.64,126.11h-12.36c-.27,0-.48-.21-.48-.48s.21-.48.48-.48h12.36c.27,0,.48.21.48.48s-.21.48-.48.48Z"/>
        <path d="M83.74,133.03c-.27,0-.49-.22-.49-.5s.22-.5.49-.5h12.99c.1,0,1.89-.01,2.06-1.42.03-.27.27-.47.54-.43.27.03.46.28.43.55-.22,1.84-2.09,2.28-3.04,2.29h-12.98Z"/>
      </g>
    </g>
  </g>
</svg>