<?xml version="1.0" encoding="UTF-8"?><svg id="Layer_2" xmlns="http://www.w3.org/2000/svg" viewBox="0 0 110.14 110.38"><defs><style>.cls-1{fill:#0bb;}.cls-2{fill:#333;}</style></defs><g id="Layer_1-2"><path class="cls-1" d="m110.14,55.12c.05-1.26-.43-2.47-1.33-3.41-.93-.97-2.24-1.53-3.59-1.53h-2.12l.69-.69c.97-.98,1.52-2.33,1.51-3.72-.02-1.35-.54-2.58-1.49-3.48-1.96-1.89-5.01-1.85-6.95.07l-6.88,6.88c.02-.18.03-.37.02-.55-.01-1.35-.54-2.59-1.49-3.49-1.97-1.89-5.02-1.85-6.95.08l-4.9,4.9h-9.75l6.79-6.79,7.04-.05c2.71,0,4.92-2.23,4.92-4.97,0-1.33-.55-2.63-1.51-3.55-.04-.04-.09-.08-.14-.13l9.61-.09c1.37,0,2.69-.58,3.61-1.6.94-1.04,1.41-2.44,1.28-3.86-.23-2.49-2.42-4.44-5.03-4.44h-1.05s1.39-1.38,1.39-1.38c.97-.97,1.52-2.33,1.51-3.72-.01-1.35-.54-2.58-1.49-3.49-1.96-1.88-5.01-1.85-6.95.08l-1.49,1.49v-1.05c0-2.34-1.61-4.41-3.84-4.93-1.5-.35-3.03,0-4.23.95-1.2.95-1.88,2.37-1.88,3.89v9.62c-.67-.8-1.59-1.39-2.64-1.64-1.5-.34-3.04,0-4.23.95-1.2.95-1.88,2.37-1.88,3.89v6.93l-6.9,6.9v-9.64l4.89-5c1.92-1.92,1.92-4.99,0-6.97-.9-.93-2.13-1.45-3.45-1.46-.14,0-.27,0-.41.01l6.72-6.86c1.92-1.92,1.9-5.07-.06-7.03-1.92-1.92-5.07-1.9-7.04.07l-.77.78v-2.04c0-2.34-1.61-4.42-3.84-4.93-1.49-.34-3.03,0-4.23.95-1.2.95-1.88,2.37-1.88,3.89v2.12l-.69-.69c-.98-.97-2.31-1.49-3.73-1.51-1.35.02-2.58.55-3.48,1.49-1.89,1.96-1.86,5.01.07,6.95l6.88,6.88c-.18-.02-.37-.02-.55-.02-1.35.01-2.59.54-3.49,1.49-1.88,1.96-1.85,5.01.08,6.95l4.9,4.89v9.75l-7.09-7.09-.05-7.04c0-2.67-2.2-4.88-4.9-4.92-1.31,0-2.52.49-3.46,1.42h0s-.09-9.09-.09-9.09c0-1.33-.55-2.63-1.51-3.55-.96-.92-2.21-1.4-3.46-1.36-2.71,0-4.92,2.23-4.92,5v1.05s-1.38-1.39-1.38-1.39c-.97-.97-2.34-1.51-3.72-1.51-1.35.01-2.58.54-3.49,1.49-1.88,1.96-1.85,5.02.08,6.95l1.48,1.48h-.69c-2.34,0-4.42,1.61-4.93,3.84-.34,1.49,0,3.03.95,4.23.95,1.2,2.37,1.88,3.89,1.88h9.07c-.67.64-1.16,1.47-1.38,2.4-.34,1.5,0,3.04.95,4.23.95,1.2,2.37,1.88,3.89,1.88h6.93l7.14,7.14h-10.05l-5-4.9c-1.93-1.92-4.99-1.92-6.97,0-.91.89-1.43,2.08-1.46,3.38l-6.32-6.42c-.95-.95-2.21-1.42-3.55-1.43-1.3.03-2.54.55-3.47,1.49-1.92,1.92-1.9,5.07.07,7.04l.79.78h-2.04c-2.34,0-4.41,1.61-4.93,3.84-.34,1.49,0,3.04.95,4.23.95,1.2,2.37,1.88,3.89,1.88h2.12l-.69.69c-.98.98-1.53,2.35-1.51,3.75.03,1.36.58,2.61,1.55,3.51.92.86,2.12,1.33,3.37,1.33,1.32,0,2.57-.52,3.51-1.46l6.5-6.5c0,.07,0,.14,0,.21.03,1.36.58,2.61,1.55,3.51.92.85,2.12,1.33,3.37,1.33,1.32,0,2.57-.52,3.51-1.46l4.89-4.89h10.16l-7.09,7.09-7.04.05c-2.71,0-4.92,2.23-4.92,4.97,0,1.31.53,2.51,1.38,3.39l-9.05.09c-2.71,0-4.92,2.23-4.92,4.97,0,1.33.55,2.63,1.51,3.55.96.92,2.21,1.39,3.49,1.36h1.05s-1.4,1.39-1.4,1.39c-.98.98-1.53,2.35-1.51,3.74.02,1.36.57,2.61,1.55,3.52.92.85,2.12,1.33,3.37,1.33,1.33,0,2.57-.52,3.51-1.46l1.48-1.48v1.04c0,2.34,1.61,4.41,3.84,4.93,1.49.34,3.03,0,4.23-.95,1.2-.95,1.88-2.37,1.88-3.89v-9.13c.64.67,1.47,1.16,2.4,1.38,1.49.34,3.04,0,4.23-.95,1.2-.95,1.88-2.37,1.88-3.89v-6.93l7.14-7.14v10.05l-4.9,5c-1.92,1.92-1.92,4.98,0,6.97.9.93,2.13,1.45,3.44,1.46l-6.3,6.44c-.95.95-1.46,2.21-1.43,3.55.03,1.3.55,2.54,1.49,3.47.95.95,2.25,1.42,3.55,1.43,1.31-.03,2.54-.55,3.49-1.5l.78-.79v2.04c0,2.34,1.61,4.41,3.84,4.93.38.09.76.13,1.13.13,1.12,0,2.2-.37,3.09-1.08,1.2-.95,1.88-2.37,1.88-3.89v-2.12l.79.79c.94.94,2.19,1.46,3.51,1.46,1.25,0,2.45-.47,3.37-1.33.98-.9,1.53-2.15,1.55-3.51.03-1.4-.52-2.77-1.51-3.75l-6.36-6.36h.03c1.25,0,2.45-.47,3.37-1.32.97-.9,1.53-2.15,1.55-3.51.03-1.4-.52-2.77-1.51-3.75l-4.8-4.8v-10.16l6.8,6.8.05,7.04c0,2.71,2.23,4.92,5.03,4.92,1.46,0,2.78-.64,3.68-1.66l.09,9.63c0,2.71,2.23,4.92,5.03,4.92s4.92-2.23,4.92-4.99v-1.05s1.48,1.49,1.48,1.49c.94.94,2.19,1.46,3.51,1.46,1.25,0,2.45-.47,3.37-1.32.97-.9,1.53-2.15,1.55-3.51.03-1.4-.52-2.77-1.51-3.75l-1.39-1.39h1.04c2.34,0,4.41-1.61,4.93-3.84.35-1.49,0-3.03-.95-4.23-.95-1.2-2.37-1.89-3.89-1.89h-10.03c.8-.67,1.39-1.59,1.64-2.64.34-1.49,0-3.03-.95-4.23-.95-1.2-2.37-1.88-3.89-1.88h-6.93l-6.91-6.91h9.64l5,4.9c.93.93,2.19,1.46,3.46,1.46s2.43-.46,3.35-1.31c.98-.89,1.53-2.13,1.56-3.48,0-.16,0-.32-.01-.48l6.87,6.73c.93.93,2.19,1.46,3.45,1.46s2.57-.52,3.51-1.46c1.92-1.92,1.89-5.07-.07-7.04l-.79-.78h2.09c2.74,0,4.97-2.23,4.97-4.9Z"/><path class="cls-2" d="m105.16,53.99h0l-11.6.04,7.29-7.5c.39-.4.38-1.03-.02-1.41-.4-.39-1.03-.38-1.41.02l-8.65,8.9-9.62.03,4.48-4.99c.37-.41.33-1.04-.08-1.41-.41-.37-1.04-.33-1.41.08l-5.69,6.34-20.91.07,14.78-14.87,7.99.05h0c.55,0,1-.44,1-.99,0-.55-.44-1-.99-1.01l-6.03-.04,6.76-6.8,12.61.13h.01c.55,0,.99-.44,1-.99,0-.55-.44-1-.99-1.01l-10.67-.11,8.04-8.09c.39-.39.39-1.03,0-1.41-.39-.39-1.02-.39-1.41,0l-8.18,8.23-.15-10.46c0-.55-.46-.95-1.01-.99-.55,0-.99.46-.99,1.01l.18,12.41-6.78,6.82-.36-6.7c-.03-.53-.47-.95-1-.95-.02,0-.04,0-.05,0-.55.03-.97.5-.94,1.05l.46,8.5-14.69,14.78-.14-20.92,5.84-5.75c.39-.39.4-1.02.01-1.41-.39-.39-1.02-.4-1.41-.01l-4.46,4.39-.07-10.02,8.92-8.7c.4-.39.4-1.02.02-1.41-.39-.4-1.02-.4-1.41-.02l-7.54,7.36-.08-11.02c0-.55-.45-1.01-1.01-.99-.55,0-1,.46-.99,1.01l.08,11.38-7.58-7.39c-.39-.38-1.03-.38-1.41.02-.39.4-.38,1.03.02,1.41l9,8.77.07,9.52-4.82-4.34c-.41-.37-1.04-.34-1.41.07-.37.41-.34,1.04.07,1.41l6.18,5.56.14,21.05-15-14.85.04-7.99c0-.55-.44-1-1-1h0c-.55,0-1,.44-1,1l-.03,6.03-6.81-6.75.11-12.61c0-.55-.44-1-.99-1.01h0c-.55,0-1,.44-1,.99l-.1,10.67-8.1-8.03c-.39-.39-1.03-.38-1.42,0-.39.39-.38,1.03,0,1.42l8.24,8.16-10.45.17c-.55,0-.99.46-.98,1.02,0,.55.46.98,1,.98h.02l12.41-.2,6.83,6.77-6.7.38c-.55.03-.97.5-.94,1.05.03.53.47.94,1,.94.02,0,.04,0,.06,0l8.5-.48,14.96,14.81-21.27.07-5.89-5.76c-.39-.39-1.03-.38-1.41.02-.39.4-.38,1.03.02,1.41l4.44,4.34-9.09.03-9.02-9.1c-.39-.39-1.02-.39-1.41,0-.39.39-.39,1.02,0,1.41l7.63,7.7-11.74.04c-.55,0-1,.45-1,1s.45,1,1,1h0l11.54-.04-7.3,7.42c-.39.39-.38,1.03.01,1.41.19.19.45.29.7.29s.52-.1.71-.3l8.69-8.83,9.02-.03-3.97,4.22c-.38.4-.36,1.04.04,1.41.19.18.44.27.68.27.27,0,.53-.11.73-.32l5.27-5.6,21.57-.07-15,15.1-8.24.09c-.55,0-.99.46-.99,1.01,0,.55.45.99,1,.99h.01l6.21-.07-6.41,6.45-12.81-.06h0c-.55,0-1,.44-1,1,0,.55.44,1,1,1l10.84.05-8.27,8.33c-.39.39-.39,1.03,0,1.41.2.19.45.29.71.29s.51-.1.71-.29l8.14-8.19.08,10.4c0,.55.45.99,1,.99h0c.55,0,1-.46.99-1.01l-.1-12.38,6.36-6.4.18,5.79c.02.54.46.97,1,.97h.03c.55-.02.99-.48.97-1.03l-.24-7.69,15.28-15.37.15,21.75-5.63,5.74c-.39.39-.38,1.03.01,1.41.19.19.45.29.7.29s.52-.1.71-.3l4.22-4.3.06,9.04-9.04,8.92c-.39.39-.4,1.02,0,1.42.2.2.45.3.71.3s.51-.1.7-.29l7.65-7.56.08,11.68c0,.55.45.99,1,.99h0c.55,0,1-.45.99-1.01l-.08-11.6,7.46,7.37c.39.39,1.03.38,1.42,0,.39-.39.38-1.03,0-1.42l-8.89-8.78-.06-9.06,4.34,4.1c.4.38,1.03.36,1.41-.04.38-.4.36-1.04-.04-1.41l-5.73-5.41-.15-21.84,15.02,14.87.11,8.24c0,.55.45.99,1,.99h.01c.55,0,.99-.46.99-1.01l-.08-6.21,6.46,6.4-.04,12.81c0,.55.44,1,1,1h0c.55,0,1-.45,1-1l.03-10.84,8.34,8.26c.2.19.45.29.7.29s.51-.1.71-.3c.39-.39.38-1.03,0-1.42l-8.2-8.12,10.4-.1c.55,0,1-.46.99-1.01,0-.55-.42-.99-1.01-.99l-12.38.12-6.41-6.35,5.79-.19c.55-.02.99-.48.97-1.03-.02-.54-.46-.97-1-.97-.01,0-.02,0-.03,0l-7.68.25-15.22-15.08,20.97-.07,5.61,5.69c.2.2.45.3.71.3s.51-.1.7-.29c.39-.39.4-1.02,0-1.41l-4.23-4.29,9.59-.03,8.82,9.01c.2.2.46.3.71.3s.5-.09.7-.29c.39-.39.4-1.02.02-1.41l-7.46-7.62,11.41-.04c.55,0,1-.45,1-1s-.45-1-1-1Z"/></g></svg>