<?xml version="1.0" encoding="UTF-8"?><svg id="Layer_2" xmlns="http://www.w3.org/2000/svg" xmlns:xlink="http://www.w3.org/1999/xlink" viewBox="0 0 224.63 99.78"><defs><style>.cls-1{fill:#ffc530;}.cls-1,.cls-2,.cls-3,.cls-4,.cls-5,.cls-6,.cls-7,.cls-8,.cls-9,.cls-10,.cls-11,.cls-12,.cls-13,.cls-14,.cls-15,.cls-16,.cls-17,.cls-18,.cls-19{stroke-width:0px;}.cls-1,.cls-4,.cls-5,.cls-6,.cls-7,.cls-9,.cls-11,.cls-13,.cls-14,.cls-15,.cls-17,.cls-18{fill-rule:evenodd;}.cls-2,.cls-15{fill:#eaeaea;}.cls-3,.cls-4{fill:#f3b120;}.cls-5{fill:url(#GradientFill_1);}.cls-6{fill:url(#GradientFill_2);}.cls-7,.cls-12{fill:#201d1e;}.cls-8,.cls-17{fill:#000;}.cls-9{fill:#e7e7e7;}.cls-10,.cls-13{fill:#4c4c4c;}.cls-11{fill:#ef4c35;}.cls-14,.cls-16{fill:#fff;}.cls-18{fill:url(#GradientFill_1-2);}.cls-19{fill:#231f20;}</style><linearGradient id="GradientFill_1" x1="6.14" y1="82.28" x2="6.14" y2="12.49" gradientUnits="userSpaceOnUse"><stop offset="0" stop-color="#cacbcd"/><stop offset=".2" stop-color="#e2e3e4"/><stop offset=".51" stop-color="#fff"/><stop offset="1" stop-color="#fff"/></linearGradient><linearGradient id="GradientFill_1-2" x1="6.74" y1="82.37" x2="6.74" y2="12.41" xlink:href="#GradientFill_1"/><linearGradient id="GradientFill_2" x1="177.26" y1="108.53" x2="177.26" y2="-44.2" gradientUnits="userSpaceOnUse"><stop offset="0" stop-color="#4e4f51"/><stop offset="1" stop-color="#87898c"/></linearGradient></defs><g id="Layer_1-2"><polyline class="cls-14" points="168.66 87.39 62.12 87.39 62.12 89.1"/><path class="cls-5" d="M8.44,82.28H1.49v-33.22c0-6.85,1.02-36.54,4.49-36.58h4.81c-2.6,15.68-1.8,20.75-2.36,36.23v33.56Z"/><path class="cls-18" d="M8.44,82.28H2.68v-33.22c0-6.85,1.02-36.54,4.49-36.57h3.62c-2.6,15.68-1.8,20.74-2.36,36.23v33.56Z"/><path class="cls-14" d="M131.83,12.49H10.71c-1.57,7.47-2.26,20.3-2.56,35.79v33.67l3.81,4.28,17.25,1.21c-.31-4.64,1.97-9.62,5.31-12.75,2.95-2.76,6.94-4.46,11.34-4.46,9.36,0,15.89,8.03,16.18,17.03v1.16h106.39l.04-1.08c.27-6.75,4.22-15.65,11.73-18.54,1.6-.51,3.28-.77,5.01-.77,8.61,0,15.88,5.05,17.46,18.85.17.93.36,1.07,1.55,1.51,1.39.52,4.41.7,8.39.7,1.08,0,.22-.72,2.13-1.38,2.32-.8,4.64-1.62,6.92-2.64.1-.04.11-.06.3-.07.42-.02.85-.03,1.27-.06.36-.03.44-.07.47-.3.14-1.35.31-2.7.46-4.05.03-.24,0-.57-.32-.65-.24-.09-.47-.15-.7-.23-.26-.09-.31-.23-.33-.7-.04-1.44-.08-2.89-.11-4.33.53-.06,1.18-.14,1.7-.2.16-.02.2-.03.2-.21,0-.24-.12-.46-.12-.7,0-.26-.25-.3-.35-.53-.1-.15-.12-.38-.18-.54-.11-.44-.15-.58-.3-1.14-.03-.13-.08-.27-.15-.45-.15-.38-.27-.7-.42-1.02l-3.93-8.78c-.28-.73-.43-1.11-1.07-1.83-.49-.49-.87-.83-1.93-1.78-4.88-3.98-16.63-9.72-21.81-10.68l-2.58-1.06-26.05-26.04c-7.28-7.27-20.92-7.23-33.89-7.23Z"/><path class="cls-7" d="M160.81,19.84l24.4,25.93,6.56.02-26-25.96-.91-.94c-1.29.03-3.2.45-4.06.94Z"/><path class="cls-12" d="M192.08,45.93l-6.92-.03-.04-.04-24.51-26.05.14-.08c.85-.48,2.74-.92,4.12-.95h.06s.04.04.04.04l.91.93,26.22,26.17ZM185.27,45.65l6.21.02-25.79-25.75-.87-.9c-1.24.04-2.95.42-3.8.84l24.25,25.78Z"/><path class="cls-6" d="M186.94,45.49l4.54.02-25.43-25.26-.51-.5c-.88.06-1.52.3-2.17.5-.4.13-.52.71,0,1.25l21.78,23.03c.54.57,1.01.96,1.79.97Z"/><path class="cls-12" d="M191.79,45.63l-4.85-.02c-.87,0-1.37-.46-1.88-1.01l-21.78-23.03c-.31-.33-.44-.69-.35-1.01.06-.22.21-.38.41-.44l.22-.07c.58-.19,1.18-.38,1.98-.44h.06s.55.54.55.54l25.65,25.48ZM186.94,45.36l4.24.02-25.69-25.51c-.74.06-1.31.24-1.86.42l-.22.07c-.12.04-.21.14-.24.27-.06.23.05.52.29.78l21.78,23.03c.58.61,1,.92,1.7.93h0Z"/><path class="cls-7" d="M158.33,15.11l.38-.41.29-.02.44-.25.55-.12s.41.03.99.54c.58.51,1.57,1.56,1.57,1.56l.22.86-4.43-2.16Z"/><path class="cls-8" d="M203.13,85.17c-2.23-14.5-10.78-17.55-17.57-17.55-1.77,0-3.49.27-5.12.79-7.02,2.7-10.99,10.53-11.8,17.1l-.19,2.96,34.6-.34.09-2.96Z"/><path class="cls-13" d="M175.77,71.33c-2.19,1.94-4.19,4.99-5.35,7.64h-38.15l-.02-7.69h38.17l5.35.05Z"/><path class="cls-7" d="M146.93,44.87s10.16,1.76,14.72,2.55c7.12,1.24,14.18,2.92,21.25,4.42,0,0,2.03.68,1.1-.79-3.68-5.82-8.62-11.14-12.96-16.44-1.21-1.47-6.2-6.63-7.36-7.88-1.15-1.25-2.75-3.06-4.5-4.25-1.76-1.19-3.35-1.76-7.03-2.38-3.68-.62-10.54-1.36-11.7-1.36s-3.68-.06-3.57,2.32c.11,2.38,1.32,11.62,1.92,14.23.6,2.61,1.15,5.04,1.92,6.35,1.37,2.32,3.84,2.82,6.2,3.23Z"/><path class="cls-15" d="M22.76,19.2h52.88v.02l54.86.13c2.07,0,1.28,1.21,1.2,2.43-.5,8.11-.64,25.71-.64,27.49,0,.16-6.28-.02-10.12-.05l-45.36-.39h0s-63.14,0-63.14,0c-1.24,0-2.5-1.01-2.32-2.22.41-7.81,1.05-15.12,2.67-22.84.72-3.42.6-4.55,9.97-4.55Z"/><path class="cls-2" d="M129.6,50.16c-.95,0-2.4-.02-4.64-.06-1.4-.02-2.83-.05-4.02-.06l-46.17-.4H12.45c-.94,0-1.9-.44-2.51-1.14-.51-.59-.73-1.3-.62-2.02.36-6.96.94-14.61,2.67-22.88l.07-.35c.81-3.93,1.89-4.85,10.7-4.85l53.69.02,54.05.13c.57,0,1.39.07,1.88.66.5.6.36,1.36.24,1.97-.04.22-.08.44-.1.67-.5,8.09-.64,25.7-.64,27.44v.34l-.25.25c-.22.22-.3.3-2.04.3ZM76.41,48.01l44.55.38c1.19.01,2.63.03,4.03.06,1.9.03,4.16.07,5.26.06.02-3.87.18-19.33.64-26.78.02-.29.07-.59.12-.87.04-.21.1-.52.08-.65-.02,0-.2-.04-.59-.04l-55.68-.15H22.76c-8.36,0-8.52.75-9.09,3.55l-.07.36c-1.71,8.17-2.28,15.75-2.65,22.71-.05.38.1.63.23.79.3.35.8.57,1.27.57l63.96.02Z"/><path class="cls-13" d="M73.96,71.28v7.69h-13.79c-.94-2.83-2.85-5.59-5.21-7.73l19,.04Z"/><rect class="cls-3" x="134.49" y="75.69" width="4.17" height="1.72" rx=".86" ry=".86"/><polygon class="cls-7" points="160.88 19.89 185.29 45.82 191.85 45.85 164.97 18.88 160.88 19.89"/><path class="cls-12" d="M192.15,45.97l-6.92-.03-.04-.04-24.55-26.09,4.36-1.08.05.05,27.1,27.19ZM185.34,45.7l6.21.02-26.62-26.71-3.81.94,24.22,25.74Z"/><path class="cls-13" d="M224.63,74.28c0-.24-.06-.54-.16-.85-.29-.46-.72-2.34-.94-2.4-.15.02-2.25-.02-2.34-.03h-19.43c-1.09-.04-1.73-.04-3.42.1-.67.1-.6.08-1.73.27,3.15,2.7,4.7,7.31,5.73,13.66.1.62.19,1.26.27,1.93.12.61.24.88.64,1.12.21.13.51.24.92.4,1.41.52,4.45.71,8.47.71,1.09,0,.22-.72,2.15-1.39l.38-.13.07-.02c2.19-.76,4.38-1.54,6.53-2.5.02,0,.04-.02.05-.03-.04.03-.07.05-.1.06.1-.05.11-.06.3-.07.43-.02.85-.03,1.28-.07.36-.03.45-.07.47-.3l.44-4.09.4-6.37Z"/><path class="cls-9" d="M169.67,62.37c-6.73-.35-85.88-2.03-95.06-2.36-9.18-.32-63.6-.05-63.6-.05l-.06-4.83,65.89.35c26.39.15,67.38,3.14,92.98,6.77"/><path class="cls-15" d="M222.45,68.39c-.69-2.18-1.39-4.37-2.46-6.39,0,0,0,0,0,0-.74-1.39-1.83-2.6-3.1-3.55-1.39-.89-2.96-1.52-4.44-1.79-1.63-.3-3.54.03-5.13.39-.46.1-.51.34-.26.71,2.17,3.34,4.65,6.51,7.97,8.82,1.8,1.25,5.09,1.71,7.24,1.99.04,0,.14.01.22.01,0-.05,0-.12-.03-.19Z"/><path class="cls-1" d="M211.54,57.23c-.64-.19-3.2.24-3.36.5s1.2,2.3,1.83,2.89l2.32-.05c.07-.29.1-.54.1-.84,0-.71-.54-2.39-.9-2.49Z"/><path class="cls-15" d="M174.84,49.57c-.75.35-2.65.71-4.64-.07-1.99-.78-2.49-1.19-2.31-3.36.18-2.17.5-7.04.73-8.31.23-1.28.71-2.12,1.62-2.19.91-.07,1.99-.09,2.81.05.82.14,1.39.66,1.55,1.58.21,1.21,1.79,11.58.23,12.31Z"/><path class="cls-14" d="M174.84,49.57c-.75.35-2.65.71-4.64-.07h-.01s.03-5.25.03-5.25c0,0,.14-4.04.14-5.28s.09-3.08.89-3.15c.35-.03,1.17-.07,1.97-.1.73.18,1.24.69,1.39,1.54.21,1.21,1.79,11.58.23,12.31Z"/><path class="cls-15" d="M168.63,37.83c.23-1.28.71-2.12,1.62-2.19.07,0,.13,0,.2-.01-.51.35-.81,1.09-.98,2.07-.23,1.34-.55,6.43-.73,8.7-.14,1.76.13,2.42,1.19,3-1.76-.71-2.21-1.18-2.03-3.25"/><path class="cls-8" d="M172.97,81.32c1.97-5.28,7.17-8.84,12.84-8.84,7.5,0,13.63,6.12,13.63,13.67s-6.14,13.63-13.63,13.63-13.67-6.14-13.67-13.63c0-1.62.29-3.31.84-4.83Z"/><path class="cls-16" d="M193.99,89.22c-1.29,3.41-4.6,5.69-8.2,5.69-4.79,0-8.75-3.95-8.75-8.75s3.95-8.75,8.75-8.75,8.75,3.95,8.75,8.75c0,1.03-.19,2.12-.55,3.06Z"/><path class="cls-13" d="M34.03,71.15H8.12v4.57c0,2.05,3.97,2.59,6.3,2.64l14.99.56c.88-2.93,2.55-5.57,4.79-7.75l-.17-.02Z"/><rect class="cls-10" x="73.96" y="71.28" width="58.08" height="7.69"/><rect class="cls-3" x="11.66" y="75.69" width="4.17" height="1.72" rx=".86" ry=".86"/><path class="cls-11" d="M1.47,71.12v-21.5c0-.96,5.2-1.21,6.81-1.21v22.71H1.47Z"/><path class="cls-4" d="M1.47,55.55v-5.93c0-.96,5.2-1.21,6.81-1.21v7.14H1.47Z"/><path class="cls-14" d="M1.42,65.82v-1.87h5.76c.6,0,1.1.34,1.1.75v.37c0,.41-.49.75-1.1.75H1.42Z"/><polygon class="cls-14" points="1.45 60.03 1.45 55.2 8.76 55.18 8.76 60.02 1.45 60.03"/><path class="cls-14" d="M1.42,68.28v-1.87h5.76c.6,0,1.1.34,1.1.75v.37c0,.41-.49.75-1.1.75H1.42Z"/><ellipse class="cls-12" cx="10.56" cy="53.05" rx="1.07" ry="1.09"/><path class="cls-12" d="M10.56,54.47c-.77,0-1.4-.64-1.4-1.42s.63-1.42,1.4-1.42,1.4.64,1.4,1.42-.63,1.42-1.4,1.42ZM10.56,52.28c-.41,0-.74.34-.74.77s.33.77.74.77.74-.34.74-.77-.33-.77-.74-.77Z"/><path class="cls-13" d="M13.1,86.43l-.63-8.35c-1.95-.22-4.19-.91-4.19-2.65v-4.73H1.27c.01,3.04.19,6.31-.36,9.4-.05.22-.05.32-.15.47-.17.24-.33.31-.52.48-.26.19-.27.28-.22.54.19.95.37,1.91.64,2.84.17.55,1.37,1.22,2.95,1.34l9.48.67Z"/><rect class="cls-3" x="67.42" y="75.69" width="4.17" height="1.72" rx=".86" ry=".86"/><path class="cls-17" d="M60.92,78.6c-.52-1.27-1.15-2.48-1.9-3.58h-.06c-2.78-4.08-7.21-6.8-14.07-6.8-5.05,0-9.91,1.77-13.1,5.21-.16.17-.3.36-.45.54h-.04c-.12.15-.22.31-.34.46-.09.12-.18.24-.26.36-.18.26-.36.51-.52.78-.05.09-.12.17-.17.25h.02c-1.75,2.92-2.68,6.51-2.93,10.12-.03.39-.06.95-.1,1.62l36.16,1.62c-.28-3.7-.91-7.36-2.24-10.58Z"/><path class="cls-8" d="M32.58,81.32c1.97-5.28,7.17-8.84,12.84-8.84,7.5,0,13.63,6.12,13.63,13.67s-6.14,13.63-13.63,13.63-13.67-6.14-13.67-13.63c0-1.62.29-3.31.84-4.83Z"/><path class="cls-16" d="M53.6,89.22c-1.29,3.41-4.6,5.69-8.2,5.69-4.79,0-8.75-3.95-8.75-8.75s3.95-8.75,8.75-8.75,8.75,3.95,8.75,8.75c0,1.03-.19,2.12-.55,3.06Z"/><path class="cls-12" d="M131.87,88.46c-.64,0-1.15-.51-1.16-1.15l-.4-67.55c0-.64.51-1.16,1.15-1.16h0c.64,0,1.15.51,1.16,1.15l.4,67.55c0,.64-.51,1.16-1.15,1.16h0Z"/><path class="cls-19" d="M159.36,15.49c-.5,0-.96-.33-1.11-.83l-3.86-13.18c-.18-.61.17-1.26.78-1.43.62-.18,1.26.17,1.43.78l3.86,13.18c.18.61-.17,1.26-.78,1.43-.11.03-.22.05-.33.05Z"/><path class="cls-12" d="M147.55,55.3h-9.31c-.64,0-1.16-.52-1.16-1.16s.52-1.16,1.16-1.16h9.31c.64,0,1.16.52,1.16,1.16s-.52,1.16-1.16,1.16Z"/><path class="cls-12" d="M126.13,55.3h-9.31c-.64,0-1.16-.52-1.16-1.16s.52-1.16,1.16-1.16h9.31c.64,0,1.16.52,1.16,1.16s-.52,1.16-1.16,1.16Z"/></g></svg>