<?xml version="1.0" encoding="UTF-8"?>
<svg id="Layer_2" xmlns="http://www.w3.org/2000/svg" viewBox="0 0 99.53 99.53">
  <defs>
    <style>
      .cls-1 {
        fill: #231f20;
      }

      .cls-2 {
        fill: #008383;
      }

      .cls-2, .cls-3, .cls-4, .cls-5 {
        fill-rule: evenodd;
      }

      .cls-3 {
        fill: #004f50;
      }

      .cls-6 {
        fill: #fff;
      }

      .cls-4 {
        fill: #586d77;
      }

      .cls-5 {
        fill: #0bb;
      }
    </style>
  </defs>
  <g id="Layer_1-2" data-name="Layer_1">
    <g>
      <g>
        <path class="cls-2" d="M49.77,58.31l28.3.54c-3.07.84-5.82,2.24-7.78,4.99l-9.41,20.44c-1.1,2.29-1.37,4.75,1.47,4.94-1.78,3.63-6.62,4.2-12.58,4.1-5.96.1-10.8-.47-12.58-4.1,2.83-.19,2.56-2.66,1.47-4.94l-9.41-20.44c-1.96-2.75-4.71-4.15-7.78-4.99l28.3-.54Z"/>
        <path class="cls-4" d="M14.3,71.14l.1.17c-.03-.06-.07-.11-.1-.17Z"/>
        <path class="cls-2" d="M92.41,75.61c-8.77,14.18-24.75,23.93-42.64,23.93s-33.96-9.84-42.73-24.02l7.41-4.21c.24.39.73,1.22.98,1.59,1.98,1.66,4.12,1.11,7.04,4.22,2.54,2.7,2.11,4.38,2.92,6.1,5.66,4.13,12.4,6.86,19.72,7.68h9.32c7.32-.82,14.06-3.55,19.72-7.68.81-1.72.38-3.4,2.92-6.1,2.92-3.11,5.06-2.56,7.04-4.22.25-.38.57-.59.94-1.6l7.36,4.3Z"/>
        <path class="cls-5" d="M88.14,18.3c6.83,8.52,11.39,19.7,11.39,31.47,0,9.21-2.7,18.35-7.06,25.75l-7.38-4.3c2.91-4.91,5.15-10.84,5.81-16.78l-33.93,11.68c-4.67,1.61-9.75,1.61-14.43,0l-33.93-11.68c.67,5.95,2.91,11.9,5.82,16.81l-7.47,4.18C2.61,68.02,0,58.98,0,49.77c0-11.77,4.48-23.01,11.32-31.53l9.05,2.36c-4.01,4.15-7.55,9.57-9.55,15.1-.66,2.03-.78,4.88,2.11,3.92,11.37-3.8,24.1-8.3,36.84-8.3s25.47,4.51,36.84,8.3c2.89.97,2.77-1.89,2.11-3.92-2-5.54-5.62-10.88-9.63-15.04l9.06-2.36Z"/>
        <path class="cls-2" d="M49.77,0c15.29,0,29.22,7.36,38.35,18.22l-8.92,2.47s-.11-.11,0,0c-7.49-7.48-18-12.32-29.42-12.32s-21.96,4.73-29.45,12.21c.24-.23,0,0,0,0l-8.96-2.47C20.48,7.26,34.47,0,49.77,0Z"/>
        <path class="cls-3" d="M23.28,50.68c-.03,1.66.06,3.29.22,4.79-3.66-.37-7.41-1.25-10.65-2.63.17-1.04.39-2.15.68-3.28l9.75,1.13Z"/>
        <path class="cls-3" d="M24,44.74c-.39,1.56-.6,3.17-.68,4.76l-9.48-1.09c.4-1.39.9-2.79,1.52-4.1l8.65.44Z"/>
        <path class="cls-3" d="M26.53,38.99c-.99,1.41-1.7,2.96-2.21,4.59l-8.38-.42c.46-.82.97-1.6,1.55-2.3,2.79-1.43,6.66-1.82,9.03-1.86Z"/>
        <path class="cls-3" d="M76.23,50.68c.03,1.66-.06,3.29-.22,4.79,3.66-.37,7.41-1.25,10.65-2.63-.17-1.04-.4-2.15-.68-3.28l-9.75,1.13Z"/>
        <g>
          <path class="cls-3" d="M75.51,44.74c.39,1.56.6,3.17.68,4.76l9.48-1.09c-.4-1.39-.9-2.79-1.52-4.1l-8.65.44Z"/>
          <path class="cls-3" d="M72.98,38.99c.99,1.41,1.7,2.96,2.21,4.59l8.38-.42c-.46-.82-.97-1.6-1.55-2.3-2.79-1.43-6.66-1.82-9.03-1.86Z"/>
        </g>
      </g>
      <path class="cls-1" d="M19.35,21.23c-.08,0-.16,0-.24-.03l-7.07-1.72c-.54-.13-.87-.67-.74-1.21s.67-.87,1.21-.74l7.07,1.72c.54.13.87.67.74,1.21-.11.46-.52.76-.97.76Z"/>
      <path class="cls-1" d="M79.94,21.22c-.46,0-.87-.31-.97-.78-.12-.54.22-1.07.75-1.2l7.22-1.64c.54-.12,1.08.22,1.2.75.12.54-.22,1.07-.75,1.2l-7.22,1.64c-.08.02-.15.02-.22.02Z"/>
      <path class="cls-1" d="M91.56,76.09c-.17,0-.35-.04-.51-.14l-5.65-3.35c-.48-.28-.63-.89-.35-1.37.28-.47.89-.63,1.37-.35l5.65,3.35c.48.28.63.89.35,1.37-.19.32-.52.49-.86.49Z"/>
      <path class="cls-1" d="M7.91,76.09c-.34,0-.67-.17-.86-.49-.28-.48-.12-1.09.35-1.37l5.65-3.35c.48-.28,1.09-.12,1.37.35.28.48.12,1.09-.35,1.37l-5.65,3.35c-.16.09-.34.14-.51.14Z"/>
      <g id="Roadie_Circle_R_Icon_x5F_BLK">
        <g>
          <path d="M49.49,59.39c-5.8,0-10.49-4.71-10.49-10.54.02-5.8,4.71-10.51,10.49-10.51s10.49,4.71,10.49,10.54-4.69,10.51-10.49,10.51"/>
          <path class="cls-6" d="M54.09,47.06s.35-3.05-4.02-3.05h-4.67s-.16,0-.16.16v4.53h-6.24v.21c0,.25.02.49.02.74h12.41c1.52-.05,2.66-.83,2.66-2.59M51.43,47.45c0,.74-.55,1.2-1.5,1.2h-1.71s-.16,0-.16-.16v-2.15s0-.16.16-.16h1.69c.95,0,1.52.42,1.52,1.2v.07Z"/>
          <path class="cls-6" d="M45.4,53.96h2.52s.16,0,.16-.16v-2.8s0-.12.09-.14h1.13s.05.05.09.12l1.87,2.84s.09.12.23.12h3.1l-2.43-3.35h0l-.09-.14c-.37-.46-.9-.49-1.04-.51h-11.97c.02.32.07.62.14.95h6.03v2.93s.02.14.16.14"/>
        </g>
      </g>
    </g>
  </g>
</svg>