<?xml version="1.0" encoding="UTF-8"?>
<svg id="Layer_2" data-name="Layer 2" xmlns="http://www.w3.org/2000/svg" viewBox="0 0 277.23 277.73">
  <defs>
    <style>
      .cls-1 {
        fill: #eda741;
      }

      .cls-2 {
        fill: #008383;
      }

      .cls-3 {
        fill: #fff;
      }

      .cls-4 {
        fill: #007977;
      }

      .cls-5 {
        fill: #e6e5e6;
      }

      .cls-6 {
        fill: #f1b11f;
      }

      .cls-7 {
        fill: #00b3b2;
      }

      .cls-8 {
        fill: #badfe7;
      }
    </style>
  </defs>
  <g id="Layer_1-2" data-name="Layer 1">
    <g>
      <path id="Path_37" data-name="Path 37" class="cls-5" d="M15.9,147.88h99.72c.17-.02,15.22,14.87,15.86,14.65,0,0,.11-30.58.03-30.47h0V15.82c.01-8.73-7.11-15.81-15.9-15.82H15.9C7.11.01-.01,7.09,0,15.82H0v116.23c-.01,8.73,7.11,15.81,15.9,15.82h0"/>
      <g>
        <g>
          <g>
            <rect class="cls-4" x="16.6" y="27.16" width="19.6" height="19.65"/>
            <path d="M36.2,48.39h-19.6c-.88,0-1.59-.71-1.59-1.59v-19.65c0-.88.71-1.59,1.59-1.59h19.6c.88,0,1.59.71,1.59,1.59v19.65c0,.88-.71,1.59-1.59,1.59ZM18.19,45.21h16.42v-16.47h-16.42v16.47Z"/>
          </g>
          <g>
            <rect class="cls-1" x="16.6" y="63.93" width="19.6" height="19.65"/>
            <path d="M36.2,85.16h-19.6c-.88,0-1.59-.71-1.59-1.59v-19.64c0-.88.71-1.59,1.59-1.59h19.6c.88,0,1.59.71,1.59,1.59v19.64c0,.88-.71,1.59-1.59,1.59ZM18.19,81.98h16.42v-16.47h-16.42v16.47Z"/>
          </g>
          <g>
            <rect class="cls-8" x="16.6" y="100.7" width="19.6" height="19.65"/>
            <path d="M36.2,121.93h-19.6c-.88,0-1.59-.71-1.59-1.59v-19.65c0-.88.71-1.59,1.59-1.59h19.6c.88,0,1.59.71,1.59,1.59v19.65c0,.88-.71,1.59-1.59,1.59ZM18.19,118.75h16.42v-16.47h-16.42v16.47Z"/>
          </g>
        </g>
        <g>
          <path d="M113.66,33.7h-33.92c-.88,0-1.59-.71-1.59-1.59s.71-1.59,1.59-1.59h33.92c.88,0,1.59.71,1.59,1.59s-.71,1.59-1.59,1.59Z"/>
          <path d="M64.1,33.7h-13.22c-.88,0-1.59-.71-1.59-1.59s.71-1.59,1.59-1.59h13.22c.88,0,1.59.71,1.59,1.59s-.71,1.59-1.59,1.59Z"/>
          <path d="M113.66,43.44h-62.77c-.88,0-1.59-.71-1.59-1.59s.71-1.59,1.59-1.59h62.77c.88,0,1.59.71,1.59,1.59s-.71,1.59-1.59,1.59Z"/>
        </g>
        <g>
          <path d="M113.66,70.47h-62.77c-.88,0-1.59-.71-1.59-1.59s.71-1.59,1.59-1.59h62.77c.88,0,1.59.71,1.59,1.59s-.71,1.59-1.59,1.59Z"/>
          <path d="M113.66,80.21h-14.73c-.88,0-1.59-.71-1.59-1.59s.71-1.59,1.59-1.59h14.73c.88,0,1.59.71,1.59,1.59s-.71,1.59-1.59,1.59Z"/>
          <path d="M83.7,80.21h-32.81c-.88,0-1.59-.71-1.59-1.59s.71-1.59,1.59-1.59h32.81c.88,0,1.59.71,1.59,1.59s-.71,1.59-1.59,1.59Z"/>
        </g>
        <g>
          <path d="M113.66,107.24h-62.77c-.88,0-1.59-.71-1.59-1.59s.71-1.59,1.59-1.59h62.77c.88,0,1.59.71,1.59,1.59s-.71,1.59-1.59,1.59Z"/>
          <path d="M113.66,116.98h-22.77c-.88,0-1.59-.71-1.59-1.59s.71-1.59,1.59-1.59h22.77c.88,0,1.59.71,1.59,1.59s-.71,1.59-1.59,1.59Z"/>
          <path d="M72.55,116.98h-21.66c-.88,0-1.59-.71-1.59-1.59s.71-1.59,1.59-1.59h21.66c.88,0,1.59.71,1.59,1.59s-.71,1.59-1.59,1.59Z"/>
        </g>
      </g>
    </g>
    <g>
      <path class="cls-2" d="M237.65,220h21.57c9.98,0,18.01-7.53,18.01-16.83V39.61c0-9.3-8.12-16.83-18.01-16.83h-19.62l-1.95,197.22Z"/>
      <path class="cls-7" d="M146.39,40.79v161.2c0,9.98,8.12,18.01,18.01,18.01h75.44c9.98,0,18.01-8.12,18.01-18.01V40.79c0-9.98-8.12-18.01-18.01-18.01h-75.44c-9.9,0-18.01,8.12-18.01,18.01Z"/>
      <path class="cls-3" d="M154.34,51.53v128.21c0,2.96,2.45,5.41,5.5,5.41h84.66c3.04,0,5.5-2.45,5.5-5.41V51.53c0-2.96-2.45-5.41-5.5-5.41h-84.66c-3.04.08-5.5,2.45-5.5,5.41h0Z"/>
      <path d="M211.77,200.04c0-4.31-3.47-7.78-7.78-7.78s-7.78,3.47-7.78,7.78,3.47,7.78,7.78,7.78,7.78-3.47,7.78-7.78Z"/>
      <path d="M213.03,37.71h-26.55c-.96,0-1.74-.78-1.74-1.74s.78-1.74,1.74-1.74h26.55c.96,0,1.74.78,1.74,1.74s-.78,1.74-1.74,1.74Z"/>
      <path d="M220.22,39.06c-1.73,0-3.09-1.36-3.09-3.09s1.36-3.09,3.09-3.09,3.09,1.36,3.09,3.09-1.36,3.09-3.09,3.09ZM220.22,35.59c-.2,0-.38.19-.38.38s.19.38.38.38.38-.19.38-.38-.19-.38-.38-.38Z"/>
      <path class="cls-3" d="M265.39,85.36v-33.66c0-1.1.85-1.95,1.95-1.95h1.01c1.1,0,1.95.85,1.95,1.95v33.66c0,1.1-.85,1.95-1.95,1.95h-1.01c-1.01,0-1.95-.93-1.95-1.95Z"/>
      <path class="cls-3" d="M265.39,128.24v-33.66c0-1.1.85-1.95,1.95-1.95h1.01c1.1,0,1.95.85,1.95,1.95v33.66c0,1.1-.85,1.95-1.95,1.95h-1.01c-1.01,0-1.95-.93-1.95-1.95Z"/>
      <g id="Roadie_Circle_R_Icon_BLK" data-name="Roadie Circle R Icon_BLK">
        <g>
          <path class="cls-7" d="M202.13,152.26c-21.23,0-38.4-17.25-38.4-38.57.08-21.23,17.25-38.48,38.4-38.48s38.4,17.25,38.4,38.57-17.17,38.48-38.4,38.48"/>
          <path class="cls-3" d="M218.96,107.09s1.27-11.16-14.72-11.16h-17.08s-.59,0-.59.59v16.58h-22.83v.76c0,.93.08,1.78.08,2.71h45.42c5.58-.17,9.73-3.04,9.73-9.47M209.23,108.53c0,2.71-2.03,4.4-5.5,4.4h-6.26s-.59,0-.59-.59v-7.87s0-.59.59-.59h6.17c3.47,0,5.58,1.52,5.58,4.4v.25Z"/>
          <path class="cls-3" d="M187.16,132.38h9.22s.59,0,.59-.59v-10.23s0-.42.34-.51h4.14c.08.08.17.17.34.42l6.85,10.4s.34.42.85.42h11.33l-8.88-12.26h0l-.34-.51c-1.35-1.69-3.3-1.78-3.81-1.86h-43.81c.08,1.18.25,2.28.51,3.47h22.07v10.74c.08,0,.08.51.59.51"/>
        </g>
      </g>
    </g>
    <g>
      <path class="cls-6" d="M48.3,180.36c-4.9,2.75-7.83,8.04-7.83,13.67v68.02c0,8.66,7.02,15.69,15.69,15.69h43.46c5.12,0,9.95-2.42,13.02-6.52l38.05-50.94c3.72-4.97,2.76-12.13-2.31-15.71-4.86-3.44-11.57-2.37-15.13,2.39l-7.01,9.38c-5.89,7.88-18.42,3.72-18.42-6.12v-76.15c0-5.57-4.36-10.27-9.93-10.42-5.77-.16-10.5,4.48-10.5,10.21v31.9c0,.35-.39.57-.69.39-4.68-2.7-10.7-1.02-13.85,3.51-1.04,1.49-1.41,1.62-3.09,1.05-5.63-1.92-12.47,1.77-14.08,7.46-.08.3-.36.5-.67.48-2.29-.11-4.6.54-6.7,1.72Z"/>
      <path d="M87.25,203.83h0c-.83,0-1.5-.68-1.49-1.51l.13-34.26c0-.83.67-1.49,1.5-1.49h0c.83,0,1.5.68,1.49,1.51l-.13,34.26c0,.83-.67,1.49-1.5,1.49Z"/>
      <path d="M71.42,208.63h0c-.83,0-1.5-.67-1.5-1.5l.07-34.46c0-.83.67-1.5,1.5-1.5h0c.83,0,1.5.67,1.5,1.5l-.07,34.46c0,.83-.67,1.5-1.5,1.5Z"/>
      <path d="M55.59,215.39c-.82,0-1.5-.67-1.5-1.49l-.16-33.36c0-.83.66-1.5,1.49-1.51h0c.82,0,1.5.67,1.5,1.49l.16,33.36c0,.83-.66,1.5-1.49,1.51h0Z"/>
    </g>
  </g>
</svg>