<?xml version="1.0" encoding="UTF-8"?><svg id="Layer_2" xmlns="http://www.w3.org/2000/svg" viewBox="0 0 145.22 64.88"><defs><style>.cls-1{fill:none;}.cls-1,.cls-2{stroke:#000;stroke-linecap:round;stroke-linejoin:round;stroke-width:2px;}.cls-3,.cls-4,.cls-5,.cls-6,.cls-7,.cls-8,.cls-9,.cls-10{stroke-width:0px;}.cls-4{fill:#f3b120;}.cls-5{fill:#58320d;}.cls-6{fill:#1c0003;}.cls-7{fill:#ba3c2f;}.cls-8{fill:#68635d;}.cls-9{fill:#f44337;}.cls-10{fill:#fff;}</style></defs><g id="Layer_1-2"><path class="cls-8" d="M17.6,4.67c-.45.43-.76.76-.76.76l60.23.63s-.48-.33-1.21-.78l-58.26-.61Z"/><polygon class="cls-5" points="63.4 5.09 60.99 4.99 63.17 20.98 66.14 21.4 63.4 5.09"/><path class="cls-9" d="M143.12,36.16c-.14-2.09-.55-3.86-1.22-5.31-.46-1-.81-2.99-1.5-3.7-4.42-2.53-18.5-4.33-31.71-5.05l-15.36-11.98c-5.51-4.03-12.12-6.28-18.95-6.45-11.52-.59-22.77-.9-33.68-.84-5.37-.09-21.47.83-28.95,1.38-1.83.14-3.77,2.53-3.63,2.3l14.45-.51-5.09,13.47-12.39-.1-2.38,2.98-1.26,11.56-1.37,1.49L0,41.73c-.06,5.54,4.39,10.09,9.94,10.14l124.89,2.23h.82c5.19.06,9.44-4.1,9.49-9.29l.07-6.75-2.1-1.9ZM96.89,23.26l-49.33-3.16c-5.23-.33-10.4-1.31-15.4-2.9l-4.08-1.3c-.91-.29-1.41-1.26-1.12-2.16l1.95-6.87c.2-.63.73-1.09,1.38-1.21,7.13-1.31,35.98-.74,42.98.01,8.41.95,11.45,2.78,16.56,6.52l11.07,9.61-4.01,1.45Z"/><path class="cls-5" d="M18.59,16.68c-1.57.05-3.1.15-4.49.2-2.91.1-6.56.35-8.95,2.21l-.04.25-.02.03,12.39.1,1.12-2.8Z"/><path class="cls-5" d="M12.94,8.13c2.85.15,5.71.14,8.57.16.05,0,.1,0,.14,0l.92-2.29-14.41.51c1.32,1.29,2.6,1.5,4.78,1.62Z"/><path class="cls-3" d="M8.12,6.51c-.27.47-.47,1-.56,1.56l-2.45,11.27-.02.03,12.39.1,5.09-13.47-14.45.51Z"/><path class="cls-7" d="M144.79,47.28c-1.13,3.98-4.81,6.88-9.14,6.83h-.82s-124.89-2.24-124.89-2.24C4.39,51.82-.06,47.28,0,41.73v-.68s145.01,5.44,144.79,6.23Z"/><path class="cls-5" d="M28.07,15.91l4.08,1.3c5,1.59,10.17,2.56,15.4,2.9l49.33,3.16,4.01-1.45-11.07-9.61c-5.11-3.74-8.16-5.57-16.56-6.52-7-.75-35.85-1.32-42.98-.01-.65.12-1.18.58-1.38,1.21l-1.95,6.87c-.29.91.21,1.87,1.12,2.16ZM30.85,14.35l1.77-6.28c.18-.57.66-.99,1.25-1.1,6.44-1.18,32.52-.67,38.84.01,7.6.85,10.34,2.51,14.97,5.89l10,8.76-3.63,1.31-44.58-2.85c-4.73-.3-9.4-1.18-13.92-2.62l-3.69-1.17c-.82-.26-1.27-1.14-1.01-1.95Z"/><path class="cls-3" d="M86.55,7.32l2.26.02c1.57.8,3.09,1.73,4.53,2.78l14.66,11.48-3.16-.03c-6.68-5.53-13.16-11.49-18.29-14.25Z"/><path class="cls-6" d="M134.83,54.11l-28.45-.51.34-7.19c.28-6.01,5.21-10.67,11.23-10.61h.29s6.32.23,6.32.23c5.95.21,10.55,5.04,10.49,10.99l-.07,7.09h-.14Z"/><path class="cls-6" d="M9.94,51.88c-.28,0-.56-.03-.84-.05l.34-7.29c.28-6.01,5.21-10.67,11.23-10.61h.29s6.32.23,6.32.23c5.95.21,10.55,5.04,10.49,10.99l-.08,7.23-27.76-.5Z"/><path class="cls-3" d="M26.96,13.75l1.95-6.87c.2-.63.73-1.09,1.38-1.21,7.13-1.31,35.98-.74,42.98.01,8.41.95,11.45,2.78,16.56,6.52l11.07,9.61-4.01,1.45-49.33-3.16c-5.23-.33-10.4-1.31-15.4-2.9l-4.08-1.3c-.91-.29-1.41-1.26-1.12-2.16Z"/><polygon class="cls-9" points="59.96 4.64 57.56 4.96 59.74 20.94 62.68 21.85 59.96 4.64"/><path class="cls-4" d="M143.12,36.22v-.09c-.21-3.02-.83-5.53-1.79-7.63l-10.6-.11,4.64,7.74,7.75.08Z"/><path class="cls-10" d="M5.22,22.78l-2.62-.14-1,9.19,10.15-1.07.04-.39c.37-3.93-2.62-7.38-6.56-7.59Z"/><line class="cls-1" x1="15.94" y1="1" x2="74.82" y2="1"/><line class="cls-1" x1="31.33" y1="24.73" x2="36.1" y2="24.73"/><line class="cls-1" x1="63.86" y1="24.73" x2="68.63" y2="24.73"/><line class="cls-1" x1="58.72" y1="20.78" x2="61.9" y2="42.7"/><path class="cls-3" d="M133.7,51.86c0-7.18-5.84-13.02-13.02-13.02s-13.02,5.84-13.02,13.02,5.84,13.02,13.02,13.02,13.02-5.84,13.02-13.02Z"/><path class="cls-10" d="M127.35,51.86c0-3.68-2.98-6.73-6.73-6.73s-6.73,3.05-6.73,6.73,3.05,6.67,6.73,6.67,6.73-2.98,6.73-6.67Z"/><path class="cls-3" d="M36.37,51.86c0-7.18-5.84-13.02-13.02-13.02s-13.02,5.84-13.02,13.02,5.84,13.02,13.02,13.02,13.02-5.84,13.02-13.02Z"/><path class="cls-10" d="M30.02,51.86c0-3.68-2.98-6.73-6.73-6.73s-6.73,3.05-6.73,6.73,3.05,6.67,6.73,6.67,6.73-2.98,6.73-6.67Z"/><line class="cls-2" x1="15.8" y1="3.28" x2="17.98" y2="1.31"/><line class="cls-2" x1="73.17" y1="1.18" x2="75.35" y2="3.14"/><line class="cls-1" x1="46.58" y1="1.42" x2="46.58" y2="2.28"/><line class="cls-1" x1="100.14" y1="22.52" x2="104.33" y2="44.41"/><line class="cls-1" x1="27.92" y1="14.34" x2="23.68" y2="34.23"/></g></svg>