<?xml version="1.0" encoding="UTF-8"?><svg id="Layer_2" xmlns="http://www.w3.org/2000/svg" viewBox="0 0 103.96 103.95"><defs><style>.cls-1{fill:#004f50;}.cls-1,.cls-2,.cls-3{stroke-width:0px;}.cls-2{fill:#0bb;}.cls-3{fill:#231f20;}</style></defs><g id="Layer_1-2"><path class="cls-1" d="M101.03,48.29l2.92-.51-.26-1.44-1.29-7.69-2.93.49c-.35-1.28-.74-2.53-1.18-3.76-.45-1.23-.93-2.45-1.49-3.66l2.59-1.46-2.74-4.81-1.86-3.25-2.58,1.47c-1.52-2.18-3.2-4.21-5.02-6.09l1.91-2.26-7.07-5.96-1.92,2.24c-1.22-.87-2.48-1.65-3.79-2.41-.98-.55-2.02-1.08-3.03-1.56l1.04-2.77-8.68-3.23-1.02,2.81c-2.54-.67-5.13-1.19-7.78-1.43l.02-2.96-9.25-.06v2.96c-2.59.24-5.22.69-7.81,1.35l-.99-2.78-8.72,3.13,1.01,2.77c-2.42,1.13-4.71,2.44-6.85,3.91l-1.89-2.28-7.12,5.91,1.89,2.29c-1.89,1.86-3.58,3.9-5.1,6.05l-2.57-1.52-4.68,8,2.56,1.49c-1.1,2.36-2.03,4.84-2.71,7.39l-2.93-.53L.03,47.25l2.92.51c-.22,2.62-.24,5.26-.01,7.91l-2.93.5,1.56,9.13,2.94-.5c.34,1.28.74,2.53,1.17,3.76.44,1.23.94,2.45,1.48,3.66l-2.57,1.47,4.2,7.31.41.74,2.56-1.47c1.52,2.18,3.22,4.23,5.04,6.09l-1.91,2.26,7.07,5.97,1.91-2.25c2.15,1.51,4.45,2.84,6.83,3.97l-1.02,2.78,8.66,3.22,1.02-2.81c2.54.69,5.13,1.19,7.76,1.43v2.96l9.25.06v-2.96c2.59-.24,5.2-.68,7.78-1.34l1.01,2.81,8.71-3.13-.99-2.8c2.41-1.13,4.72-2.45,6.86-3.93l1.89,2.29,7.12-5.91-1.9-2.29c1.9-1.87,3.57-3.88,5.1-6.03l2.57,1.52,4.65-8-2.56-1.49c1.12-2.38,2.06-4.86,2.74-7.4l2.92.53,1.66-9.11-2.89-.53c.22-2.62.24-5.27.01-7.9ZM76.1,76.68l-2.71,2.42c-.77.59-1.55,1.18-2.39,1.72-.99.68-2.08,1.32-3.17,1.85-4.78,2.5-10.22,3.88-15.96,3.87-5.82-.02-11.24-1.48-15.99-4.02l-3.21-1.92c-.77-.51-1.58-1.08-2.3-1.7l-.11-.05-2.5-2.29-.12-.12c-6.3-6.29-10.26-14.99-10.21-24.6.02-1.99.2-3.9.56-5.81.18-1.22.44-2.4.78-3.56.27-.92.62-1.86.92-2.75.43-1.17.92-2.27,1.54-3.35,4.94-9.82,14.51-16.94,25.79-18.57,1.16-.18,2.39-.3,3.59-.3.5-.07.99-.06,1.54-.07.5,0,.95.01,1.45.07,1.2.03,2.42.17,3.63.32,11.27,1.73,20.76,8.94,25.69,18.76.53,1.1,1.04,2.21,1.45,3.37.39.89.64,1.82.88,2.77.36,1.16.66,2.39.81,3.58.33,1.89.48,3.85.5,5.82-.05,9.64-4.07,18.35-10.46,24.57Z"/><path class="cls-2" d="M86.05,46.29c-.16-1.19-.45-2.41-.81-3.57-.24-.95-.49-1.89-.88-2.78-.41-1.14-.93-2.27-1.46-3.36-4.93-9.83-14.41-17.04-25.68-18.76-1.21-.16-2.43-.29-3.64-.31-.51-.06-.95-.08-1.44-.08-.54.02-1.05,0-1.55.08-1.19,0-2.43.12-3.59.29-11.27,1.63-20.84,8.74-25.78,18.57-.64,1.09-1.11,2.17-1.55,3.36-.29.87-.64,1.83-.91,2.76-.35,1.14-.6,2.33-.78,3.55-.37,1.91-.54,3.83-.56,5.81-.04,9.61,3.9,18.32,10.22,24.59l.12.12,2.51,2.29.1.06c.72.6,1.53,1.18,2.31,1.69l3.21,1.92c4.74,2.54,10.16,4,15.98,4.02,5.75.02,11.17-1.38,15.97-3.87,1.09-.52,2.18-1.17,3.17-1.84.84-.54,1.63-1.13,2.39-1.73l2.72-2.41c6.39-6.22,10.39-14.94,10.45-24.57-.02-1.98-.18-3.92-.5-5.83ZM65.61,28.4c.08.04.13.06.19.1,1.42.84,2.76,1.77,4,2.87.95.84,1.86,1.75,2.68,2.72.14.14.27.26.37.39.04.06.1.09.14.15.49.58.95,1.17,1.38,1.81.47.68.92,1.36,1.32,2.1l-17.03,4.22-1.19-17.48c2.87.62,5.63,1.67,8.14,3.13ZM51.98,47.39c2.55,0,4.61,2.06,4.61,4.6s-2.06,4.58-4.61,4.58-4.56-2.06-4.56-4.58,2.06-4.6,4.56-4.6ZM31.12,34.44s.1-.12.16-.17c1.9-2.21,4.14-4.14,6.76-5.67.1-.08.23-.14.37-.21.02-.06.1-.08.13-.12.92-.5,1.87-.95,2.88-1.34.45-.21.89-.41,1.4-.6.47-.17.97-.33,1.48-.44.79-.25,1.59-.45,2.39-.62l-1.26,17.44v.02h-.02l-17.01-4.33c.78-1.38,1.71-2.72,2.74-3.95ZM31.74,70.22c-.19-.25-.41-.49-.62-.74-.04-.06-.1-.1-.16-.16-1.92-2.31-3.52-5.03-4.59-8.04l-.08-.21c-.37-1.05-.68-2.12-.91-3.17-.29-1.22-.46-2.47-.56-3.71-.08-.76-.08-1.52-.1-2.25,0-.1.02-.13.02-.19v-.02c0-.17,0-.39.04-.58,0-.84.06-1.67.15-2.47l16.16,6.62-9.36,14.92ZM61.17,77.62c-1.48.55-2.99.93-4.49,1.23-.06-.02-.14.02-.19,0-2.35.43-4.72.51-7.01.27-.76-.08-1.5-.16-2.25-.29-.08-.02-.14-.02-.21-.04-.39-.1-.8-.15-1.23-.29-1.01-.22-1.98-.49-2.95-.85-.8-.27-1.55-.58-2.29-.95l11.29-13.33,11.36,13.46c-.64.29-1.32.57-2.02.8ZM79.23,52.23c-.02,3.15-.6,6.24-1.67,9.11-.02.06-.02.14-.06.19-.14.35-.27.7-.45,1.05-.49,1.16-1.05,2.29-1.69,3.4-.53.86-1.07,1.69-1.69,2.47-.27.39-.55.74-.83,1.09-.04.04-.12.08-.14.15-.21.26-.42.51-.66.74l-9.19-15.09,16.2-6.49c.12,1.07.18,2.14.18,3.18v.2Z"/><path class="cls-1" d="M53.83,41.53c0,.92-.74,1.66-1.66,1.66s-1.65-.74-1.65-1.66.75-1.65,1.65-1.65,1.66.74,1.66,1.65Z"/><path class="cls-1" d="M43.49,48.9c0,.92-.74,1.65-1.66,1.65s-1.65-.74-1.65-1.65.74-1.66,1.65-1.66,1.66.74,1.66,1.66Z"/><path class="cls-1" d="M47.12,60.58c0,.92-.74,1.65-1.65,1.65s-1.65-.73-1.65-1.65.74-1.65,1.65-1.65,1.65.74,1.65,1.65Z"/><path class="cls-1" d="M59.99,60.68c0,.92-.74,1.65-1.66,1.65s-1.65-.73-1.65-1.65.74-1.65,1.65-1.65,1.66.74,1.66,1.65Z"/><path class="cls-1" d="M63.61,48.23c0,.92-.73,1.65-1.65,1.65s-1.65-.74-1.65-1.65.73-1.66,1.65-1.66,1.65.74,1.65,1.66Z"/><path class="cls-3" d="M52.2,57.54c-3.27,0-5.92-2.66-5.92-5.92s2.66-5.92,5.92-5.92,5.92,2.66,5.92,5.92-2.66,5.92-5.92,5.92ZM52.2,47.7c-2.16,0-3.92,1.76-3.92,3.92s1.76,3.92,3.92,3.92,3.92-1.76,3.92-3.92-1.76-3.92-3.92-3.92Z"/></g></svg>