<?xml version="1.0" encoding="UTF-8"?><svg id="Layer_2" xmlns="http://www.w3.org/2000/svg" viewBox="0 0 97.5 111.43"><defs><style>.cls-1{fill:#f44337;}.cls-1,.cls-2,.cls-3{stroke-width:0px;}.cls-2{fill:#444;}.cls-3{fill:#231f20;}</style></defs><g id="Layer_1-2"><path class="cls-2" d="M80.09,17.9V3.48h17.41v10.07l-17.41,4.35ZM83.57,6.96v6.47l10.45-2.61v-3.86h-10.45ZM95.76,12.19h.02-.02Z"/><path class="cls-2" d="M12.19,111.43c-3.84,0-6.96-3.12-6.96-6.96s3.12-6.96,6.96-6.96,6.96,3.12,6.96,6.96-3.12,6.96-6.96,6.96ZM12.19,100.98c-1.92,0-3.48,1.56-3.48,3.48s1.56,3.48,3.48,3.48,3.48-1.56,3.48-3.48-1.56-3.48-3.48-3.48Z"/><path class="cls-2" d="M85.31,111.43c-3.84,0-6.96-3.12-6.96-6.96s3.12-6.96,6.96-6.96,6.96,3.12,6.96,6.96-3.12,6.96-6.96,6.96ZM85.31,100.98c-1.92,0-3.48,1.56-3.48,3.48s1.56,3.48,3.48,3.48,3.48-1.56,3.48-3.48-1.56-3.48-3.48-3.48Z"/><rect class="cls-1" width="10.45" height="100.98"/><rect class="cls-1" x="73.12" width="10.45" height="100.98"/><path class="cls-1" d="M11.83,100.79l-1.39-2.08v-8.18H0v12.19c0,1.92,1.56,3.48,3.48,3.48h5.45c1.29,0,2.46-.7,3.07-1.84.61-1.13.54-2.5-.17-3.58Z"/><path class="cls-1" d="M84.96,100.79l-1.39-2.08v-8.18h-10.45v12.19c0,1.92,1.56,3.48,3.48,3.48h5.45c1.29,0,2.46-.7,3.07-1.84.61-1.13.54-2.5-.17-3.58Z"/><polygon class="cls-1" points="6.96 3.48 6.96 10.45 6.96 13.93 6.96 34.82 76.61 34.82 76.61 13.93 76.61 10.45 76.61 3.48 6.96 3.48"/><polygon class="cls-1" points="6.96 33.85 6.96 51.71 6.96 60.64 6.96 78.5 76.61 78.5 76.61 60.64 76.61 51.71 76.61 33.85 6.96 33.85"/><polygon class="cls-1" points="6.96 76.61 6.96 83.57 6.96 87.05 6.96 94.02 76.61 94.02 76.61 87.05 76.61 83.57 76.61 76.61 6.96 76.61"/><path class="cls-3" d="M52.22,21.52h-21.02c-.55,0-1-.45-1-1s.45-1,1-1h21.02c.55,0,1,.45,1,1s-.45,1-1,1Z"/><path class="cls-3" d="M52.22,38.96h-21.02c-.55,0-1-.45-1-1s.45-1,1-1h21.02c.55,0,1,.45,1,1s-.45,1-1,1Z"/><path class="cls-3" d="M52.22,54.59h-21.02c-.55,0-1-.45-1-1s.45-1,1-1h21.02c.55,0,1,.45,1,1s-.45,1-1,1Z"/><path class="cls-3" d="M52.22,71.06h-21.02c-.55,0-1-.45-1-1s.45-1,1-1h21.02c.55,0,1,.45,1,1s-.45,1-1,1Z"/><path class="cls-3" d="M52.22,86.69h-21.02c-.55,0-1-.45-1-1s.45-1,1-1h21.02c.55,0,1,.45,1,1s-.45,1-1,1Z"/><path class="cls-3" d="M73.43,12.66H10.73c-.55,0-1-.45-1-1s.45-1,1-1h62.7c.55,0,1,.45,1,1s-.45,1-1,1Z"/><path class="cls-3" d="M73.71,29.27H11.01c-.55,0-1-.45-1-1s.45-1,1-1h62.7c.55,0,1,.45,1,1s-.45,1-1,1Z"/><path class="cls-3" d="M73.71,62.48H11.01c-.55,0-1-.45-1-1s.45-1,1-1h62.7c.55,0,1,.45,1,1s-.45,1-1,1Z"/><path class="cls-3" d="M73.71,45.87H11.01c-.55,0-1-.45-1-1s.45-1,1-1h62.7c.55,0,1,.45,1,1s-.45,1-1,1Z"/><path class="cls-3" d="M73.71,79.08H11.01c-.55,0-1-.45-1-1s.45-1,1-1h62.7c.55,0,1,.45,1,1s-.45,1-1,1Z"/><path class="cls-3" d="M73.71,93.87H11.01c-.55,0-1-.45-1-1s.45-1,1-1h62.7c.55,0,1,.45,1,1s-.45,1-1,1Z"/></g></svg>