<?xml version="1.0" encoding="utf-8"?>
<!-- Generator: Adobe Illustrator 27.6.1, SVG Export Plug-In . SVG Version: 6.00 Build 0)  -->
<svg version="1.1" id="Layer_2_00000091011302556239462720000001095503345219540639_"
	 xmlns="http://www.w3.org/2000/svg" xmlns:xlink="http://www.w3.org/1999/xlink" x="0px" y="0px" viewBox="0 0 127 71.6"
	 style="enable-background:new 0 0 127 71.6;" xml:space="preserve">
<style type="text/css">
	.st0{fill:#FFFFFF;}
	.st1{fill:#334C72;}
	.st2{fill:#FBD672;}
	.st3{fill:#121212;}
	.st4{fill:#273851;}
	.st5{fill:#171B1D;}
</style>
<g id="Layer_1-2_00000118360103694904782990000007239365768109265295_">
	<g id="Layer_1-2">
		<path class="st0" d="M117.6,18.8l2.9,20.4H93.8V19.3L117.6,18.8z"/>
		<path class="st1" d="M79.1,20.1h38.6c1.8,0,3.7-1.5,4.3-3.3s-0.6-3.3-2.3-3.3H81c-1.8,0-3.7,1.5-4.3,3.3
			C76.2,18.6,77.3,20.1,79.1,20.1L79.1,20.1z"/>
		<path class="st1" d="M85.7,37.9l-7,24.4h26.3l7-24.3C112.1,37.9,85.7,37.9,85.7,37.9z"/>
		<path class="st1" d="M126.8,46.9c1-3.9-1.3-7.8-5.2-8.8c-0.6-0.2-1.2-0.2-1.8-0.2h-7.7l-7,24.3h17.4L126.8,46.9L126.8,46.9
			L126.8,46.9z"/>
		<path class="st2" d="M126.8,47c-2.2,0-4.5,1.8-5.1,4s0.6,4,2.8,4L126.8,47C126.8,47,126.8,47,126.8,47z"/>
		<path class="st1" d="M35.3,0L17.5,62.2h23.6L59,0H35.3L35.3,0z"/>
		<path class="st1" d="M59,0L41.1,62.2h23.7L82.6,0C82.6,0,59,0,59,0z"/>
		<path class="st1" d="M82.6,0L64.8,62.2h23.7L106.3,0H82.6z"/>
		<path class="st3" d="M69.1,48.2c-0.1,0-0.2,0-0.3,0c-0.5-0.2-0.8-0.7-0.7-1.2L81.7,0.7c0.2-0.5,0.7-0.8,1.2-0.7s0.8,0.7,0.7,1.2
			L70,47.5C69.9,47.9,69.5,48.2,69.1,48.2z"/>
		<path class="st3" d="M45,48.7c-0.1,0-0.2,0-0.3,0c-0.5-0.2-0.8-0.7-0.7-1.2L57.6,0.7c0.2-0.5,0.7-0.8,1.2-0.7
			c0.5,0.2,0.8,0.7,0.7,1.2L46,47.9C45.8,48.4,45.4,48.7,45,48.7z"/>
		<path class="st4" d="M17.5,62.2h70.9L93,46.3H22C22,46.3,17.5,62.2,17.5,62.2z"/>
		<path class="st5" d="M43.8,68.3c4.5-3.9,5.7-9.7,2.8-13.1s-8.9-2.9-13.3,0.9s-5.7,9.7-2.8,13.1C33.4,72.6,39.3,72.2,43.8,68.3
			L43.8,68.3L43.8,68.3z"/>
		<path class="st0" d="M39.9,63.9c1.2-1,1.5-2.6,0.8-3.5c-0.8-0.9-2.4-0.8-3.5,0.3c-1.2,1-1.5,2.6-0.8,3.5S38.7,64.9,39.9,63.9
			L39.9,63.9z"/>
		<path class="st5" d="M109.4,68.4c4.5-3.9,5.7-9.7,2.8-13.1s-8.9-2.9-13.3,0.9c-4.5,3.9-5.7,9.7-2.8,13.1S104.9,72.2,109.4,68.4
			L109.4,68.4L109.4,68.4z"/>
		<path class="st0" d="M105.5,63.9c1.2-1,1.5-2.6,0.8-3.5c-0.8-0.9-2.4-0.8-3.6,0.3s-1.5,2.6-0.8,3.5S104.3,64.9,105.5,63.9
			L105.5,63.9L105.5,63.9z"/>
		<path class="st3" d="M104.3,47.1h-4.5c-0.6,0-1-0.5-1-1s0.4-1,1-1h4.5c0.6,0,1,0.5,1,1S104.9,47.1,104.3,47.1z"/>
		<path d="M23.5,26H4.9c-0.6,0-1-0.5-1-1s0.4-1,1-1h18.6c0.5,0,1,0.5,1,1S24,26,23.5,26L23.5,26z"/>
		<path d="M21.8,34.1H3.2c-0.5,0-1-0.5-1-1s0.5-1,1-1h18.6c0.5,0,1,0.5,1,1S22.3,34.1,21.8,34.1z"/>
		<path d="M19.6,42.1H1c-0.6,0-1-0.5-1-1s0.4-1,1-1h18.6c0.5,0,1,0.5,1,1S20.1,42.1,19.6,42.1z"/>
	</g>
</g>
</svg>
