<?xml version="1.0" encoding="utf-8"?>
<!-- Generator: Adobe Illustrator 27.6.1, SVG Export Plug-In . SVG Version: 6.00 Build 0)  -->
<svg version="1.1" id="Layer_2_00000130633509022676843970000006162204296154516889_"
	 xmlns="http://www.w3.org/2000/svg" xmlns:xlink="http://www.w3.org/1999/xlink" x="0px" y="0px" viewBox="0 0 129.1 49.7"
	 style="enable-background:new 0 0 129.1 49.7;" xml:space="preserve">
<style type="text/css">
	.st0{fill:#334C72;}
	.st1{fill:#121212;}
	.st2{fill:#F44336;}
	.st3{fill:#FFFFFF;}
</style>
<g id="Layer_1-2_00000067220391225589700860000011100731544863018890_">
	<g id="Layer_1-2">
		<path d="M114.1,40c0-5.3-4.4-9.7-9.7-9.7s-9.7,4.4-9.7,9.7s4.4,9.7,9.7,9.7S114.1,45.4,114.1,40z"/>
		<path d="M56,40c0-5.3-4.4-9.7-9.7-9.7s-9.7,4.4-9.7,9.7s4.3,9.7,9.7,9.7S56,45.4,56,40z"/>
		<path class="st0" d="M0,37.2L1.7,31c0.2-0.8,0.2-1.7,0-2.6l-1.5-4.9l0,0c0.2-0.9,0.7-1.6,1.3-2.1c0.7-0.5,1.5-0.9,2.4-0.9
			l36.1-0.2l0,0V2.8c0-0.4,0.1-0.8,0.2-1.1s0.3-0.7,0.6-0.9c0.3-0.3,0.6-0.5,0.9-0.6C42.1,0.1,42.5,0,42.8,0h39.5
			c0.4,0,0.9,0.1,1.3,0.3s0.8,0.4,1.1,0.8l2.7,2.8c0.2,0.2,0.3,0.4,0.4,0.6c4.1,6,9.3,10.7,15.2,15.8l0.2,0.2l20.2,0.1
			c1.3,0,2.6,0.5,3.6,1.4c0.9,0.9,1.6,2.1,1.6,3.5c0,0.1-0.5,1.9-0.8,3.1c-0.2,0.8-0.2,1.7,0,2.5l0.6,1.9c0.1,0.4,0.2,0.9,0.2,1.3
			V40c-0.1,3.5-1.9,4.7-4.7,4.7H89.3l-20.4,0H5.7c-1.5,0-2.9-0.6-4-1.7c-1.1-1-1.7-2.5-1.7-4V37.2L0,37.2z"/>
		<path d="M10.9,38.3c0-2.7,1.1-5.3,3-7.2c1.9-1.9,4.5-3,7.2-3s5.3,1.1,7.2,3c1.9,1.9,3,4.5,3,7.2v6.5c-8,0.1-12.6,0.2-20.4,0
			L10.9,38.3L10.9,38.3L10.9,38.3z"/>
		<path class="st1" d="M49.4,27H3.6c-0.5,0-1-0.5-1-1s0.5-1,1-1h45.8c0.5,0,1,0.5,1,1S50,27,49.4,27z"/>
		<path class="st2" d="M0.1,23.5h5.1v13.6H0v-4.6C0,23.1,0,24.6,0.1,23.5z"/>
		<path d="M30.8,40c0-5.3-4.4-9.7-9.7-9.7s-9.7,4.4-9.7,9.7s4.4,9.7,9.7,9.7S30.8,45.4,30.8,40z"/>
		<path class="st3" d="M26.1,40c0-2.8-2.2-5-5-5s-5,2.3-5,5s2.3,5,5,5S26.1,42.8,26.1,40z"/>
		<path d="M128.6,40v-2.9l-0.1,0h-25.3l-0.1,0V40l0.1,0L128.6,40L128.6,40z"/>
		<path class="st3" d="M128.2,41c0.2,0,0.5-0.1,0.6-0.3c0.2-0.1,0.3-0.4,0.3-0.6v-3c0-0.2-0.1-0.5-0.3-0.6c-0.2-0.2-0.4-0.3-0.6-0.3
			h-11.5c-0.2,0-0.5,0.1-0.6,0.3c-0.2,0.1-0.3,0.4-0.3,0.6v3c0,0.2,0.1,0.5,0.3,0.6c0.2,0.1,0.4,0.3,0.6,0.3H128.2z"/>
		<path class="st1" d="M55.8,45.8c-0.4,0-0.8-0.3-1-0.7l-8.3-24.4c-0.2-0.5,0.1-1.1,0.6-1.3c0.5-0.2,1.1,0.1,1.3,0.6l8.3,24.4
			c0.2,0.5-0.1,1.1-0.6,1.3C56.1,45.7,56,45.8,55.8,45.8z"/>
		<path class="st1" d="M59,27h-4.6c-0.5,0-1-0.5-1-1s0.5-1,1-1H59c0.5,0,1,0.5,1,1S59.5,27,59,27z"/>
		<path d="M111.3,25.4c-6.4,1.9-2.4,7.7,0,8.2h17.4v-8.1L111.3,25.4L111.3,25.4L111.3,25.4z"/>
		<path class="st3" d="M111.3,33.6v-8.2H97.6v8.2H111.3z"/>
		<path d="M43.5,20.4h20.3c1.7,0,2.7-2,1.5-3.4L53.8,4.1H43.6L43.5,20.4L43.5,20.4L43.5,20.4z"/>
		<path class="st1" d="M78.3,29.3c-0.6,0-1-0.5-1-1V16.1c0-0.6,0.4-1,1-1s1,0.4,1,1v12.2C79.3,28.8,78.9,29.3,78.3,29.3z"/>
		<path d="M60.8,4.1h24.8c1.3,0,2.6,0.5,3.5,1.5l14,14.6l0.2,0.2H78.7c-1.3,0-2.5-0.5-3.4-1.5L60.8,4.1C60.8,4.1,60.8,4.1,60.8,4.1
			C60.8,4.1,60.8,4.1,60.8,4.1L60.8,4.1L60.8,4.1z"/>
		<path d="M89.3,38.3v6.5C69.2,45,72,44.9,69,44.8v-6.5c0-2.7,1.1-5.3,3-7.2s4.5-3,7.2-3s5.3,1.1,7.2,3C88.3,33,89.3,35.6,89.3,38.3
			L89.3,38.3L89.3,38.3z"/>
		<path d="M88.9,40c0-5.3-4.4-9.7-9.7-9.7s-9.7,4.4-9.7,9.7s4.4,9.7,9.7,9.7S88.9,45.4,88.9,40z"/>
		<path class="st3" d="M84.2,40c0-2.8-2.2-5-5-5s-5,2.2-5,5s2.2,5,5,5S84.2,42.8,84.2,40z"/>
	</g>
</g>
</svg>
