<?xml version="1.0" encoding="utf-8"?>
<!-- Generator: Adobe Illustrator 27.6.1, SVG Export Plug-In . SVG Version: 6.00 Build 0)  -->
<svg version="1.1" id="Layer_2_00000125564373386534730770000000340045460497480590_"
	 xmlns="http://www.w3.org/2000/svg" xmlns:xlink="http://www.w3.org/1999/xlink" x="0px" y="0px" viewBox="0 0 109.8 97.3"
	 style="enable-background:new 0 0 109.8 97.3;" xml:space="preserve">
<style type="text/css">
	.st0{fill:#00BBBB;}
	.st1{fill:#004F51;}
</style>
<g id="Layer_1-2">
	<path class="st0" d="M102.5,86.8V76.2h-9.2V33.4h12.7V22.8C105.6,22.6,55.3,0.2,54.9,0C54.4,0.2,8,22.6,7.3,22.9v10.5h9v42.9h-9
		v10.6H1.5v10.5h106.8V86.8C108.3,86.8,102.5,86.8,102.5,86.8z"/>
	<path d="M93.4,34.9h-77c-0.8,0-1.5-0.7-1.5-1.5s0.7-1.5,1.5-1.5h77c0.8,0,1.5,0.7,1.5,1.5S94.2,34.9,93.4,34.9z"/>
	<path d="M108.3,88.3H1.5c-0.8,0-1.5-0.7-1.5-1.5s0.7-1.5,1.5-1.5h106.8c0.8,0,1.5,0.7,1.5,1.5S109.2,88.3,108.3,88.3z"/>
	<path class="st1" d="M49,76.2H27.2V53.5c0-6,4.9-10.9,10.9-10.9S49,47.4,49,53.5V76.2L49,76.2z"/>
	<path class="st1" d="M82.3,76.2H60.4V53.5c0-6,4.9-10.9,10.9-10.9s10.9,4.9,10.9,10.9L82.3,76.2C82.3,76.2,82.3,76.2,82.3,76.2z"/>
	<path d="M102.5,77.7H7.3c-0.8,0-1.5-0.7-1.5-1.5s0.7-1.5,1.5-1.5h95.2c0.8,0,1.5,0.7,1.5,1.5S103.4,77.7,102.5,77.7L102.5,77.7z"/>
</g>
</svg>
