<?xml version="1.0" encoding="UTF-8"?>
<svg id="Layer_2" xmlns="http://www.w3.org/2000/svg" xmlns:xlink="http://www.w3.org/1999/xlink" viewBox="0 0 157.46 170.26">
  <defs>
    <style>
      .cls-1, .cls-2, .cls-3, .cls-4 {
        fill: none;
      }

      .cls-5 {
        fill: #ce931d;
      }

      .cls-6 {
        fill: #f3b120;
      }

      .cls-7 {
        fill: #008383;
      }

      .cls-2 {
        stroke: #000;
      }

      .cls-2, .cls-3, .cls-4 {
        stroke-linecap: round;
        stroke-linejoin: round;
        stroke-width: 2px;
      }

      .cls-8 {
        fill: #0bb;
      }

      .cls-3 {
        stroke: #fff;
      }

      .cls-9 {
        fill: #fff;
      }

      .cls-4 {
        stroke: #201d1d;
      }

      .cls-10 {
        fill: #e5a423;
      }

      .cls-11 {
        clip-path: url(#clippath);
      }
    </style>
    <clipPath id="clippath">
      <path class="cls-1" d="M128.99,12.84L64.25,0c-5.52,1.48-44.89,72.94-43.42,78.46l16.06,59.94c1.48,5.52,7.15,8.79,12.67,7.31l99.91-26.77c5.52-1.48,8.79-7.15,7.31-12.67l.68-49.91c-1.48-5.52-22.95-45.01-28.47-43.53Z"/>
    </clipPath>
  </defs>
  <g id="Layer_1-2" data-name="Layer_1">
    <g class="cls-11">
      <g>
        <path class="cls-7" d="M126.56,25.79c.34.08.66.24.93.46.28.22.5.49.66.79.16.31.26.65.28,1,.02.35-.03.7-.15,1.02l-40.64,139.28c-.18.67-.63,1.23-1.22,1.57-.6.35-1.31.44-1.98.26l-61.35-17.9c-.66-.21-1.21-.67-1.52-1.28-.32-.61-.39-1.33-.19-1.99L62.01,9.72c.19-.67.63-1.23,1.23-1.58.59-.35,1.31-.44,1.97-.26l61.35,17.9Z"/>
        <path class="cls-3" d="M77.72,20.19s-.02,0-.03,0c0,0-.02.01-.03.01,0,0-.02.01-.02.03,0,0,0,.02,0,.03.13.96.07,1.95-.2,2.89-1.27,4.37-6.4,6.62-11.48,5.14h-.02s-.03,0-.05,0c-.01,0-.03.03-.03.04l-31.17,106.81s0,.04,0,.05c0,.02.02.03.04.03h.02c5.08,1.49,8.16,6.23,6.91,10.51-.28,1.01-.8,1.92-1.5,2.69,0,0-.02.01-.02.03,0,0,0,.02,0,.03,0,.01,0,.02.02.03,0,0,.02.01.02.01l31.98,9.33s.02,0,.03,0c.01,0,.02,0,.03-.02,0,0,.01-.02.01-.03,0,0,0-.02,0-.03-.19-1.02-.13-2.07.17-3.07,1.24-4.26,6.36-6.6,11.34-5.18.02,0,.04,0,.05,0,.01,0,.02-.02.03-.04l31.14-106.72s0-.03,0-.05c0-.02-.02-.03-.04-.03-5.03-1.5-8.02-6.2-6.77-10.46.3-.96.78-1.85,1.42-2.62v-.03s.01-.02.01-.03c0,0,0-.02-.02-.03,0,0-.01-.02-.03-.02l-31.83-9.29Z"/>
        <path class="cls-9" d="M88.61,94.92c-1.1,2.63-2.78,4.97-4.9,6.86h0c-.24.22-.52.39-.82.49-.31.11-.62.15-.95.13-.32-.02-.63-.11-.92-.26-.28-.14-.54-.35-.74-.6-.38-.47-.56-1.09-.5-1.7s.36-1.17.83-1.56h0c1.59-1.28,2.87-2.89,3.76-4.73,0,0,0,0,0-.02,0,0,0-.02,0-.03,0,0-.01,0-.02-.02,0,0-.02-.01-.02-.01l-7.89-2.3s-.03,0-.04,0c-.01,0-.03.01-.03.03-3.28,5.47-6.34,7.61-10.92,6.27l-.09-.03c-4.39-1.28-6.38-5.59-5.29-10.78,0-.02,0-.03,0-.05-.01-.02-.02-.02-.04-.03l-2.19-.64c-.47-.14-.87-.45-1.11-.88-.23-.43-.29-.94-.15-1.42s.46-.87.89-1.11c.43-.23.94-.29,1.41-.15l2.25.66s.02,0,.04,0c.01,0,.02-.02.03-.03.83-1.93,2.01-3.68,3.48-5.18h0c.46-.43,1.06-.66,1.69-.65.62,0,1.22.27,1.66.71.42.44.64,1.03.63,1.64-.02.6-.27,1.18-.71,1.6h0c-1,.95-1.84,2.05-2.51,3.25v.03s0,.02,0,.03,0,.01.01.03c.01,0,.02.01.03.02l7.66,2.23s.02,0,.04,0c.01,0,.02-.02.03-.03,3.34-5.7,6.6-7.64,10.99-6.35l.09.03c4.44,1.3,6.41,5.66,5.34,10.96,0,.01,0,.02,0,.04,0,.02.02.03.04.03l2.19.64c.47.14.87.46,1.11.89.24.43.29.94.15,1.41s-.45.87-.89,1.11c-.43.24-.94.29-1.41.16l-2.2-.65ZM64.35,87.69s-.02,0-.03,0c0,0-.01,0-.02.01,0,0-.01,0-.02.02,0,0-.01.02-.01.02-.53,2.6.47,4.33,2.24,4.85l.09.03c1.68.49,2.98.02,4.8-2.78,0,0,.01-.02.01-.03,0,0,0-.02,0-.03,0,0-.01-.02-.02-.02,0,0-.02-.01-.02-.01l-7.02-2.05ZM83.23,85.32l-.09-.03c-1.77-.52-3.13-.01-4.97,2.84,0,0-.01.02-.01.02,0,.02,0,.02,0,.04,0,0,0,.01.02.02,0,0,.01.01.02.02l7.26,2.12s.02,0,.03,0c0,0,.01,0,.03-.01,0,0,.01,0,.02-.01,0,0,.01-.02.01-.02.49-2.61-.35-4.41-2.31-4.98h0Z"/>
        <path class="cls-4" d="M77.7,41.7l-7,23.99"/>
        <path class="cls-4" d="M87.78,44.64l-7,23.99"/>
        <path class="cls-4" d="M97.85,47.58l-7,23.99"/>
        <path class="cls-2" d="M58.79,106.48l-7,23.99"/>
        <path class="cls-2" d="M68.88,109.42l-7,23.99"/>
        <path class="cls-2" d="M78.95,112.36l-7,23.99"/>
      </g>
      <g>
        <path class="cls-8" d="M152.18,58.05c.26.23.46.52.59.84.14.32.2.67.2,1.01,0,.35-.09.69-.23,1.01-.14.32-.36.6-.62.82l-102.44,102.74c-.48.5-1.14.78-1.82.8-.69.02-1.36-.24-1.86-.72L.72,119.43c-.48-.5-.74-1.17-.72-1.86,0-.69.3-1.35.79-1.83L103.23,13c.48-.49,1.14-.78,1.83-.79.69-.02,1.36.24,1.85.72l45.26,45.13Z"/>
        <path class="cls-3" d="M111.99,29.72s-.02,0-.03-.01c0,0-.02,0-.03,0,0,0-.02,0-.03.01,0,0-.01.01-.01.02-.35.91-.87,1.75-1.56,2.44-3.21,3.22-8.79,2.74-12.54-.99h-.01s-.03-.03-.04-.03c-.02,0-.04,0-.05.02L19.13,109.97s-.02.03-.01.04c0,.02,0,.04.02.05h.01c3.74,3.75,4.18,9.39,1.03,12.54-.73.75-1.62,1.3-2.61,1.64,0,0-.02,0-.03.01,0,0,0,.02,0,.03,0,.01,0,.02,0,.04,0,0,.01.02.01.02l23.59,23.52s.02.02.03.02c.01,0,.02,0,.04,0,0,0,.02,0,.03-.02,0,0,.01-.01.02-.03.32-.99.88-1.88,1.62-2.61,3.13-3.14,8.75-2.74,12.43.89.01.01.03.02.05.02.02,0,.03,0,.04-.02l78.5-78.73s.02-.03.02-.04c0-.01,0-.03-.02-.05-3.7-3.73-4.06-9.29-.93-12.43.72-.7,1.57-1.25,2.5-1.62l.02-.02s.02-.02.02-.03c0-.01,0-.03,0-.03,0,0,0-.02-.01-.03l-23.48-23.41Z"/>
        <path class="cls-9" d="M85.73,100.53c-2.23,1.78-4.82,3.03-7.59,3.67h0c-.31.08-.64.09-.96.04-.32-.05-.62-.17-.9-.34-.27-.17-.5-.4-.68-.67-.18-.26-.3-.57-.36-.89-.11-.6.03-1.23.38-1.73s.88-.85,1.48-.97h0c2-.36,3.9-1.16,5.56-2.35,0,0,.01,0,.02-.02,0,0,0-.01.01-.03,0,0,0-.01,0-.02,0-.01,0-.02-.01-.02l-5.82-5.81s-.03-.02-.04-.02c-.01,0-.03,0-.04,0-5.5,3.23-9.21,3.64-12.59.27l-.07-.07c-3.24-3.23-2.92-7.97.52-12,.01-.01.02-.03.02-.04,0-.02,0-.03-.02-.04l-1.62-1.61c-.35-.35-.54-.81-.55-1.31,0-.49.2-.97.54-1.32s.82-.54,1.31-.54c.49,0,.96.19,1.31.54l1.66,1.65s.02.02.04.02c.02,0,.03,0,.04,0,1.65-1.3,3.53-2.27,5.54-2.88h0c.61-.16,1.25-.07,1.79.23.54.31.94.82,1.11,1.42.15.59.07,1.21-.23,1.74-.3.52-.8.91-1.39,1.06h0c-1.33.36-2.6.91-3.76,1.65l-.02.02s0,.02,0,.03,0,.02,0,.03c.01.01.01.02.02.03l5.65,5.63s.02.01.04.02c.02,0,.03,0,.04,0,5.67-3.4,9.45-3.54,12.69-.3l.07.07c3.27,3.26,2.92,8.04-.57,12.18,0,0-.01.02-.01.04,0,.02,0,.03.02.05l1.62,1.61c.35.35.55.82.55,1.31,0,.49-.2.96-.54,1.31s-.81.54-1.31.55c-.49,0-.97-.19-1.31-.54l-1.62-1.62ZM67.9,82.55s-.02-.01-.02-.01c0,0-.02,0-.03,0,0,0-.02,0-.02,0,0,0-.02,0-.02.01-1.71,2.02-1.66,4.03-.36,5.33l.07.07c1.24,1.23,2.6,1.45,5.55-.14.01,0,.02,0,.03-.02,0,0,.01-.02.01-.03,0,0,0-.02,0-.03,0,0,0-.02-.01-.02l-5.18-5.17ZM85.61,89.52l-.07-.07c-1.3-1.3-2.74-1.51-5.72.11,0,0-.02,0-.02.01,0,.01-.01.02-.01.03,0,0,0,.02,0,.03,0,0,0,.02.01.02l5.35,5.34s.02,0,.02.01c0,0,.02,0,.03,0,0,0,.02,0,.02,0,0,0,.02-.01.02-.01,1.68-2.06,1.8-4.04.36-5.47h0Z"/>
        <path class="cls-2" d="M101.66,48.59l-17.65,17.7"/>
        <path class="cls-2" d="M109.1,56l-17.65,17.7"/>
        <path class="cls-2" d="M116.53,63.41l-17.65,17.7"/>
        <path class="cls-2" d="M54.02,96.37l-17.64,17.7"/>
        <path class="cls-2" d="M61.45,103.79l-17.64,17.7"/>
        <path class="cls-2" d="M68.88,111.19l-17.64,17.7"/>
      </g>
    </g>
    <rect class="cls-6" x="25.87" y="51.3" width="124.12" height="82.74" rx="10.34" ry="10.34" transform="translate(-20.99 25.92) rotate(-15)"/>
    <path class="cls-10" d="M146.53,71.62l-22.48,6.02c-5.52,1.48-8.79,7.15-7.31,12.67,1.48,5.52,7.15,8.79,12.67,7.31l22.48-6.02-5.35-19.98Z"/>
    <path class="cls-5" d="M147.69,65.95l-27.47,7.36c-5.52,1.48-8.79,7.15-7.31,12.67h0c1.48,5.52,7.15,8.79,12.67,7.31l27.47-7.36c1.38-.37,2.2-1.79,1.83-3.17l-4.02-14.99c-.37-1.38-1.79-2.2-3.17-1.83Z"/>
    <circle class="cls-9" cx="122.9" cy="83.31" r="5.17"/>
  </g>
</svg>