<?xml version="1.0" encoding="UTF-8"?><svg id="Layer_2" xmlns="http://www.w3.org/2000/svg" viewBox="0 0 110.56 95.85"><defs><style>.cls-1{fill:#eff5f5;}.cls-1,.cls-2,.cls-3,.cls-4,.cls-5{stroke-width:0px;}.cls-2{fill:#f1a732;}.cls-3{fill:#000;}.cls-4{fill:#ef4c35;}.cls-5{fill:#2e0005;}</style></defs><g id="Layer_1-2"><polygon class="cls-5" points="5.82 20.85 55.7 7.51 104.3 20.85 104.3 95.68 5.82 95.68 5.82 20.85"/><rect class="cls-2" x="78.07" y="62.13" width="18.49" height="33.55"/><circle class="cls-3" cx="81.99" cy="79.07" r="1.45"/><polygon class="cls-2" points="110.46 25.29 110.46 15.54 56.54 0 .08 15.23 .08 25.28 55.91 10.37 110.46 25.29"/><path class="cls-3" d="M109.56,26.15c-.09,0-.18-.01-.27-.04l-53.39-14.7L1.26,25.98c-.53.14-1.08-.17-1.22-.71s.17-1.08.71-1.22l54.91-14.64c.17-.05.35-.05.52,0l53.65,14.78c.53.15.84.7.7,1.23-.12.44-.52.73-.96.73Z"/><polyline class="cls-1" points="18.8 95.85 18.91 46.83 69.85 46.83 69.74 95.85"/><rect class="cls-4" x="22.01" y="78.31" width="18.13" height="17.36"/><path class="cls-3" d="M69.34,95.71h0c-.55,0-1-.45-1-1l.11-46.94H19.5l-.11,46.94c0,.55-.45,1-1,1h0c-.55,0-1-.45-1-1l.11-47.94c0-.55.45-1,1-1h50.94c.27,0,.52.11.71.29.19.19.29.44.29.71l-.11,47.94c0,.55-.45,1-1,1Z"/><rect class="cls-2" x="18.57" y="46.22" width="50.94" height="9.96"/><path class="cls-3" d="M69.51,57.18H18.57c-.55,0-1-.45-1-1v-9.96c0-.55.45-1,1-1h50.94c.55,0,1,.45,1,1v9.96c0,.55-.45,1-1,1ZM19.57,55.18h48.94v-7.96H19.57v7.96Z"/><path class="cls-3" d="M49.2,52.37h-10.33c-.55,0-1-.45-1-1s.45-1,1-1h10.33c.55,0,1,.45,1,1s-.45,1-1,1Z"/></g></svg>