<?xml version="1.0" encoding="UTF-8"?><svg id="Layer_2" xmlns="http://www.w3.org/2000/svg" viewBox="0 0 110.42 95.98"><defs><style>.cls-1{fill:#eff5f5;}.cls-1,.cls-2,.cls-3,.cls-4,.cls-5{stroke-width:0px;}.cls-2{fill:#f1a732;}.cls-3{fill:#000;}.cls-4{fill:#f44337;}.cls-5{fill:#00b2b0;}</style></defs><g id="Layer_1-2"><polygon class="cls-5" points="6.04 20.83 55.89 7.51 104.45 20.83 104.45 95.6 6.04 95.6 6.04 20.83"/><polyline class="cls-1" points="18.93 95.68 18.93 41.42 91.55 41.42 91.55 95.68"/><rect class="cls-2" x="18.93" y="40.81" width="72.62" height="9.18"/><path class="cls-3" d="M91.55,51H18.93c-.55,0-1-.45-1-1v-9.18c0-.55.45-1,1-1h72.62c.55,0,1,.45,1,1v9.18c0,.55-.45,1-1,1ZM19.93,49h70.62v-7.18H19.93v7.18Z"/><rect class="cls-2" x="18.93" y="49.94" width="72.62" height="9.18"/><path class="cls-3" d="M91.55,60.12H18.93c-.55,0-1-.45-1-1v-9.18c0-.55.45-1,1-1h72.62c.55,0,1,.45,1,1v9.18c0,.55-.45,1-1,1ZM19.93,58.12h70.62v-7.18H19.93v7.18Z"/><rect class="cls-2" x="18.93" y="59.33" width="72.62" height="9.18"/><path class="cls-3" d="M91.55,69.51H18.93c-.55,0-1-.45-1-1v-9.18c0-.55.45-1,1-1h72.62c.55,0,1,.45,1,1v9.18c0,.55-.45,1-1,1ZM19.93,67.51h70.62v-7.18H19.93v7.18Z"/><rect class="cls-4" x="24.29" y="77.19" width="18.11" height="18.78"/><g id="Circle_R_-_White"><path class="cls-3" d="M55.24,16.21c-5.74,0-10.41,4.59-10.53,10.32h6.26v-4.53c0-.08.07-.15.15-.15h4.67c4.39,0,4.04,3.06,4.04,3.06,0,1.77-1.13,2.56-2.63,2.56h-12.46c0,.12.01.23.03.35h12.01c.4.01.78.2,1.04.5l.1.14,2.45,3.39h-3.11c-.09,0-.18-.05-.24-.13l-1.89-2.84s-.05-.08-.09-.12h-1.14c-.06.02-.09.08-.1.14v2.79c0,.08-.07.15-.15.15h-2.53c-.08,0-.15-.07-.15-.15h0v-2.93h-6.07c1.12,5.71,6.65,9.43,12.36,8.31,5.71-1.12,9.43-6.65,8.31-12.36-.97-4.94-5.3-8.51-10.33-8.51"/><path class="cls-3" d="M55.67,26.53c.96,0,1.52-.47,1.52-1.21v-.03c0-.8-.58-1.21-1.53-1.21h-1.7c-.08,0-.15.07-.15.15h0v2.15c0,.08.06.15.15.15h1.71Z"/></g><polygon class="cls-2" points="110.39 25.27 110.39 15.53 56.51 0 .09 15.21 .09 25.26 55.88 10.37 110.39 25.27"/><path class="cls-3" d="M109.42,26.13c-.09,0-.18-.01-.27-.04l-53.28-14.69L1.25,25.81c-.53.14-1.08-.18-1.22-.71-.14-.53.18-1.08.71-1.22l54.88-14.48c.17-.05.35-.04.52,0l53.54,14.76c.53.15.84.7.7,1.23-.12.44-.52.73-.96.73Z"/><path class="cls-3" d="M60.99,65.06h-10.33c-.55,0-1-.45-1-1s.45-1,1-1h10.33c.55,0,1,.45,1,1s-.45,1-1,1Z"/><path class="cls-3" d="M91.48,95.74h0c-.55,0-1-.45-1-1l.15-53.11H20.01l-.15,53.12c0,.55-.45,1-1,1h0c-.55,0-1-.45-1-1l.15-54.11c0-.55.45-1,1-1h72.62c.27,0,.52.11.71.29s.29.44.29.71l-.15,54.11c0,.55-.45,1-1,1Z"/></g></svg>