<svg id="Layer_1" data-name="Layer 1" xmlns="http://www.w3.org/2000/svg" viewBox="0 0 111.78 112.63"><defs><style>.cls-1{fill:#76cccd;}.cls-2{fill:#351c13;}</style></defs><path class="cls-1" d="M55.89,106a49.68,49.68,0,1,1,49.68-49.68A49.68,49.68,0,0,1,55.89,106Z"/><path class="cls-2" d="M77.6,47.72S79.22,33.3,58.53,33.3H36.47a.7.7,0,0,0-.71.71V55.35H6.23c0,.33,0,.64,0,1,0,1.16,0,2.31.13,3.46H65.16C72.27,59.78,77.6,56.08,77.6,47.72ZM65.06,49.64c0,3.51-2.61,5.71-7.15,5.71H49.82a.7.7,0,0,1-.72-.71V44.52a.71.71,0,0,1,.72-.72h8c4.47,0,7.22,1.92,7.22,5.71Z"/><path class="cls-2" d="M36.47,80.4H48.38a.71.71,0,0,0,.72-.72V66.53a.73.73,0,0,1,.45-.67h5.38a3.11,3.11,0,0,1,.42.55l8.9,13.39a1.44,1.44,0,0,0,1.12.6H80.06l-11.54-16h0l-.47-.64a6.73,6.73,0,0,0-4.93-2.36H6.47c.15,1.5.38,3,.66,4.43H35.76V79.68A.7.7,0,0,0,36.47,80.4Z"/></svg>